<svg xmlns="http://www.w3.org/2000/svg" width="616.971" height="310.247" viewBox="0 0 616.971 310.247">
  <g>
    <path d="M106.441,224.4a25.288,25.288,0,1,1,25.286-25.288A25.316,25.316,0,0,1,106.441,224.4Z" fill="#4794ec"/>
    <polygon points="180.553 223.128 147.723 122.132 134.015 164.302 97.914 164.302 123.419 85.843 172.027 85.843 216.654 223.128 180.553 223.128" fill="#fff"/>
    <g>
      <g>
        <g>
          <path d="M295.23,223.128v-72.9a16.847,16.847,0,0,0-33.693,0v72.9H227.845V101.334h27.2l4.4,9.975,1.313-1.232c6.113-5.735,16.4-9.588,25.583-9.588,25.477,0,42.594,19.3,42.594,48.023v74.616Z" fill="#fff"/>
          <path d="M295.23,223.128v-72.9a16.847,16.847,0,0,0-33.693,0v72.9H227.845V101.334h27.2l4.4,9.975,1.313-1.232c6.113-5.735,16.4-9.588,25.583-9.588,25.477,0,42.594,19.3,42.594,48.023v74.616Z" fill="#fff"/>
        </g>
        <g>
          <path d="M487.234,223.131c-43.879,0-49.795-24.976-49.795-49.409V146.637c0-29.217,17.444-45.307,49.116-45.307,16.855,0,29.523,4.338,37.653,12.893,8.7,9.151,12.444,23.023,11.455,42.411a54.288,54.288,0,0,1-4.051,18.409h-60.4v1.276c0,15.258,7.155,16.853,23.482,16.853h36.292l3,29.959Zm2.218-94.484c-12.276,0-18.243,4.645-18.243,14.2v8.076h33.428l.138-1.119c.622-5.03.506-12-3.576-16.614C498.534,130.176,494.581,128.647,489.452,128.647Z" fill="#fff"/>
          <path d="M487.234,223.131c-43.879,0-49.795-24.976-49.795-49.409V146.637c0-29.217,17.444-45.307,49.116-45.307,16.855,0,29.523,4.338,37.653,12.893,8.7,9.151,12.444,23.023,11.455,42.411a54.288,54.288,0,0,1-4.051,18.409h-60.4v1.276c0,15.258,7.155,16.853,23.482,16.853h36.292l3,29.959Zm2.218-94.484c-12.276,0-18.243,4.645-18.243,14.2v8.076h33.428l.138-1.119c.622-5.03.506-12-3.576-16.614C498.534,130.176,494.581,128.647,489.452,128.647Z" fill="#fff"/>
        </g>
        <g>
          <path d="M409.405,223.128c-43.877,0-49.793-24.973-49.793-49.4v-37.8H341.263v-26.2l18.058-1.719,6.393-22.154H393.6v20.8l27.027,1.381v27.891H393.3v40.4c0,15.255,7.179,16.849,23.563,16.849h6.216l3,29.957Z" fill="#fff"/>
          <path d="M409.405,223.128c-43.877,0-49.793-24.973-49.793-49.4v-37.8H341.263v-26.2l18.058-1.719,6.393-22.154H393.6v20.8l27.027,1.381v27.891H393.3v40.4c0,15.255,7.179,16.849,23.563,16.849h6.216l3,29.957Z" fill="#fff"/>
        </g>
      </g>
      <g>
        <path d="M295.23,223.128v-72.9a16.847,16.847,0,0,0-33.693,0v72.9H227.845V101.334h27.2l4.4,9.975,1.313-1.232c6.113-5.735,16.4-9.588,25.583-9.588,25.477,0,42.594,19.3,42.594,48.023v74.616Z" fill="#fff"/>
        <path d="M487.234,223.131c-43.879,0-49.795-24.976-49.795-49.409V146.637c0-29.217,17.444-45.307,49.116-45.307,16.855,0,29.523,4.338,37.653,12.893,8.7,9.151,12.444,23.023,11.455,42.411a54.288,54.288,0,0,1-4.051,18.409h-60.4v1.276c0,15.258,7.155,16.853,23.482,16.853h36.292l3,29.959Zm2.218-94.484c-12.276,0-18.243,4.645-18.243,14.2v8.076h33.428l.138-1.119c.622-5.03.506-12-3.576-16.614C498.534,130.176,494.581,128.647,489.452,128.647Z" fill="#fff"/>
        <path d="M409.405,223.128c-43.877,0-49.793-24.973-49.793-49.4v-37.8H341.263v-26.2l18.058-1.719,6.393-22.154H393.6v20.8l27.027,1.381v27.891H393.3v40.4c0,15.255,7.179,16.849,23.563,16.849h6.216l3,29.957Z" fill="#fff"/>
      </g>
    </g>
  </g>
</svg>
