<?xml version="1.0" encoding="utf-8" standalone="no"?>
<!DOCTYPE svg PUBLIC "-//W3C//DTD SVG 1.1//EN"
  "http://www.w3.org/Graphics/SVG/1.1/DTD/svg11.dtd">
<svg height="345.6pt" version="1.1" viewBox="0 0 460.8 345.6" width="460.8pt" xmlns="http://www.w3.org/2000/svg" xmlns:xlink="http://www.w3.org/1999/xlink">
 <metadata>
  <rdf:RDF xmlns:cc="http://creativecommons.org/ns#" xmlns:dc="http://purl.org/dc/elements/1.1/" xmlns:rdf="http://www.w3.org/1999/02/22-rdf-syntax-ns#">
   <cc:Work>
    <dc:type rdf:resource="http://purl.org/dc/dcmitype/StillImage"/>
    <dc:date>2021-09-01T23:53:15.036837</dc:date>
    <dc:format>image/svg+xml</dc:format>
    <dc:creator>
     <cc:Agent>
      <dc:title>Matplotlib v3.4.3, https://matplotlib.org/</dc:title>
     </cc:Agent>
    </dc:creator>
   </cc:Work>
  </rdf:RDF>
 </metadata>
 <defs>
  <style type="text/css">*{stroke-linecap:butt;stroke-linejoin:round;}</style>
 </defs>
 <g id="figure_1">
  <g id="patch_1">
   <path d="M 0 345.6 
L 460.8 345.6 
L 460.8 0 
L 0 0 
z
" style="fill:#ffffff;"/>
  </g>
  <g id="axes_1">
   <g id="patch_2">
    <path d="M 57.6 307.584 
L 414.72 307.584 
L 414.72 41.472 
L 57.6 41.472 
z
" style="fill:#ffffff;"/>
   </g>
   <g id="matplotlib.axis_1">
    <g id="xtick_1">
     <g id="line2d_1">
      <defs>
       <path d="M 0 0 
L 0 3.5 
" id="me193541c86" style="stroke:#000000;stroke-width:0.8;"/>
      </defs>
      <g>
       <use style="stroke:#000000;stroke-width:0.8;" x="73.017012" xlink:href="#me193541c86" y="307.584"/>
      </g>
     </g>
     <g id="text_1">
      <!-- 0 -->
      <g transform="translate(69.835762 322.182437)scale(0.1 -0.1)">
       <defs>
        <path d="M 2034 4250 
Q 1547 4250 1301 3770 
Q 1056 3291 1056 2328 
Q 1056 1369 1301 889 
Q 1547 409 2034 409 
Q 2525 409 2770 889 
Q 3016 1369 3016 2328 
Q 3016 3291 2770 3770 
Q 2525 4250 2034 4250 
z
M 2034 4750 
Q 2819 4750 3233 4129 
Q 3647 3509 3647 2328 
Q 3647 1150 3233 529 
Q 2819 -91 2034 -91 
Q 1250 -91 836 529 
Q 422 1150 422 2328 
Q 422 3509 836 4129 
Q 1250 4750 2034 4750 
z
" id="DejaVuSans-30" transform="scale(0.015625)"/>
       </defs>
       <use xlink:href="#DejaVuSans-30"/>
      </g>
     </g>
    </g>
    <g id="xtick_2">
     <g id="line2d_2">
      <g>
       <use style="stroke:#000000;stroke-width:0.8;" x="113.802759" xlink:href="#me193541c86" y="307.584"/>
      </g>
     </g>
     <g id="text_2">
      <!-- 50 -->
      <g transform="translate(107.440259 322.182437)scale(0.1 -0.1)">
       <defs>
        <path d="M 691 4666 
L 3169 4666 
L 3169 4134 
L 1269 4134 
L 1269 2991 
Q 1406 3038 1543 3061 
Q 1681 3084 1819 3084 
Q 2600 3084 3056 2656 
Q 3513 2228 3513 1497 
Q 3513 744 3044 326 
Q 2575 -91 1722 -91 
Q 1428 -91 1123 -41 
Q 819 9 494 109 
L 494 744 
Q 775 591 1075 516 
Q 1375 441 1709 441 
Q 2250 441 2565 725 
Q 2881 1009 2881 1497 
Q 2881 1984 2565 2268 
Q 2250 2553 1709 2553 
Q 1456 2553 1204 2497 
Q 953 2441 691 2322 
L 691 4666 
z
" id="DejaVuSans-35" transform="scale(0.015625)"/>
       </defs>
       <use xlink:href="#DejaVuSans-35"/>
       <use x="63.623047" xlink:href="#DejaVuSans-30"/>
      </g>
     </g>
    </g>
    <g id="xtick_3">
     <g id="line2d_3">
      <g>
       <use style="stroke:#000000;stroke-width:0.8;" x="154.588506" xlink:href="#me193541c86" y="307.584"/>
      </g>
     </g>
     <g id="text_3">
      <!-- 100 -->
      <g transform="translate(145.044756 322.182437)scale(0.1 -0.1)">
       <defs>
        <path d="M 794 531 
L 1825 531 
L 1825 4091 
L 703 3866 
L 703 4441 
L 1819 4666 
L 2450 4666 
L 2450 531 
L 3481 531 
L 3481 0 
L 794 0 
L 794 531 
z
" id="DejaVuSans-31" transform="scale(0.015625)"/>
       </defs>
       <use xlink:href="#DejaVuSans-31"/>
       <use x="63.623047" xlink:href="#DejaVuSans-30"/>
       <use x="127.246094" xlink:href="#DejaVuSans-30"/>
      </g>
     </g>
    </g>
    <g id="xtick_4">
     <g id="line2d_4">
      <g>
       <use style="stroke:#000000;stroke-width:0.8;" x="195.374253" xlink:href="#me193541c86" y="307.584"/>
      </g>
     </g>
     <g id="text_4">
      <!-- 150 -->
      <g transform="translate(185.830503 322.182437)scale(0.1 -0.1)">
       <use xlink:href="#DejaVuSans-31"/>
       <use x="63.623047" xlink:href="#DejaVuSans-35"/>
       <use x="127.246094" xlink:href="#DejaVuSans-30"/>
      </g>
     </g>
    </g>
    <g id="xtick_5">
     <g id="line2d_5">
      <g>
       <use style="stroke:#000000;stroke-width:0.8;" x="236.16" xlink:href="#me193541c86" y="307.584"/>
      </g>
     </g>
     <g id="text_5">
      <!-- 200 -->
      <g transform="translate(226.61625 322.182437)scale(0.1 -0.1)">
       <defs>
        <path d="M 1228 531 
L 3431 531 
L 3431 0 
L 469 0 
L 469 531 
Q 828 903 1448 1529 
Q 2069 2156 2228 2338 
Q 2531 2678 2651 2914 
Q 2772 3150 2772 3378 
Q 2772 3750 2511 3984 
Q 2250 4219 1831 4219 
Q 1534 4219 1204 4116 
Q 875 4013 500 3803 
L 500 4441 
Q 881 4594 1212 4672 
Q 1544 4750 1819 4750 
Q 2544 4750 2975 4387 
Q 3406 4025 3406 3419 
Q 3406 3131 3298 2873 
Q 3191 2616 2906 2266 
Q 2828 2175 2409 1742 
Q 1991 1309 1228 531 
z
" id="DejaVuSans-32" transform="scale(0.015625)"/>
       </defs>
       <use xlink:href="#DejaVuSans-32"/>
       <use x="63.623047" xlink:href="#DejaVuSans-30"/>
       <use x="127.246094" xlink:href="#DejaVuSans-30"/>
      </g>
     </g>
    </g>
    <g id="xtick_6">
     <g id="line2d_6">
      <g>
       <use style="stroke:#000000;stroke-width:0.8;" x="276.945747" xlink:href="#me193541c86" y="307.584"/>
      </g>
     </g>
     <g id="text_6">
      <!-- 250 -->
      <g transform="translate(267.401997 322.182437)scale(0.1 -0.1)">
       <use xlink:href="#DejaVuSans-32"/>
       <use x="63.623047" xlink:href="#DejaVuSans-35"/>
       <use x="127.246094" xlink:href="#DejaVuSans-30"/>
      </g>
     </g>
    </g>
    <g id="xtick_7">
     <g id="line2d_7">
      <g>
       <use style="stroke:#000000;stroke-width:0.8;" x="317.731494" xlink:href="#me193541c86" y="307.584"/>
      </g>
     </g>
     <g id="text_7">
      <!-- 300 -->
      <g transform="translate(308.187744 322.182437)scale(0.1 -0.1)">
       <defs>
        <path d="M 2597 2516 
Q 3050 2419 3304 2112 
Q 3559 1806 3559 1356 
Q 3559 666 3084 287 
Q 2609 -91 1734 -91 
Q 1441 -91 1130 -33 
Q 819 25 488 141 
L 488 750 
Q 750 597 1062 519 
Q 1375 441 1716 441 
Q 2309 441 2620 675 
Q 2931 909 2931 1356 
Q 2931 1769 2642 2001 
Q 2353 2234 1838 2234 
L 1294 2234 
L 1294 2753 
L 1863 2753 
Q 2328 2753 2575 2939 
Q 2822 3125 2822 3475 
Q 2822 3834 2567 4026 
Q 2313 4219 1838 4219 
Q 1578 4219 1281 4162 
Q 984 4106 628 3988 
L 628 4550 
Q 988 4650 1302 4700 
Q 1616 4750 1894 4750 
Q 2613 4750 3031 4423 
Q 3450 4097 3450 3541 
Q 3450 3153 3228 2886 
Q 3006 2619 2597 2516 
z
" id="DejaVuSans-33" transform="scale(0.015625)"/>
       </defs>
       <use xlink:href="#DejaVuSans-33"/>
       <use x="63.623047" xlink:href="#DejaVuSans-30"/>
       <use x="127.246094" xlink:href="#DejaVuSans-30"/>
      </g>
     </g>
    </g>
    <g id="xtick_8">
     <g id="line2d_8">
      <g>
       <use style="stroke:#000000;stroke-width:0.8;" x="358.517241" xlink:href="#me193541c86" y="307.584"/>
      </g>
     </g>
     <g id="text_8">
      <!-- 350 -->
      <g transform="translate(348.973491 322.182437)scale(0.1 -0.1)">
       <use xlink:href="#DejaVuSans-33"/>
       <use x="63.623047" xlink:href="#DejaVuSans-35"/>
       <use x="127.246094" xlink:href="#DejaVuSans-30"/>
      </g>
     </g>
    </g>
    <g id="xtick_9">
     <g id="line2d_9">
      <g>
       <use style="stroke:#000000;stroke-width:0.8;" x="399.302988" xlink:href="#me193541c86" y="307.584"/>
      </g>
     </g>
     <g id="text_9">
      <!-- 400 -->
      <g transform="translate(389.759238 322.182437)scale(0.1 -0.1)">
       <defs>
        <path d="M 2419 4116 
L 825 1625 
L 2419 1625 
L 2419 4116 
z
M 2253 4666 
L 3047 4666 
L 3047 1625 
L 3713 1625 
L 3713 1100 
L 3047 1100 
L 3047 0 
L 2419 0 
L 2419 1100 
L 313 1100 
L 313 1709 
L 2253 4666 
z
" id="DejaVuSans-34" transform="scale(0.015625)"/>
       </defs>
       <use xlink:href="#DejaVuSans-34"/>
       <use x="63.623047" xlink:href="#DejaVuSans-30"/>
       <use x="127.246094" xlink:href="#DejaVuSans-30"/>
      </g>
     </g>
    </g>
    <g id="text_10">
     <!-- Boosting iteration -->
     <g transform="translate(191.602187 335.860562)scale(0.1 -0.1)">
      <defs>
       <path d="M 1259 2228 
L 1259 519 
L 2272 519 
Q 2781 519 3026 730 
Q 3272 941 3272 1375 
Q 3272 1813 3026 2020 
Q 2781 2228 2272 2228 
L 1259 2228 
z
M 1259 4147 
L 1259 2741 
L 2194 2741 
Q 2656 2741 2882 2914 
Q 3109 3088 3109 3444 
Q 3109 3797 2882 3972 
Q 2656 4147 2194 4147 
L 1259 4147 
z
M 628 4666 
L 2241 4666 
Q 2963 4666 3353 4366 
Q 3744 4066 3744 3513 
Q 3744 3084 3544 2831 
Q 3344 2578 2956 2516 
Q 3422 2416 3680 2098 
Q 3938 1781 3938 1306 
Q 3938 681 3513 340 
Q 3088 0 2303 0 
L 628 0 
L 628 4666 
z
" id="DejaVuSans-42" transform="scale(0.015625)"/>
       <path d="M 1959 3097 
Q 1497 3097 1228 2736 
Q 959 2375 959 1747 
Q 959 1119 1226 758 
Q 1494 397 1959 397 
Q 2419 397 2687 759 
Q 2956 1122 2956 1747 
Q 2956 2369 2687 2733 
Q 2419 3097 1959 3097 
z
M 1959 3584 
Q 2709 3584 3137 3096 
Q 3566 2609 3566 1747 
Q 3566 888 3137 398 
Q 2709 -91 1959 -91 
Q 1206 -91 779 398 
Q 353 888 353 1747 
Q 353 2609 779 3096 
Q 1206 3584 1959 3584 
z
" id="DejaVuSans-6f" transform="scale(0.015625)"/>
       <path d="M 2834 3397 
L 2834 2853 
Q 2591 2978 2328 3040 
Q 2066 3103 1784 3103 
Q 1356 3103 1142 2972 
Q 928 2841 928 2578 
Q 928 2378 1081 2264 
Q 1234 2150 1697 2047 
L 1894 2003 
Q 2506 1872 2764 1633 
Q 3022 1394 3022 966 
Q 3022 478 2636 193 
Q 2250 -91 1575 -91 
Q 1294 -91 989 -36 
Q 684 19 347 128 
L 347 722 
Q 666 556 975 473 
Q 1284 391 1588 391 
Q 1994 391 2212 530 
Q 2431 669 2431 922 
Q 2431 1156 2273 1281 
Q 2116 1406 1581 1522 
L 1381 1569 
Q 847 1681 609 1914 
Q 372 2147 372 2553 
Q 372 3047 722 3315 
Q 1072 3584 1716 3584 
Q 2034 3584 2315 3537 
Q 2597 3491 2834 3397 
z
" id="DejaVuSans-73" transform="scale(0.015625)"/>
       <path d="M 1172 4494 
L 1172 3500 
L 2356 3500 
L 2356 3053 
L 1172 3053 
L 1172 1153 
Q 1172 725 1289 603 
Q 1406 481 1766 481 
L 2356 481 
L 2356 0 
L 1766 0 
Q 1100 0 847 248 
Q 594 497 594 1153 
L 594 3053 
L 172 3053 
L 172 3500 
L 594 3500 
L 594 4494 
L 1172 4494 
z
" id="DejaVuSans-74" transform="scale(0.015625)"/>
       <path d="M 603 3500 
L 1178 3500 
L 1178 0 
L 603 0 
L 603 3500 
z
M 603 4863 
L 1178 4863 
L 1178 4134 
L 603 4134 
L 603 4863 
z
" id="DejaVuSans-69" transform="scale(0.015625)"/>
       <path d="M 3513 2113 
L 3513 0 
L 2938 0 
L 2938 2094 
Q 2938 2591 2744 2837 
Q 2550 3084 2163 3084 
Q 1697 3084 1428 2787 
Q 1159 2491 1159 1978 
L 1159 0 
L 581 0 
L 581 3500 
L 1159 3500 
L 1159 2956 
Q 1366 3272 1645 3428 
Q 1925 3584 2291 3584 
Q 2894 3584 3203 3211 
Q 3513 2838 3513 2113 
z
" id="DejaVuSans-6e" transform="scale(0.015625)"/>
       <path d="M 2906 1791 
Q 2906 2416 2648 2759 
Q 2391 3103 1925 3103 
Q 1463 3103 1205 2759 
Q 947 2416 947 1791 
Q 947 1169 1205 825 
Q 1463 481 1925 481 
Q 2391 481 2648 825 
Q 2906 1169 2906 1791 
z
M 3481 434 
Q 3481 -459 3084 -895 
Q 2688 -1331 1869 -1331 
Q 1566 -1331 1297 -1286 
Q 1028 -1241 775 -1147 
L 775 -588 
Q 1028 -725 1275 -790 
Q 1522 -856 1778 -856 
Q 2344 -856 2625 -561 
Q 2906 -266 2906 331 
L 2906 616 
Q 2728 306 2450 153 
Q 2172 0 1784 0 
Q 1141 0 747 490 
Q 353 981 353 1791 
Q 353 2603 747 3093 
Q 1141 3584 1784 3584 
Q 2172 3584 2450 3431 
Q 2728 3278 2906 2969 
L 2906 3500 
L 3481 3500 
L 3481 434 
z
" id="DejaVuSans-67" transform="scale(0.015625)"/>
       <path id="DejaVuSans-20" transform="scale(0.015625)"/>
       <path d="M 3597 1894 
L 3597 1613 
L 953 1613 
Q 991 1019 1311 708 
Q 1631 397 2203 397 
Q 2534 397 2845 478 
Q 3156 559 3463 722 
L 3463 178 
Q 3153 47 2828 -22 
Q 2503 -91 2169 -91 
Q 1331 -91 842 396 
Q 353 884 353 1716 
Q 353 2575 817 3079 
Q 1281 3584 2069 3584 
Q 2775 3584 3186 3129 
Q 3597 2675 3597 1894 
z
M 3022 2063 
Q 3016 2534 2758 2815 
Q 2500 3097 2075 3097 
Q 1594 3097 1305 2825 
Q 1016 2553 972 2059 
L 3022 2063 
z
" id="DejaVuSans-65" transform="scale(0.015625)"/>
       <path d="M 2631 2963 
Q 2534 3019 2420 3045 
Q 2306 3072 2169 3072 
Q 1681 3072 1420 2755 
Q 1159 2438 1159 1844 
L 1159 0 
L 581 0 
L 581 3500 
L 1159 3500 
L 1159 2956 
Q 1341 3275 1631 3429 
Q 1922 3584 2338 3584 
Q 2397 3584 2469 3576 
Q 2541 3569 2628 3553 
L 2631 2963 
z
" id="DejaVuSans-72" transform="scale(0.015625)"/>
       <path d="M 2194 1759 
Q 1497 1759 1228 1600 
Q 959 1441 959 1056 
Q 959 750 1161 570 
Q 1363 391 1709 391 
Q 2188 391 2477 730 
Q 2766 1069 2766 1631 
L 2766 1759 
L 2194 1759 
z
M 3341 1997 
L 3341 0 
L 2766 0 
L 2766 531 
Q 2569 213 2275 61 
Q 1981 -91 1556 -91 
Q 1019 -91 701 211 
Q 384 513 384 1019 
Q 384 1609 779 1909 
Q 1175 2209 1959 2209 
L 2766 2209 
L 2766 2266 
Q 2766 2663 2505 2880 
Q 2244 3097 1772 3097 
Q 1472 3097 1187 3025 
Q 903 2953 641 2809 
L 641 3341 
Q 956 3463 1253 3523 
Q 1550 3584 1831 3584 
Q 2591 3584 2966 3190 
Q 3341 2797 3341 1997 
z
" id="DejaVuSans-61" transform="scale(0.015625)"/>
      </defs>
      <use xlink:href="#DejaVuSans-42"/>
      <use x="68.603516" xlink:href="#DejaVuSans-6f"/>
      <use x="129.785156" xlink:href="#DejaVuSans-6f"/>
      <use x="190.966797" xlink:href="#DejaVuSans-73"/>
      <use x="243.066406" xlink:href="#DejaVuSans-74"/>
      <use x="282.275391" xlink:href="#DejaVuSans-69"/>
      <use x="310.058594" xlink:href="#DejaVuSans-6e"/>
      <use x="373.4375" xlink:href="#DejaVuSans-67"/>
      <use x="436.914062" xlink:href="#DejaVuSans-20"/>
      <use x="468.701172" xlink:href="#DejaVuSans-69"/>
      <use x="496.484375" xlink:href="#DejaVuSans-74"/>
      <use x="535.693359" xlink:href="#DejaVuSans-65"/>
      <use x="597.216797" xlink:href="#DejaVuSans-72"/>
      <use x="638.330078" xlink:href="#DejaVuSans-61"/>
      <use x="699.609375" xlink:href="#DejaVuSans-74"/>
      <use x="738.818359" xlink:href="#DejaVuSans-69"/>
      <use x="766.601562" xlink:href="#DejaVuSans-6f"/>
      <use x="827.783203" xlink:href="#DejaVuSans-6e"/>
     </g>
    </g>
   </g>
   <g id="matplotlib.axis_2">
    <g id="ytick_1">
     <g id="line2d_10">
      <defs>
       <path d="M 0 0 
L -3.5 0 
" id="m0f2427761c" style="stroke:#000000;stroke-width:0.8;"/>
      </defs>
      <g>
       <use style="stroke:#000000;stroke-width:0.8;" x="57.6" xlink:href="#m0f2427761c" y="280.2519"/>
      </g>
     </g>
     <g id="text_11">
      <!-- 0.4 -->
      <g transform="translate(34.696875 284.051119)scale(0.1 -0.1)">
       <defs>
        <path d="M 684 794 
L 1344 794 
L 1344 0 
L 684 0 
L 684 794 
z
" id="DejaVuSans-2e" transform="scale(0.015625)"/>
       </defs>
       <use xlink:href="#DejaVuSans-30"/>
       <use x="63.623047" xlink:href="#DejaVuSans-2e"/>
       <use x="95.410156" xlink:href="#DejaVuSans-34"/>
      </g>
     </g>
    </g>
    <g id="ytick_2">
     <g id="line2d_11">
      <g>
       <use style="stroke:#000000;stroke-width:0.8;" x="57.6" xlink:href="#m0f2427761c" y="242.47125"/>
      </g>
     </g>
     <g id="text_12">
      <!-- 0.5 -->
      <g transform="translate(34.696875 246.270469)scale(0.1 -0.1)">
       <use xlink:href="#DejaVuSans-30"/>
       <use x="63.623047" xlink:href="#DejaVuSans-2e"/>
       <use x="95.410156" xlink:href="#DejaVuSans-35"/>
      </g>
     </g>
    </g>
    <g id="ytick_3">
     <g id="line2d_12">
      <g>
       <use style="stroke:#000000;stroke-width:0.8;" x="57.6" xlink:href="#m0f2427761c" y="204.6906"/>
      </g>
     </g>
     <g id="text_13">
      <!-- 0.6 -->
      <g transform="translate(34.696875 208.489819)scale(0.1 -0.1)">
       <defs>
        <path d="M 2113 2584 
Q 1688 2584 1439 2293 
Q 1191 2003 1191 1497 
Q 1191 994 1439 701 
Q 1688 409 2113 409 
Q 2538 409 2786 701 
Q 3034 994 3034 1497 
Q 3034 2003 2786 2293 
Q 2538 2584 2113 2584 
z
M 3366 4563 
L 3366 3988 
Q 3128 4100 2886 4159 
Q 2644 4219 2406 4219 
Q 1781 4219 1451 3797 
Q 1122 3375 1075 2522 
Q 1259 2794 1537 2939 
Q 1816 3084 2150 3084 
Q 2853 3084 3261 2657 
Q 3669 2231 3669 1497 
Q 3669 778 3244 343 
Q 2819 -91 2113 -91 
Q 1303 -91 875 529 
Q 447 1150 447 2328 
Q 447 3434 972 4092 
Q 1497 4750 2381 4750 
Q 2619 4750 2861 4703 
Q 3103 4656 3366 4563 
z
" id="DejaVuSans-36" transform="scale(0.015625)"/>
       </defs>
       <use xlink:href="#DejaVuSans-30"/>
       <use x="63.623047" xlink:href="#DejaVuSans-2e"/>
       <use x="95.410156" xlink:href="#DejaVuSans-36"/>
      </g>
     </g>
    </g>
    <g id="ytick_4">
     <g id="line2d_13">
      <g>
       <use style="stroke:#000000;stroke-width:0.8;" x="57.6" xlink:href="#m0f2427761c" y="166.90995"/>
      </g>
     </g>
     <g id="text_14">
      <!-- 0.7 -->
      <g transform="translate(34.696875 170.709169)scale(0.1 -0.1)">
       <defs>
        <path d="M 525 4666 
L 3525 4666 
L 3525 4397 
L 1831 0 
L 1172 0 
L 2766 4134 
L 525 4134 
L 525 4666 
z
" id="DejaVuSans-37" transform="scale(0.015625)"/>
       </defs>
       <use xlink:href="#DejaVuSans-30"/>
       <use x="63.623047" xlink:href="#DejaVuSans-2e"/>
       <use x="95.410156" xlink:href="#DejaVuSans-37"/>
      </g>
     </g>
    </g>
    <g id="ytick_5">
     <g id="line2d_14">
      <g>
       <use style="stroke:#000000;stroke-width:0.8;" x="57.6" xlink:href="#m0f2427761c" y="129.1293"/>
      </g>
     </g>
     <g id="text_15">
      <!-- 0.8 -->
      <g transform="translate(34.696875 132.928519)scale(0.1 -0.1)">
       <defs>
        <path d="M 2034 2216 
Q 1584 2216 1326 1975 
Q 1069 1734 1069 1313 
Q 1069 891 1326 650 
Q 1584 409 2034 409 
Q 2484 409 2743 651 
Q 3003 894 3003 1313 
Q 3003 1734 2745 1975 
Q 2488 2216 2034 2216 
z
M 1403 2484 
Q 997 2584 770 2862 
Q 544 3141 544 3541 
Q 544 4100 942 4425 
Q 1341 4750 2034 4750 
Q 2731 4750 3128 4425 
Q 3525 4100 3525 3541 
Q 3525 3141 3298 2862 
Q 3072 2584 2669 2484 
Q 3125 2378 3379 2068 
Q 3634 1759 3634 1313 
Q 3634 634 3220 271 
Q 2806 -91 2034 -91 
Q 1263 -91 848 271 
Q 434 634 434 1313 
Q 434 1759 690 2068 
Q 947 2378 1403 2484 
z
M 1172 3481 
Q 1172 3119 1398 2916 
Q 1625 2713 2034 2713 
Q 2441 2713 2670 2916 
Q 2900 3119 2900 3481 
Q 2900 3844 2670 4047 
Q 2441 4250 2034 4250 
Q 1625 4250 1398 4047 
Q 1172 3844 1172 3481 
z
" id="DejaVuSans-38" transform="scale(0.015625)"/>
       </defs>
       <use xlink:href="#DejaVuSans-30"/>
       <use x="63.623047" xlink:href="#DejaVuSans-2e"/>
       <use x="95.410156" xlink:href="#DejaVuSans-38"/>
      </g>
     </g>
    </g>
    <g id="ytick_6">
     <g id="line2d_15">
      <g>
       <use style="stroke:#000000;stroke-width:0.8;" x="57.6" xlink:href="#m0f2427761c" y="91.34865"/>
      </g>
     </g>
     <g id="text_16">
      <!-- 0.9 -->
      <g transform="translate(34.696875 95.147869)scale(0.1 -0.1)">
       <defs>
        <path d="M 703 97 
L 703 672 
Q 941 559 1184 500 
Q 1428 441 1663 441 
Q 2288 441 2617 861 
Q 2947 1281 2994 2138 
Q 2813 1869 2534 1725 
Q 2256 1581 1919 1581 
Q 1219 1581 811 2004 
Q 403 2428 403 3163 
Q 403 3881 828 4315 
Q 1253 4750 1959 4750 
Q 2769 4750 3195 4129 
Q 3622 3509 3622 2328 
Q 3622 1225 3098 567 
Q 2575 -91 1691 -91 
Q 1453 -91 1209 -44 
Q 966 3 703 97 
z
M 1959 2075 
Q 2384 2075 2632 2365 
Q 2881 2656 2881 3163 
Q 2881 3666 2632 3958 
Q 2384 4250 1959 4250 
Q 1534 4250 1286 3958 
Q 1038 3666 1038 3163 
Q 1038 2656 1286 2365 
Q 1534 2075 1959 2075 
z
" id="DejaVuSans-39" transform="scale(0.015625)"/>
       </defs>
       <use xlink:href="#DejaVuSans-30"/>
       <use x="63.623047" xlink:href="#DejaVuSans-2e"/>
       <use x="95.410156" xlink:href="#DejaVuSans-39"/>
      </g>
     </g>
    </g>
    <g id="ytick_7">
     <g id="line2d_16">
      <g>
       <use style="stroke:#000000;stroke-width:0.8;" x="57.6" xlink:href="#m0f2427761c" y="53.568"/>
      </g>
     </g>
     <g id="text_17">
      <!-- 1.0 -->
      <g transform="translate(34.696875 57.367219)scale(0.1 -0.1)">
       <use xlink:href="#DejaVuSans-31"/>
       <use x="63.623047" xlink:href="#DejaVuSans-2e"/>
       <use x="95.410156" xlink:href="#DejaVuSans-30"/>
      </g>
     </g>
    </g>
    <g id="text_18">
     <!-- Correlation -->
     <g transform="translate(28.617187 202.09675)rotate(-90)scale(0.1 -0.1)">
      <defs>
       <path d="M 4122 4306 
L 4122 3641 
Q 3803 3938 3442 4084 
Q 3081 4231 2675 4231 
Q 1875 4231 1450 3742 
Q 1025 3253 1025 2328 
Q 1025 1406 1450 917 
Q 1875 428 2675 428 
Q 3081 428 3442 575 
Q 3803 722 4122 1019 
L 4122 359 
Q 3791 134 3420 21 
Q 3050 -91 2638 -91 
Q 1578 -91 968 557 
Q 359 1206 359 2328 
Q 359 3453 968 4101 
Q 1578 4750 2638 4750 
Q 3056 4750 3426 4639 
Q 3797 4528 4122 4306 
z
" id="DejaVuSans-43" transform="scale(0.015625)"/>
       <path d="M 603 4863 
L 1178 4863 
L 1178 0 
L 603 0 
L 603 4863 
z
" id="DejaVuSans-6c" transform="scale(0.015625)"/>
      </defs>
      <use xlink:href="#DejaVuSans-43"/>
      <use x="69.824219" xlink:href="#DejaVuSans-6f"/>
      <use x="131.005859" xlink:href="#DejaVuSans-72"/>
      <use x="170.369141" xlink:href="#DejaVuSans-72"/>
      <use x="209.232422" xlink:href="#DejaVuSans-65"/>
      <use x="270.755859" xlink:href="#DejaVuSans-6c"/>
      <use x="298.539062" xlink:href="#DejaVuSans-61"/>
      <use x="359.818359" xlink:href="#DejaVuSans-74"/>
      <use x="399.027344" xlink:href="#DejaVuSans-69"/>
      <use x="426.810547" xlink:href="#DejaVuSans-6f"/>
      <use x="487.992188" xlink:href="#DejaVuSans-6e"/>
     </g>
    </g>
   </g>
   <g id="line2d_17">
    <path clip-path="url(#p2bf7e8d390)" d="M 73.832727 53.568 
L 74.648442 94.508778 
L 75.464157 53.568 
L 76.279872 99.109604 
L 77.095587 53.568 
L 77.911302 136.955376 
L 78.727017 53.568 
L 79.542732 53.568 
L 80.358447 116.213963 
L 81.174162 207.763032 
L 81.989877 200.972919 
L 82.805592 228.878128 
L 83.621307 222.488476 
L 84.437021 254.828607 
L 86.068451 254.828607 
L 86.884166 295.488 
L 87.699881 251.857554 
L 88.515596 252.486822 
L 89.331311 255.19327 
L 90.147026 270.323228 
L 90.962741 199.15283 
L 91.778456 196.42031 
L 92.594171 188.780578 
L 93.409886 209.565107 
L 94.225601 125.210698 
L 95.041316 133.11399 
L 95.857031 121.499549 
L 96.672746 132.014027 
L 97.48846 132.392089 
L 98.304175 168.434549 
L 99.11989 106.741218 
L 99.935605 183.894743 
L 100.75132 132.644448 
L 101.567035 139.372624 
L 102.38275 142.477 
L 103.198465 127.032784 
L 104.01418 118.918749 
L 104.829895 202.023431 
L 105.64561 179.594537 
L 106.461325 140.105003 
L 107.27704 138.386653 
L 108.092755 175.328806 
L 108.90847 167.09747 
L 109.724185 201.296391 
L 110.539899 194.324807 
L 111.355614 191.817645 
L 112.171329 183.854145 
L 112.987044 157.159517 
L 113.802759 119.634756 
L 114.618474 215.637961 
L 115.434189 186.011013 
L 116.249904 172.798776 
L 117.065619 177.152028 
L 117.881334 123.529871 
L 118.697049 179.880463 
L 119.512764 153.511461 
L 120.328479 145.211726 
L 121.144194 149.928251 
L 121.959909 125.740529 
L 122.775624 151.919276 
L 123.591339 145.779034 
L 124.407053 154.926396 
L 125.222768 129.852517 
L 126.038483 124.709079 
L 126.854198 107.925874 
L 127.669913 134.085198 
L 128.485628 132.680803 
L 129.301343 158.342201 
L 130.117058 129.314692 
L 130.932773 182.76679 
L 131.748488 155.912399 
L 132.564203 148.790871 
L 133.379918 160.343405 
L 134.195633 143.38086 
L 135.011348 115.008023 
L 135.827063 165.11876 
L 136.642778 193.688342 
L 137.458492 191.170963 
L 138.274207 151.085031 
L 139.089922 128.849316 
L 139.905637 122.875882 
L 140.721352 166.022093 
L 141.537067 143.699733 
L 142.352782 156.6131 
L 143.168497 146.196302 
L 143.984212 164.226905 
L 144.799927 148.051763 
L 145.615642 135.076257 
L 146.431357 130.370602 
L 147.247072 147.625789 
L 148.062787 130.053684 
L 148.878502 126.492999 
L 149.694217 124.32319 
L 150.509931 123.418467 
L 151.325646 140.714943 
L 152.141361 173.86615 
L 152.957076 131.340564 
L 153.772791 124.967484 
L 154.588506 145.421152 
L 155.404221 132.000511 
L 156.219936 125.572607 
L 157.035651 113.446835 
L 157.851366 157.212808 
L 158.667081 142.68584 
L 159.482796 121.192865 
L 160.298511 106.94719 
L 161.114226 151.884436 
L 161.929941 136.151821 
L 162.745656 124.837614 
L 163.56137 111.152606 
L 164.377085 108.976315 
L 165.1928 120.953698 
L 166.008515 110.877246 
L 166.82423 105.080983 
L 167.639945 102.456641 
L 168.45566 130.99856 
L 169.271375 106.419364 
L 170.08709 98.778515 
L 170.902805 101.553808 
L 171.71852 98.395569 
L 173.34995 90.92861 
L 174.165665 90.92861 
L 174.98138 95.835556 
L 175.797095 120.067079 
L 176.61281 91.281224 
L 177.428524 90.521668 
L 178.244239 94.516801 
L 179.059954 92.817649 
L 179.875669 109.26763 
L 180.691384 118.287673 
L 181.507099 162.769351 
L 182.322814 95.292796 
L 183.138529 130.090594 
L 183.954244 152.418564 
L 184.769959 150.929498 
L 185.585674 132.212145 
L 186.401389 165.703593 
L 187.217104 93.237849 
L 188.032819 86.090818 
L 188.848534 87.911237 
L 189.664249 85.815078 
L 190.479963 112.126914 
L 191.295678 104.09103 
L 192.111393 100.373176 
L 192.927108 94.250789 
L 193.742823 123.204837 
L 194.558538 117.656358 
L 195.374253 102.038817 
L 196.189968 98.92485 
L 197.005683 112.504491 
L 197.821398 108.652595 
L 198.637113 94.02361 
L 199.452828 117.240017 
L 200.268543 153.519856 
L 201.084258 108.051805 
L 201.899973 103.83175 
L 202.715688 129.966112 
L 203.531402 120.102376 
L 204.347117 105.99051 
L 205.162832 107.101926 
L 205.978547 114.184885 
L 206.794262 115.310131 
L 207.609977 105.557784 
L 208.425692 104.435097 
L 209.241407 122.349192 
L 210.057122 118.168019 
L 210.872837 108.911693 
L 211.688552 106.175809 
L 212.504267 102.234434 
L 213.319982 102.234434 
L 214.135697 114.784021 
L 214.951412 109.505825 
L 215.767127 100.87632 
L 216.582841 97.848659 
L 217.398556 112.475628 
L 218.214271 111.742656 
L 219.029986 111.742656 
L 219.845701 108.496417 
L 220.661416 115.567044 
L 221.477131 112.053879 
L 222.292846 104.310766 
L 223.108561 103.069842 
L 223.924276 113.366503 
L 224.739991 106.710646 
L 225.555706 97.095658 
L 226.371421 96.064163 
L 227.187136 99.551146 
L 228.002851 110.581159 
L 228.818566 135.743099 
L 229.63428 101.252761 
L 230.449995 144.810428 
L 231.26571 148.223035 
L 232.081425 158.757061 
L 232.89714 114.334791 
L 233.712855 87.93168 
L 234.52857 113.300259 
L 235.344285 133.265792 
L 236.16 90.409442 
L 236.975715 140.118214 
L 237.79143 134.339254 
L 238.607145 164.64671 
L 239.42286 121.532179 
L 240.238575 143.570752 
L 241.05429 127.12011 
L 241.870005 146.218805 
L 242.68572 112.925347 
L 243.501434 108.101894 
L 244.317149 104.512725 
L 245.132864 120.834537 
L 245.948579 105.20929 
L 246.764294 129.060088 
L 247.580009 115.084705 
L 248.395724 111.443388 
L 249.211439 101.97076 
L 250.027154 122.84091 
L 250.842869 118.514248 
L 251.658584 131.290763 
L 252.474299 115.509674 
L 253.290014 102.547688 
L 254.105729 126.481309 
L 254.921444 143.704151 
L 255.737159 143.800348 
L 256.552873 115.298032 
L 257.368588 148.280676 
L 258.184303 89.102244 
L 259.000018 90.556662 
L 259.815733 98.803585 
L 260.631448 96.420434 
L 261.447163 98.00026 
L 262.262878 92.255466 
L 263.078593 96.586932 
L 264.710023 93.55283 
L 265.525738 93.55283 
L 266.341453 89.819603 
L 267.157168 88.512478 
L 267.972883 95.030502 
L 268.788598 89.322562 
L 269.604312 85.547886 
L 270.420027 84.236086 
L 272.051457 84.628072 
L 272.867172 84.628072 
L 273.682887 83.28717 
L 275.314317 86.487177 
L 276.130032 96.007954 
L 276.945747 94.812756 
L 277.761462 86.838821 
L 278.577177 86.838821 
L 279.392892 103.885141 
L 280.208607 100.780109 
L 281.024322 92.489093 
L 281.840037 88.224779 
L 282.655751 99.836505 
L 283.471466 95.382187 
L 284.287181 102.808644 
L 285.102896 102.808644 
L 285.918611 105.711054 
L 286.734326 102.808644 
L 287.550041 112.989265 
L 288.365756 108.525655 
L 289.181471 139.383703 
L 289.997186 85.649947 
L 290.812901 85.649947 
L 291.628616 81.379681 
L 292.444331 81.379681 
L 293.260046 84.331803 
L 294.075761 82.980076 
L 294.891476 84.639651 
L 295.70719 83.235376 
L 296.522905 86.633583 
L 297.33862 82.032065 
L 298.154335 80.667885 
L 298.97005 124.852682 
L 299.785765 137.948089 
L 300.60148 102.865289 
L 301.417195 111.676243 
L 302.23291 137.767066 
L 303.048625 99.330677 
L 303.86434 97.760545 
L 304.680055 105.68311 
L 305.49577 105.68311 
L 306.311485 120.938864 
L 307.1272 107.686701 
L 307.942915 124.256608 
L 308.75863 89.483351 
L 309.574344 84.903516 
L 310.390059 77.912085 
L 311.205774 77.912085 
L 312.021489 85.163648 
L 312.837204 83.742235 
L 313.652919 95.127362 
L 314.468634 93.893863 
L 315.284349 88.54634 
L 316.100064 87.093233 
L 316.915779 90.15907 
L 317.731494 85.491593 
L 318.547209 84.108288 
L 319.362924 85.716238 
L 320.178639 88.792584 
L 320.994354 87.329891 
L 321.810069 96.59272 
L 322.625783 93.50511 
L 323.441498 82.846053 
L 324.257213 84.460476 
L 325.072928 84.766327 
L 325.888643 84.907097 
L 326.704358 94.37204 
L 327.520073 83.385206 
L 328.335788 80.789752 
L 329.151503 79.243204 
L 329.967218 74.519835 
L 330.782933 74.519835 
L 331.598648 72.79344 
L 332.414363 72.79344 
L 333.230078 88.917849 
L 334.045793 136.418055 
L 334.861508 150.672084 
L 335.677222 90.356574 
L 336.492937 90.576747 
L 337.308652 90.576747 
L 338.124367 87.199971 
L 338.940082 90.193668 
L 339.755797 90.193668 
L 340.571512 87.199971 
L 341.387227 122.308914 
L 342.202942 134.27421 
L 343.018657 91.17977 
L 343.834372 92.798415 
L 344.650087 106.114552 
L 345.465802 101.027296 
L 346.281517 84.850122 
L 347.097232 98.675148 
L 347.912947 116.501881 
L 348.728661 85.416487 
L 349.544376 124.27061 
L 350.360091 128.629828 
L 351.175806 101.918171 
L 351.991521 97.452159 
L 352.807236 100.240395 
L 353.622951 97.202421 
L 354.438666 80.307127 
L 355.254381 78.698506 
L 356.070096 92.816521 
L 356.885811 89.515786 
L 357.701526 80.237521 
L 358.517241 102.386824 
L 359.332956 116.004367 
L 360.148671 71.972092 
L 360.964386 104.09845 
L 361.780101 109.941469 
L 362.595815 80.772865 
L 363.41153 78.896457 
L 364.227245 73.924631 
L 365.04296 73.924631 
L 365.858675 70.521642 
L 366.67439 70.521642 
L 367.490105 79.155857 
L 368.30582 79.155857 
L 369.121535 90.576747 
L 369.93725 90.576747 
L 370.752965 92.069637 
L 371.56868 99.650825 
L 372.384395 125.698753 
L 373.20011 89.840397 
L 374.015825 86.191284 
L 374.83154 80.874931 
L 375.647254 80.874931 
L 376.462969 95.190298 
L 378.094399 92.12366 
L 378.910114 95.119937 
L 379.725829 121.589308 
L 380.541544 98.652159 
L 381.357259 91.470675 
L 382.172974 105.130302 
L 382.988689 96.628844 
L 383.804404 85.845806 
L 384.620119 89.263397 
L 385.435834 104.891151 
L 386.251549 94.168222 
L 387.067264 105.521959 
L 387.882979 70.318016 
L 388.698693 82.447639 
L 389.514408 98.318834 
L 390.330123 81.996422 
L 391.145838 81.996422 
L 391.961553 75.411647 
L 392.777268 73.538735 
L 393.592983 85.337561 
L 394.408698 83.590754 
L 395.224413 78.74643 
L 396.855843 75.29347 
L 397.671558 77.156809 
L 398.487273 75.480809 
L 398.487273 75.480809 
" style="fill:none;stroke:#1f77b4;stroke-linecap:square;stroke-width:1.5;"/>
   </g>
   <g id="patch_3">
    <path d="M 57.6 307.584 
L 57.6 41.472 
" style="fill:none;stroke:#000000;stroke-linecap:square;stroke-linejoin:miter;stroke-width:0.8;"/>
   </g>
   <g id="patch_4">
    <path d="M 414.72 307.584 
L 414.72 41.472 
" style="fill:none;stroke:#000000;stroke-linecap:square;stroke-linejoin:miter;stroke-width:0.8;"/>
   </g>
   <g id="patch_5">
    <path d="M 57.6 307.584 
L 414.72 307.584 
" style="fill:none;stroke:#000000;stroke-linecap:square;stroke-linejoin:miter;stroke-width:0.8;"/>
   </g>
   <g id="patch_6">
    <path d="M 57.6 41.472 
L 414.72 41.472 
" style="fill:none;stroke:#000000;stroke-linecap:square;stroke-linejoin:miter;stroke-width:0.8;"/>
   </g>
   <g id="text_19">
    <!-- Correlation of residuals from consecutive iterations -->
    <g transform="translate(82.476562 35.472)scale(0.12 -0.12)">
     <defs>
      <path d="M 2375 4863 
L 2375 4384 
L 1825 4384 
Q 1516 4384 1395 4259 
Q 1275 4134 1275 3809 
L 1275 3500 
L 2222 3500 
L 2222 3053 
L 1275 3053 
L 1275 0 
L 697 0 
L 697 3053 
L 147 3053 
L 147 3500 
L 697 3500 
L 697 3744 
Q 697 4328 969 4595 
Q 1241 4863 1831 4863 
L 2375 4863 
z
" id="DejaVuSans-66" transform="scale(0.015625)"/>
      <path d="M 2906 2969 
L 2906 4863 
L 3481 4863 
L 3481 0 
L 2906 0 
L 2906 525 
Q 2725 213 2448 61 
Q 2172 -91 1784 -91 
Q 1150 -91 751 415 
Q 353 922 353 1747 
Q 353 2572 751 3078 
Q 1150 3584 1784 3584 
Q 2172 3584 2448 3432 
Q 2725 3281 2906 2969 
z
M 947 1747 
Q 947 1113 1208 752 
Q 1469 391 1925 391 
Q 2381 391 2643 752 
Q 2906 1113 2906 1747 
Q 2906 2381 2643 2742 
Q 2381 3103 1925 3103 
Q 1469 3103 1208 2742 
Q 947 2381 947 1747 
z
" id="DejaVuSans-64" transform="scale(0.015625)"/>
      <path d="M 544 1381 
L 544 3500 
L 1119 3500 
L 1119 1403 
Q 1119 906 1312 657 
Q 1506 409 1894 409 
Q 2359 409 2629 706 
Q 2900 1003 2900 1516 
L 2900 3500 
L 3475 3500 
L 3475 0 
L 2900 0 
L 2900 538 
Q 2691 219 2414 64 
Q 2138 -91 1772 -91 
Q 1169 -91 856 284 
Q 544 659 544 1381 
z
M 1991 3584 
L 1991 3584 
z
" id="DejaVuSans-75" transform="scale(0.015625)"/>
      <path d="M 3328 2828 
Q 3544 3216 3844 3400 
Q 4144 3584 4550 3584 
Q 5097 3584 5394 3201 
Q 5691 2819 5691 2113 
L 5691 0 
L 5113 0 
L 5113 2094 
Q 5113 2597 4934 2840 
Q 4756 3084 4391 3084 
Q 3944 3084 3684 2787 
Q 3425 2491 3425 1978 
L 3425 0 
L 2847 0 
L 2847 2094 
Q 2847 2600 2669 2842 
Q 2491 3084 2119 3084 
Q 1678 3084 1418 2786 
Q 1159 2488 1159 1978 
L 1159 0 
L 581 0 
L 581 3500 
L 1159 3500 
L 1159 2956 
Q 1356 3278 1631 3431 
Q 1906 3584 2284 3584 
Q 2666 3584 2933 3390 
Q 3200 3197 3328 2828 
z
" id="DejaVuSans-6d" transform="scale(0.015625)"/>
      <path d="M 3122 3366 
L 3122 2828 
Q 2878 2963 2633 3030 
Q 2388 3097 2138 3097 
Q 1578 3097 1268 2742 
Q 959 2388 959 1747 
Q 959 1106 1268 751 
Q 1578 397 2138 397 
Q 2388 397 2633 464 
Q 2878 531 3122 666 
L 3122 134 
Q 2881 22 2623 -34 
Q 2366 -91 2075 -91 
Q 1284 -91 818 406 
Q 353 903 353 1747 
Q 353 2603 823 3093 
Q 1294 3584 2113 3584 
Q 2378 3584 2631 3529 
Q 2884 3475 3122 3366 
z
" id="DejaVuSans-63" transform="scale(0.015625)"/>
      <path d="M 191 3500 
L 800 3500 
L 1894 563 
L 2988 3500 
L 3597 3500 
L 2284 0 
L 1503 0 
L 191 3500 
z
" id="DejaVuSans-76" transform="scale(0.015625)"/>
     </defs>
     <use xlink:href="#DejaVuSans-43"/>
     <use x="69.824219" xlink:href="#DejaVuSans-6f"/>
     <use x="131.005859" xlink:href="#DejaVuSans-72"/>
     <use x="170.369141" xlink:href="#DejaVuSans-72"/>
     <use x="209.232422" xlink:href="#DejaVuSans-65"/>
     <use x="270.755859" xlink:href="#DejaVuSans-6c"/>
     <use x="298.539062" xlink:href="#DejaVuSans-61"/>
     <use x="359.818359" xlink:href="#DejaVuSans-74"/>
     <use x="399.027344" xlink:href="#DejaVuSans-69"/>
     <use x="426.810547" xlink:href="#DejaVuSans-6f"/>
     <use x="487.992188" xlink:href="#DejaVuSans-6e"/>
     <use x="551.371094" xlink:href="#DejaVuSans-20"/>
     <use x="583.158203" xlink:href="#DejaVuSans-6f"/>
     <use x="644.339844" xlink:href="#DejaVuSans-66"/>
     <use x="679.544922" xlink:href="#DejaVuSans-20"/>
     <use x="711.332031" xlink:href="#DejaVuSans-72"/>
     <use x="750.195312" xlink:href="#DejaVuSans-65"/>
     <use x="811.71875" xlink:href="#DejaVuSans-73"/>
     <use x="863.818359" xlink:href="#DejaVuSans-69"/>
     <use x="891.601562" xlink:href="#DejaVuSans-64"/>
     <use x="955.078125" xlink:href="#DejaVuSans-75"/>
     <use x="1018.457031" xlink:href="#DejaVuSans-61"/>
     <use x="1079.736328" xlink:href="#DejaVuSans-6c"/>
     <use x="1107.519531" xlink:href="#DejaVuSans-73"/>
     <use x="1159.619141" xlink:href="#DejaVuSans-20"/>
     <use x="1191.40625" xlink:href="#DejaVuSans-66"/>
     <use x="1226.611328" xlink:href="#DejaVuSans-72"/>
     <use x="1265.474609" xlink:href="#DejaVuSans-6f"/>
     <use x="1326.65625" xlink:href="#DejaVuSans-6d"/>
     <use x="1424.068359" xlink:href="#DejaVuSans-20"/>
     <use x="1455.855469" xlink:href="#DejaVuSans-63"/>
     <use x="1510.835938" xlink:href="#DejaVuSans-6f"/>
     <use x="1572.017578" xlink:href="#DejaVuSans-6e"/>
     <use x="1635.396484" xlink:href="#DejaVuSans-73"/>
     <use x="1687.496094" xlink:href="#DejaVuSans-65"/>
     <use x="1749.019531" xlink:href="#DejaVuSans-63"/>
     <use x="1804" xlink:href="#DejaVuSans-75"/>
     <use x="1867.378906" xlink:href="#DejaVuSans-74"/>
     <use x="1906.587891" xlink:href="#DejaVuSans-69"/>
     <use x="1934.371094" xlink:href="#DejaVuSans-76"/>
     <use x="1993.550781" xlink:href="#DejaVuSans-65"/>
     <use x="2055.074219" xlink:href="#DejaVuSans-20"/>
     <use x="2086.861328" xlink:href="#DejaVuSans-69"/>
     <use x="2114.644531" xlink:href="#DejaVuSans-74"/>
     <use x="2153.853516" xlink:href="#DejaVuSans-65"/>
     <use x="2215.376953" xlink:href="#DejaVuSans-72"/>
     <use x="2256.490234" xlink:href="#DejaVuSans-61"/>
     <use x="2317.769531" xlink:href="#DejaVuSans-74"/>
     <use x="2356.978516" xlink:href="#DejaVuSans-69"/>
     <use x="2384.761719" xlink:href="#DejaVuSans-6f"/>
     <use x="2445.943359" xlink:href="#DejaVuSans-6e"/>
     <use x="2509.322266" xlink:href="#DejaVuSans-73"/>
    </g>
   </g>
   <g id="legend_1">
    <g id="patch_7">
     <path d="M 336.268438 64.150125 
L 407.72 64.150125 
Q 409.72 64.150125 409.72 62.150125 
L 409.72 48.472 
Q 409.72 46.472 407.72 46.472 
L 336.268438 46.472 
Q 334.268438 46.472 334.268438 48.472 
L 334.268438 62.150125 
Q 334.268438 64.150125 336.268438 64.150125 
z
" style="fill:#ffffff;opacity:0.8;stroke:#cccccc;stroke-linejoin:miter;"/>
    </g>
    <g id="line2d_18">
     <path d="M 338.268438 54.570438 
L 358.268438 54.570438 
" style="fill:none;stroke:#1f77b4;stroke-linecap:square;stroke-width:1.5;"/>
    </g>
    <g id="line2d_19"/>
    <g id="text_20">
     <!-- Training -->
     <g transform="translate(366.268438 58.070438)scale(0.1 -0.1)">
      <defs>
       <path d="M -19 4666 
L 3928 4666 
L 3928 4134 
L 2272 4134 
L 2272 0 
L 1638 0 
L 1638 4134 
L -19 4134 
L -19 4666 
z
" id="DejaVuSans-54" transform="scale(0.015625)"/>
      </defs>
      <use xlink:href="#DejaVuSans-54"/>
      <use x="46.333984" xlink:href="#DejaVuSans-72"/>
      <use x="87.447266" xlink:href="#DejaVuSans-61"/>
      <use x="148.726562" xlink:href="#DejaVuSans-69"/>
      <use x="176.509766" xlink:href="#DejaVuSans-6e"/>
      <use x="239.888672" xlink:href="#DejaVuSans-69"/>
      <use x="267.671875" xlink:href="#DejaVuSans-6e"/>
      <use x="331.050781" xlink:href="#DejaVuSans-67"/>
     </g>
    </g>
   </g>
  </g>
 </g>
 <defs>
  <clipPath id="p2bf7e8d390">
   <rect height="266.112" width="357.12" x="57.6" y="41.472"/>
  </clipPath>
 </defs>
</svg>
