<?xml version="1.0" encoding="utf-8" standalone="no"?>
<!DOCTYPE svg PUBLIC "-//W3C//DTD SVG 1.1//EN"
  "http://www.w3.org/Graphics/SVG/1.1/DTD/svg11.dtd">
<svg height="345.6pt" version="1.1" viewBox="0 0 460.8 345.6" width="460.8pt" xmlns="http://www.w3.org/2000/svg" xmlns:xlink="http://www.w3.org/1999/xlink">
 <metadata>
  <rdf:RDF xmlns:cc="http://creativecommons.org/ns#" xmlns:dc="http://purl.org/dc/elements/1.1/" xmlns:rdf="http://www.w3.org/1999/02/22-rdf-syntax-ns#">
   <cc:Work>
    <dc:type rdf:resource="http://purl.org/dc/dcmitype/StillImage"/>
    <dc:date>2021-11-08T10:40:40.301842</dc:date>
    <dc:format>image/svg+xml</dc:format>
    <dc:creator>
     <cc:Agent>
      <dc:title>Matplotlib v3.4.3, https://matplotlib.org/</dc:title>
     </cc:Agent>
    </dc:creator>
   </cc:Work>
  </rdf:RDF>
 </metadata>
 <defs>
  <style type="text/css">*{stroke-linecap:butt;stroke-linejoin:round;}</style>
 </defs>
 <g id="figure_1">
  <g id="patch_1">
   <path d="M 0 345.6 
L 460.8 345.6 
L 460.8 0 
L 0 0 
z
" style="fill:#ffffff;"/>
  </g>
  <g id="axes_1">
   <g id="patch_2">
    <path d="M 47.72 303.64 
L 450 303.64 
L 450 26.88 
L 47.72 26.88 
z
" style="fill:#ffffff;"/>
   </g>
   <g id="matplotlib.axis_1">
    <g id="xtick_1">
     <g id="line2d_1">
      <defs>
       <path d="M 0 0 
L 0 3.5 
" id="m9e8c85c185" style="stroke:#000000;stroke-width:0.8;"/>
      </defs>
      <g>
       <use style="stroke:#000000;stroke-width:0.8;" x="66.005455" xlink:href="#m9e8c85c185" y="303.64"/>
      </g>
     </g>
     <g id="text_1">
      <!-- 0 -->
      <g transform="translate(62.824205 318.238437)scale(0.1 -0.1)">
       <defs>
        <path d="M 2034 4250 
Q 1547 4250 1301 3770 
Q 1056 3291 1056 2328 
Q 1056 1369 1301 889 
Q 1547 409 2034 409 
Q 2525 409 2770 889 
Q 3016 1369 3016 2328 
Q 3016 3291 2770 3770 
Q 2525 4250 2034 4250 
z
M 2034 4750 
Q 2819 4750 3233 4129 
Q 3647 3509 3647 2328 
Q 3647 1150 3233 529 
Q 2819 -91 2034 -91 
Q 1250 -91 836 529 
Q 422 1150 422 2328 
Q 422 3509 836 4129 
Q 1250 4750 2034 4750 
z
" id="DejaVuSans-30" transform="scale(0.015625)"/>
       </defs>
       <use xlink:href="#DejaVuSans-30"/>
      </g>
     </g>
    </g>
    <g id="xtick_2">
     <g id="line2d_2">
      <g>
       <use style="stroke:#000000;stroke-width:0.8;" x="111.833661" xlink:href="#m9e8c85c185" y="303.64"/>
      </g>
     </g>
     <g id="text_2">
      <!-- 50 -->
      <g transform="translate(105.471161 318.238437)scale(0.1 -0.1)">
       <defs>
        <path d="M 691 4666 
L 3169 4666 
L 3169 4134 
L 1269 4134 
L 1269 2991 
Q 1406 3038 1543 3061 
Q 1681 3084 1819 3084 
Q 2600 3084 3056 2656 
Q 3513 2228 3513 1497 
Q 3513 744 3044 326 
Q 2575 -91 1722 -91 
Q 1428 -91 1123 -41 
Q 819 9 494 109 
L 494 744 
Q 775 591 1075 516 
Q 1375 441 1709 441 
Q 2250 441 2565 725 
Q 2881 1009 2881 1497 
Q 2881 1984 2565 2268 
Q 2250 2553 1709 2553 
Q 1456 2553 1204 2497 
Q 953 2441 691 2322 
L 691 4666 
z
" id="DejaVuSans-35" transform="scale(0.015625)"/>
       </defs>
       <use xlink:href="#DejaVuSans-35"/>
       <use x="63.623047" xlink:href="#DejaVuSans-30"/>
      </g>
     </g>
    </g>
    <g id="xtick_3">
     <g id="line2d_3">
      <g>
       <use style="stroke:#000000;stroke-width:0.8;" x="157.661868" xlink:href="#m9e8c85c185" y="303.64"/>
      </g>
     </g>
     <g id="text_3">
      <!-- 100 -->
      <g transform="translate(148.118118 318.238437)scale(0.1 -0.1)">
       <defs>
        <path d="M 794 531 
L 1825 531 
L 1825 4091 
L 703 3866 
L 703 4441 
L 1819 4666 
L 2450 4666 
L 2450 531 
L 3481 531 
L 3481 0 
L 794 0 
L 794 531 
z
" id="DejaVuSans-31" transform="scale(0.015625)"/>
       </defs>
       <use xlink:href="#DejaVuSans-31"/>
       <use x="63.623047" xlink:href="#DejaVuSans-30"/>
       <use x="127.246094" xlink:href="#DejaVuSans-30"/>
      </g>
     </g>
    </g>
    <g id="xtick_4">
     <g id="line2d_4">
      <g>
       <use style="stroke:#000000;stroke-width:0.8;" x="203.490075" xlink:href="#m9e8c85c185" y="303.64"/>
      </g>
     </g>
     <g id="text_4">
      <!-- 150 -->
      <g transform="translate(193.946325 318.238437)scale(0.1 -0.1)">
       <use xlink:href="#DejaVuSans-31"/>
       <use x="63.623047" xlink:href="#DejaVuSans-35"/>
       <use x="127.246094" xlink:href="#DejaVuSans-30"/>
      </g>
     </g>
    </g>
    <g id="xtick_5">
     <g id="line2d_5">
      <g>
       <use style="stroke:#000000;stroke-width:0.8;" x="249.318282" xlink:href="#m9e8c85c185" y="303.64"/>
      </g>
     </g>
     <g id="text_5">
      <!-- 200 -->
      <g transform="translate(239.774532 318.238437)scale(0.1 -0.1)">
       <defs>
        <path d="M 1228 531 
L 3431 531 
L 3431 0 
L 469 0 
L 469 531 
Q 828 903 1448 1529 
Q 2069 2156 2228 2338 
Q 2531 2678 2651 2914 
Q 2772 3150 2772 3378 
Q 2772 3750 2511 3984 
Q 2250 4219 1831 4219 
Q 1534 4219 1204 4116 
Q 875 4013 500 3803 
L 500 4441 
Q 881 4594 1212 4672 
Q 1544 4750 1819 4750 
Q 2544 4750 2975 4387 
Q 3406 4025 3406 3419 
Q 3406 3131 3298 2873 
Q 3191 2616 2906 2266 
Q 2828 2175 2409 1742 
Q 1991 1309 1228 531 
z
" id="DejaVuSans-32" transform="scale(0.015625)"/>
       </defs>
       <use xlink:href="#DejaVuSans-32"/>
       <use x="63.623047" xlink:href="#DejaVuSans-30"/>
       <use x="127.246094" xlink:href="#DejaVuSans-30"/>
      </g>
     </g>
    </g>
    <g id="xtick_6">
     <g id="line2d_6">
      <g>
       <use style="stroke:#000000;stroke-width:0.8;" x="295.146489" xlink:href="#m9e8c85c185" y="303.64"/>
      </g>
     </g>
     <g id="text_6">
      <!-- 250 -->
      <g transform="translate(285.602739 318.238437)scale(0.1 -0.1)">
       <use xlink:href="#DejaVuSans-32"/>
       <use x="63.623047" xlink:href="#DejaVuSans-35"/>
       <use x="127.246094" xlink:href="#DejaVuSans-30"/>
      </g>
     </g>
    </g>
    <g id="xtick_7">
     <g id="line2d_7">
      <g>
       <use style="stroke:#000000;stroke-width:0.8;" x="340.974696" xlink:href="#m9e8c85c185" y="303.64"/>
      </g>
     </g>
     <g id="text_7">
      <!-- 300 -->
      <g transform="translate(331.430946 318.238437)scale(0.1 -0.1)">
       <defs>
        <path d="M 2597 2516 
Q 3050 2419 3304 2112 
Q 3559 1806 3559 1356 
Q 3559 666 3084 287 
Q 2609 -91 1734 -91 
Q 1441 -91 1130 -33 
Q 819 25 488 141 
L 488 750 
Q 750 597 1062 519 
Q 1375 441 1716 441 
Q 2309 441 2620 675 
Q 2931 909 2931 1356 
Q 2931 1769 2642 2001 
Q 2353 2234 1838 2234 
L 1294 2234 
L 1294 2753 
L 1863 2753 
Q 2328 2753 2575 2939 
Q 2822 3125 2822 3475 
Q 2822 3834 2567 4026 
Q 2313 4219 1838 4219 
Q 1578 4219 1281 4162 
Q 984 4106 628 3988 
L 628 4550 
Q 988 4650 1302 4700 
Q 1616 4750 1894 4750 
Q 2613 4750 3031 4423 
Q 3450 4097 3450 3541 
Q 3450 3153 3228 2886 
Q 3006 2619 2597 2516 
z
" id="DejaVuSans-33" transform="scale(0.015625)"/>
       </defs>
       <use xlink:href="#DejaVuSans-33"/>
       <use x="63.623047" xlink:href="#DejaVuSans-30"/>
       <use x="127.246094" xlink:href="#DejaVuSans-30"/>
      </g>
     </g>
    </g>
    <g id="xtick_8">
     <g id="line2d_8">
      <g>
       <use style="stroke:#000000;stroke-width:0.8;" x="386.802903" xlink:href="#m9e8c85c185" y="303.64"/>
      </g>
     </g>
     <g id="text_8">
      <!-- 350 -->
      <g transform="translate(377.259153 318.238437)scale(0.1 -0.1)">
       <use xlink:href="#DejaVuSans-33"/>
       <use x="63.623047" xlink:href="#DejaVuSans-35"/>
       <use x="127.246094" xlink:href="#DejaVuSans-30"/>
      </g>
     </g>
    </g>
    <g id="xtick_9">
     <g id="line2d_9">
      <g>
       <use style="stroke:#000000;stroke-width:0.8;" x="432.63111" xlink:href="#m9e8c85c185" y="303.64"/>
      </g>
     </g>
     <g id="text_9">
      <!-- 400 -->
      <g transform="translate(423.08736 318.238437)scale(0.1 -0.1)">
       <defs>
        <path d="M 2419 4116 
L 825 1625 
L 2419 1625 
L 2419 4116 
z
M 2253 4666 
L 3047 4666 
L 3047 1625 
L 3713 1625 
L 3713 1100 
L 3047 1100 
L 3047 0 
L 2419 0 
L 2419 1100 
L 313 1100 
L 313 1709 
L 2253 4666 
z
" id="DejaVuSans-34" transform="scale(0.015625)"/>
       </defs>
       <use xlink:href="#DejaVuSans-34"/>
       <use x="63.623047" xlink:href="#DejaVuSans-30"/>
       <use x="127.246094" xlink:href="#DejaVuSans-30"/>
      </g>
     </g>
    </g>
    <g id="text_10">
     <!-- Boosting iteration -->
     <g transform="translate(204.302188 331.916562)scale(0.1 -0.1)">
      <defs>
       <path d="M 1259 2228 
L 1259 519 
L 2272 519 
Q 2781 519 3026 730 
Q 3272 941 3272 1375 
Q 3272 1813 3026 2020 
Q 2781 2228 2272 2228 
L 1259 2228 
z
M 1259 4147 
L 1259 2741 
L 2194 2741 
Q 2656 2741 2882 2914 
Q 3109 3088 3109 3444 
Q 3109 3797 2882 3972 
Q 2656 4147 2194 4147 
L 1259 4147 
z
M 628 4666 
L 2241 4666 
Q 2963 4666 3353 4366 
Q 3744 4066 3744 3513 
Q 3744 3084 3544 2831 
Q 3344 2578 2956 2516 
Q 3422 2416 3680 2098 
Q 3938 1781 3938 1306 
Q 3938 681 3513 340 
Q 3088 0 2303 0 
L 628 0 
L 628 4666 
z
" id="DejaVuSans-42" transform="scale(0.015625)"/>
       <path d="M 1959 3097 
Q 1497 3097 1228 2736 
Q 959 2375 959 1747 
Q 959 1119 1226 758 
Q 1494 397 1959 397 
Q 2419 397 2687 759 
Q 2956 1122 2956 1747 
Q 2956 2369 2687 2733 
Q 2419 3097 1959 3097 
z
M 1959 3584 
Q 2709 3584 3137 3096 
Q 3566 2609 3566 1747 
Q 3566 888 3137 398 
Q 2709 -91 1959 -91 
Q 1206 -91 779 398 
Q 353 888 353 1747 
Q 353 2609 779 3096 
Q 1206 3584 1959 3584 
z
" id="DejaVuSans-6f" transform="scale(0.015625)"/>
       <path d="M 2834 3397 
L 2834 2853 
Q 2591 2978 2328 3040 
Q 2066 3103 1784 3103 
Q 1356 3103 1142 2972 
Q 928 2841 928 2578 
Q 928 2378 1081 2264 
Q 1234 2150 1697 2047 
L 1894 2003 
Q 2506 1872 2764 1633 
Q 3022 1394 3022 966 
Q 3022 478 2636 193 
Q 2250 -91 1575 -91 
Q 1294 -91 989 -36 
Q 684 19 347 128 
L 347 722 
Q 666 556 975 473 
Q 1284 391 1588 391 
Q 1994 391 2212 530 
Q 2431 669 2431 922 
Q 2431 1156 2273 1281 
Q 2116 1406 1581 1522 
L 1381 1569 
Q 847 1681 609 1914 
Q 372 2147 372 2553 
Q 372 3047 722 3315 
Q 1072 3584 1716 3584 
Q 2034 3584 2315 3537 
Q 2597 3491 2834 3397 
z
" id="DejaVuSans-73" transform="scale(0.015625)"/>
       <path d="M 1172 4494 
L 1172 3500 
L 2356 3500 
L 2356 3053 
L 1172 3053 
L 1172 1153 
Q 1172 725 1289 603 
Q 1406 481 1766 481 
L 2356 481 
L 2356 0 
L 1766 0 
Q 1100 0 847 248 
Q 594 497 594 1153 
L 594 3053 
L 172 3053 
L 172 3500 
L 594 3500 
L 594 4494 
L 1172 4494 
z
" id="DejaVuSans-74" transform="scale(0.015625)"/>
       <path d="M 603 3500 
L 1178 3500 
L 1178 0 
L 603 0 
L 603 3500 
z
M 603 4863 
L 1178 4863 
L 1178 4134 
L 603 4134 
L 603 4863 
z
" id="DejaVuSans-69" transform="scale(0.015625)"/>
       <path d="M 3513 2113 
L 3513 0 
L 2938 0 
L 2938 2094 
Q 2938 2591 2744 2837 
Q 2550 3084 2163 3084 
Q 1697 3084 1428 2787 
Q 1159 2491 1159 1978 
L 1159 0 
L 581 0 
L 581 3500 
L 1159 3500 
L 1159 2956 
Q 1366 3272 1645 3428 
Q 1925 3584 2291 3584 
Q 2894 3584 3203 3211 
Q 3513 2838 3513 2113 
z
" id="DejaVuSans-6e" transform="scale(0.015625)"/>
       <path d="M 2906 1791 
Q 2906 2416 2648 2759 
Q 2391 3103 1925 3103 
Q 1463 3103 1205 2759 
Q 947 2416 947 1791 
Q 947 1169 1205 825 
Q 1463 481 1925 481 
Q 2391 481 2648 825 
Q 2906 1169 2906 1791 
z
M 3481 434 
Q 3481 -459 3084 -895 
Q 2688 -1331 1869 -1331 
Q 1566 -1331 1297 -1286 
Q 1028 -1241 775 -1147 
L 775 -588 
Q 1028 -725 1275 -790 
Q 1522 -856 1778 -856 
Q 2344 -856 2625 -561 
Q 2906 -266 2906 331 
L 2906 616 
Q 2728 306 2450 153 
Q 2172 0 1784 0 
Q 1141 0 747 490 
Q 353 981 353 1791 
Q 353 2603 747 3093 
Q 1141 3584 1784 3584 
Q 2172 3584 2450 3431 
Q 2728 3278 2906 2969 
L 2906 3500 
L 3481 3500 
L 3481 434 
z
" id="DejaVuSans-67" transform="scale(0.015625)"/>
       <path id="DejaVuSans-20" transform="scale(0.015625)"/>
       <path d="M 3597 1894 
L 3597 1613 
L 953 1613 
Q 991 1019 1311 708 
Q 1631 397 2203 397 
Q 2534 397 2845 478 
Q 3156 559 3463 722 
L 3463 178 
Q 3153 47 2828 -22 
Q 2503 -91 2169 -91 
Q 1331 -91 842 396 
Q 353 884 353 1716 
Q 353 2575 817 3079 
Q 1281 3584 2069 3584 
Q 2775 3584 3186 3129 
Q 3597 2675 3597 1894 
z
M 3022 2063 
Q 3016 2534 2758 2815 
Q 2500 3097 2075 3097 
Q 1594 3097 1305 2825 
Q 1016 2553 972 2059 
L 3022 2063 
z
" id="DejaVuSans-65" transform="scale(0.015625)"/>
       <path d="M 2631 2963 
Q 2534 3019 2420 3045 
Q 2306 3072 2169 3072 
Q 1681 3072 1420 2755 
Q 1159 2438 1159 1844 
L 1159 0 
L 581 0 
L 581 3500 
L 1159 3500 
L 1159 2956 
Q 1341 3275 1631 3429 
Q 1922 3584 2338 3584 
Q 2397 3584 2469 3576 
Q 2541 3569 2628 3553 
L 2631 2963 
z
" id="DejaVuSans-72" transform="scale(0.015625)"/>
       <path d="M 2194 1759 
Q 1497 1759 1228 1600 
Q 959 1441 959 1056 
Q 959 750 1161 570 
Q 1363 391 1709 391 
Q 2188 391 2477 730 
Q 2766 1069 2766 1631 
L 2766 1759 
L 2194 1759 
z
M 3341 1997 
L 3341 0 
L 2766 0 
L 2766 531 
Q 2569 213 2275 61 
Q 1981 -91 1556 -91 
Q 1019 -91 701 211 
Q 384 513 384 1019 
Q 384 1609 779 1909 
Q 1175 2209 1959 2209 
L 2766 2209 
L 2766 2266 
Q 2766 2663 2505 2880 
Q 2244 3097 1772 3097 
Q 1472 3097 1187 3025 
Q 903 2953 641 2809 
L 641 3341 
Q 956 3463 1253 3523 
Q 1550 3584 1831 3584 
Q 2591 3584 2966 3190 
Q 3341 2797 3341 1997 
z
" id="DejaVuSans-61" transform="scale(0.015625)"/>
      </defs>
      <use xlink:href="#DejaVuSans-42"/>
      <use x="68.603516" xlink:href="#DejaVuSans-6f"/>
      <use x="129.785156" xlink:href="#DejaVuSans-6f"/>
      <use x="190.966797" xlink:href="#DejaVuSans-73"/>
      <use x="243.066406" xlink:href="#DejaVuSans-74"/>
      <use x="282.275391" xlink:href="#DejaVuSans-69"/>
      <use x="310.058594" xlink:href="#DejaVuSans-6e"/>
      <use x="373.4375" xlink:href="#DejaVuSans-67"/>
      <use x="436.914062" xlink:href="#DejaVuSans-20"/>
      <use x="468.701172" xlink:href="#DejaVuSans-69"/>
      <use x="496.484375" xlink:href="#DejaVuSans-74"/>
      <use x="535.693359" xlink:href="#DejaVuSans-65"/>
      <use x="597.216797" xlink:href="#DejaVuSans-72"/>
      <use x="638.330078" xlink:href="#DejaVuSans-61"/>
      <use x="699.609375" xlink:href="#DejaVuSans-74"/>
      <use x="738.818359" xlink:href="#DejaVuSans-69"/>
      <use x="766.601562" xlink:href="#DejaVuSans-6f"/>
      <use x="827.783203" xlink:href="#DejaVuSans-6e"/>
     </g>
    </g>
   </g>
   <g id="matplotlib.axis_2">
    <g id="ytick_1">
     <g id="line2d_10">
      <defs>
       <path d="M 0 0 
L -3.5 0 
" id="me611688cf0" style="stroke:#000000;stroke-width:0.8;"/>
      </defs>
      <g>
       <use style="stroke:#000000;stroke-width:0.8;" x="47.72" xlink:href="#me611688cf0" y="291.06"/>
      </g>
     </g>
     <g id="text_11">
      <!-- 0.0 -->
      <g transform="translate(24.816875 294.859219)scale(0.1 -0.1)">
       <defs>
        <path d="M 684 794 
L 1344 794 
L 1344 0 
L 684 0 
L 684 794 
z
" id="DejaVuSans-2e" transform="scale(0.015625)"/>
       </defs>
       <use xlink:href="#DejaVuSans-30"/>
       <use x="63.623047" xlink:href="#DejaVuSans-2e"/>
       <use x="95.410156" xlink:href="#DejaVuSans-30"/>
      </g>
     </g>
    </g>
    <g id="ytick_2">
     <g id="line2d_11">
      <g>
       <use style="stroke:#000000;stroke-width:0.8;" x="47.72" xlink:href="#me611688cf0" y="236.777368"/>
      </g>
     </g>
     <g id="text_12">
      <!-- 0.1 -->
      <g transform="translate(24.816875 240.576587)scale(0.1 -0.1)">
       <use xlink:href="#DejaVuSans-30"/>
       <use x="63.623047" xlink:href="#DejaVuSans-2e"/>
       <use x="95.410156" xlink:href="#DejaVuSans-31"/>
      </g>
     </g>
    </g>
    <g id="ytick_3">
     <g id="line2d_12">
      <g>
       <use style="stroke:#000000;stroke-width:0.8;" x="47.72" xlink:href="#me611688cf0" y="182.494736"/>
      </g>
     </g>
     <g id="text_13">
      <!-- 0.2 -->
      <g transform="translate(24.816875 186.293954)scale(0.1 -0.1)">
       <use xlink:href="#DejaVuSans-30"/>
       <use x="63.623047" xlink:href="#DejaVuSans-2e"/>
       <use x="95.410156" xlink:href="#DejaVuSans-32"/>
      </g>
     </g>
    </g>
    <g id="ytick_4">
     <g id="line2d_13">
      <g>
       <use style="stroke:#000000;stroke-width:0.8;" x="47.72" xlink:href="#me611688cf0" y="128.212104"/>
      </g>
     </g>
     <g id="text_14">
      <!-- 0.3 -->
      <g transform="translate(24.816875 132.011322)scale(0.1 -0.1)">
       <use xlink:href="#DejaVuSans-30"/>
       <use x="63.623047" xlink:href="#DejaVuSans-2e"/>
       <use x="95.410156" xlink:href="#DejaVuSans-33"/>
      </g>
     </g>
    </g>
    <g id="ytick_5">
     <g id="line2d_14">
      <g>
       <use style="stroke:#000000;stroke-width:0.8;" x="47.72" xlink:href="#me611688cf0" y="73.929471"/>
      </g>
     </g>
     <g id="text_15">
      <!-- 0.4 -->
      <g transform="translate(24.816875 77.72869)scale(0.1 -0.1)">
       <use xlink:href="#DejaVuSans-30"/>
       <use x="63.623047" xlink:href="#DejaVuSans-2e"/>
       <use x="95.410156" xlink:href="#DejaVuSans-34"/>
      </g>
     </g>
    </g>
    <g id="text_16">
     <!-- Misclassification error rate/Loss -->
     <g transform="translate(18.737188 243.996719)rotate(-90)scale(0.1 -0.1)">
      <defs>
       <path d="M 628 4666 
L 1569 4666 
L 2759 1491 
L 3956 4666 
L 4897 4666 
L 4897 0 
L 4281 0 
L 4281 4097 
L 3078 897 
L 2444 897 
L 1241 4097 
L 1241 0 
L 628 0 
L 628 4666 
z
" id="DejaVuSans-4d" transform="scale(0.015625)"/>
       <path d="M 3122 3366 
L 3122 2828 
Q 2878 2963 2633 3030 
Q 2388 3097 2138 3097 
Q 1578 3097 1268 2742 
Q 959 2388 959 1747 
Q 959 1106 1268 751 
Q 1578 397 2138 397 
Q 2388 397 2633 464 
Q 2878 531 3122 666 
L 3122 134 
Q 2881 22 2623 -34 
Q 2366 -91 2075 -91 
Q 1284 -91 818 406 
Q 353 903 353 1747 
Q 353 2603 823 3093 
Q 1294 3584 2113 3584 
Q 2378 3584 2631 3529 
Q 2884 3475 3122 3366 
z
" id="DejaVuSans-63" transform="scale(0.015625)"/>
       <path d="M 603 4863 
L 1178 4863 
L 1178 0 
L 603 0 
L 603 4863 
z
" id="DejaVuSans-6c" transform="scale(0.015625)"/>
       <path d="M 2375 4863 
L 2375 4384 
L 1825 4384 
Q 1516 4384 1395 4259 
Q 1275 4134 1275 3809 
L 1275 3500 
L 2222 3500 
L 2222 3053 
L 1275 3053 
L 1275 0 
L 697 0 
L 697 3053 
L 147 3053 
L 147 3500 
L 697 3500 
L 697 3744 
Q 697 4328 969 4595 
Q 1241 4863 1831 4863 
L 2375 4863 
z
" id="DejaVuSans-66" transform="scale(0.015625)"/>
       <path d="M 1625 4666 
L 2156 4666 
L 531 -594 
L 0 -594 
L 1625 4666 
z
" id="DejaVuSans-2f" transform="scale(0.015625)"/>
       <path d="M 628 4666 
L 1259 4666 
L 1259 531 
L 3531 531 
L 3531 0 
L 628 0 
L 628 4666 
z
" id="DejaVuSans-4c" transform="scale(0.015625)"/>
      </defs>
      <use xlink:href="#DejaVuSans-4d"/>
      <use x="86.279297" xlink:href="#DejaVuSans-69"/>
      <use x="114.0625" xlink:href="#DejaVuSans-73"/>
      <use x="166.162109" xlink:href="#DejaVuSans-63"/>
      <use x="221.142578" xlink:href="#DejaVuSans-6c"/>
      <use x="248.925781" xlink:href="#DejaVuSans-61"/>
      <use x="310.205078" xlink:href="#DejaVuSans-73"/>
      <use x="362.304688" xlink:href="#DejaVuSans-73"/>
      <use x="414.404297" xlink:href="#DejaVuSans-69"/>
      <use x="442.1875" xlink:href="#DejaVuSans-66"/>
      <use x="477.392578" xlink:href="#DejaVuSans-69"/>
      <use x="505.175781" xlink:href="#DejaVuSans-63"/>
      <use x="560.15625" xlink:href="#DejaVuSans-61"/>
      <use x="621.435547" xlink:href="#DejaVuSans-74"/>
      <use x="660.644531" xlink:href="#DejaVuSans-69"/>
      <use x="688.427734" xlink:href="#DejaVuSans-6f"/>
      <use x="749.609375" xlink:href="#DejaVuSans-6e"/>
      <use x="812.988281" xlink:href="#DejaVuSans-20"/>
      <use x="844.775391" xlink:href="#DejaVuSans-65"/>
      <use x="906.298828" xlink:href="#DejaVuSans-72"/>
      <use x="945.662109" xlink:href="#DejaVuSans-72"/>
      <use x="984.525391" xlink:href="#DejaVuSans-6f"/>
      <use x="1045.707031" xlink:href="#DejaVuSans-72"/>
      <use x="1086.820312" xlink:href="#DejaVuSans-20"/>
      <use x="1118.607422" xlink:href="#DejaVuSans-72"/>
      <use x="1159.720703" xlink:href="#DejaVuSans-61"/>
      <use x="1221" xlink:href="#DejaVuSans-74"/>
      <use x="1260.208984" xlink:href="#DejaVuSans-65"/>
      <use x="1321.732422" xlink:href="#DejaVuSans-2f"/>
      <use x="1355.423828" xlink:href="#DejaVuSans-4c"/>
      <use x="1409.386719" xlink:href="#DejaVuSans-6f"/>
      <use x="1470.568359" xlink:href="#DejaVuSans-73"/>
      <use x="1522.667969" xlink:href="#DejaVuSans-73"/>
     </g>
    </g>
   </g>
   <g id="line2d_15">
    <path clip-path="url(#pee03d00484)" d="M 66.005455 44.61685 
L 66.922019 72.029579 
L 67.838583 89.671435 
L 68.755147 112.198727 
L 69.671711 123.055254 
L 71.504839 139.340043 
L 72.421404 144.496893 
L 73.337968 147.753851 
L 74.254532 147.211025 
L 75.171096 151.282222 
L 76.08766 153.724941 
L 77.004224 165.124293 
L 78.837352 183.037562 
L 79.753917 189.280065 
L 80.670481 197.42246 
L 81.587045 203.393549 
L 82.503609 205.836268 
L 83.420173 205.293441 
L 84.336737 202.036483 
L 85.253301 204.479202 
L 86.169866 208.007573 
L 87.08643 207.464746 
L 88.002994 209.636052 
L 89.836122 212.350183 
L 90.752686 213.978662 
L 92.585815 219.678339 
L 94.418943 227.820734 
L 95.335507 230.534865 
L 96.252071 228.36356 
L 97.168635 226.735081 
L 98.085199 227.54932 
L 99.001763 230.263452 
L 99.918328 233.791823 
L 100.834892 235.420302 
L 101.751456 238.67726 
L 102.66802 239.220086 
L 103.584584 239.491499 
L 104.501148 240.034326 
L 105.417712 242.748457 
L 106.334277 244.376936 
L 107.250841 246.548242 
L 108.167405 244.376936 
L 109.083969 246.819655 
L 110.000533 251.705092 
L 110.917097 253.604984 
L 111.833661 250.890852 
L 112.750226 252.790744 
L 113.66679 253.876397 
L 114.583354 257.133355 
L 115.499918 259.576073 
L 116.416482 258.761834 
L 117.333046 259.576073 
L 118.24961 260.1189 
L 119.166175 259.576073 
L 120.082739 259.847487 
L 120.999303 259.576073 
L 121.915867 261.475965 
L 122.832431 261.475965 
L 123.748995 263.104444 
L 124.665559 263.918684 
L 125.582123 264.190097 
L 126.498688 265.27575 
L 127.415252 267.175642 
L 128.331816 265.27575 
L 129.24838 266.089989 
L 130.164944 265.004337 
L 131.081508 266.632816 
L 132.914637 265.547163 
L 133.831201 265.547163 
L 134.747765 265.818576 
L 135.664329 266.361402 
L 136.580893 267.989881 
L 137.497457 267.447055 
L 138.414021 266.361402 
L 140.24715 267.989881 
L 141.163714 268.261294 
L 142.080278 269.61836 
L 142.996842 268.804121 
L 143.913406 269.61836 
L 144.82997 268.804121 
L 145.746535 268.804121 
L 146.663099 269.346947 
L 147.579663 271.789666 
L 148.496227 273.689558 
L 149.412791 274.503797 
L 150.329355 273.418145 
L 151.245919 274.232384 
L 152.162483 276.675102 
L 153.079048 277.760755 
L 153.995612 277.760755 
L 154.912176 277.489342 
L 155.82874 276.403689 
L 156.745304 277.489342 
L 157.661868 276.946516 
L 158.578432 277.760755 
L 159.494997 278.032168 
L 160.411561 277.489342 
L 161.328125 277.217929 
L 162.244689 277.489342 
L 163.161253 278.303581 
L 164.077817 279.389234 
L 164.994381 278.846408 
L 165.910946 279.660647 
L 166.82751 280.203474 
L 167.744074 279.93206 
L 168.660638 279.93206 
L 169.577202 281.560539 
L 170.493766 281.560539 
L 171.41033 281.289126 
L 174.160023 282.103366 
L 175.076587 281.289126 
L 175.993151 282.103366 
L 176.909715 281.289126 
L 177.826279 281.289126 
L 178.742843 281.560539 
L 180.575972 283.189018 
L 181.492536 281.831953 
L 183.325664 281.289126 
L 184.242228 282.917605 
L 185.158792 282.917605 
L 186.075357 283.189018 
L 187.908485 285.360324 
L 188.825049 284.817497 
L 189.741613 284.817497 
L 190.658177 284.003258 
L 191.574741 284.817497 
L 192.491306 285.360324 
L 193.40787 284.546084 
L 194.324434 285.08891 
L 195.240998 285.360324 
L 197.074126 284.274671 
L 198.907254 284.817497 
L 199.823819 284.546084 
L 200.740383 284.003258 
L 202.573511 285.08891 
L 203.490075 286.174563 
L 204.406639 286.174563 
L 206.239768 287.803042 
L 207.156332 288.074455 
L 208.072896 287.803042 
L 208.98946 288.074455 
L 209.906024 287.803042 
L 210.822588 286.445976 
L 211.739152 286.988803 
L 212.655717 287.260216 
L 213.572281 287.803042 
L 214.488845 287.531629 
L 215.405409 287.531629 
L 216.321973 287.260216 
L 217.238537 287.260216 
L 218.155101 288.074455 
L 220.904794 288.074455 
L 221.821358 288.345868 
L 223.654486 287.803042 
L 224.57105 287.260216 
L 225.487614 288.345868 
L 226.404179 287.803042 
L 227.320743 288.888695 
L 228.237307 288.617282 
L 229.153871 288.888695 
L 230.986999 288.888695 
L 231.903563 289.160108 
L 232.820128 289.160108 
L 233.736692 288.888695 
L 235.56982 289.431521 
L 236.486384 289.160108 
L 238.319512 289.160108 
L 241.069205 289.974347 
L 241.985769 289.974347 
L 242.902333 289.702934 
L 243.818897 289.702934 
L 244.735461 289.974347 
L 246.56859 289.974347 
L 247.485154 290.245761 
L 248.401718 290.245761 
L 249.318282 289.702934 
L 250.234846 289.974347 
L 251.15141 289.974347 
L 252.067974 289.702934 
L 252.984539 289.974347 
L 253.901103 289.702934 
L 255.734231 290.788587 
L 257.567359 290.788587 
L 259.400488 290.245761 
L 261.233616 290.245761 
L 262.15018 290.517174 
L 263.066744 290.517174 
L 263.983308 290.245761 
L 264.899872 290.517174 
L 267.649565 290.517174 
L 268.566129 290.788587 
L 269.482693 289.974347 
L 270.399257 289.974347 
L 271.315821 290.788587 
L 272.232386 290.788587 
L 273.14895 290.517174 
L 274.065514 290.517174 
L 274.982078 289.974347 
L 275.898642 290.517174 
L 276.815206 290.788587 
L 277.73177 290.245761 
L 279.564899 290.245761 
L 281.398027 290.788587 
L 285.064283 290.788587 
L 285.980848 290.517174 
L 286.897412 290.517174 
L 287.813976 289.974347 
L 290.563668 290.788587 
L 293.313361 290.788587 
L 294.229925 291.06 
L 295.146489 290.788587 
L 296.063053 290.788587 
L 296.979617 290.517174 
L 297.896181 290.517174 
L 298.812746 291.06 
L 301.562438 291.06 
L 302.479002 290.788587 
L 303.395566 291.06 
L 304.31213 290.788587 
L 305.228694 291.06 
L 307.061823 291.06 
L 308.894951 290.517174 
L 309.811515 290.517174 
L 310.728079 291.06 
L 313.477772 291.06 
L 314.394336 290.517174 
L 315.3109 290.517174 
L 316.227464 290.788587 
L 317.144028 290.788587 
L 318.060592 290.245761 
L 318.977157 290.245761 
L 319.893721 290.517174 
L 320.810285 290.517174 
L 321.726849 290.788587 
L 326.30967 290.788587 
L 327.226234 291.06 
L 328.142798 290.788587 
L 329.975926 290.788587 
L 330.89249 291.06 
L 331.809054 291.06 
L 332.725619 290.788587 
L 333.642183 290.788587 
L 334.558747 291.06 
L 431.714545 291.06 
L 431.714545 291.06 
" style="fill:none;stroke:#1f77b4;stroke-linecap:square;stroke-width:1.5;"/>
   </g>
   <g id="line2d_16">
    <path clip-path="url(#pee03d00484)" d="M 66.005455 39.46 
L 66.922019 57.237562 
L 67.838583 70.4011 
L 68.755147 89.332168 
L 69.671711 101.274347 
L 70.588275 111.588047 
L 71.504839 116.541338 
L 72.421404 120.001855 
L 73.337968 122.58028 
L 74.254532 122.037454 
L 75.171096 127.601424 
L 76.08766 136.558058 
L 77.004224 144.22548 
L 77.920788 150.19657 
L 78.837352 160.374563 
L 79.753917 167.227745 
L 80.670481 176.048673 
L 81.587045 183.648242 
L 82.503609 187.515879 
L 83.420173 188.601532 
L 84.336737 185.412427 
L 85.253301 186.430227 
L 86.169866 188.465825 
L 87.08643 183.987508 
L 88.002994 190.365717 
L 88.919558 191.519223 
L 89.836122 193.351262 
L 90.752686 194.301208 
L 91.66925 194.708328 
L 92.585815 196.676073 
L 94.418943 201.086537 
L 95.335507 205.157735 
L 96.252071 204.886321 
L 97.168635 205.971974 
L 98.085199 208.143279 
L 99.001763 207.32904 
L 99.918328 209.364639 
L 100.834892 212.89301 
L 101.751456 213.028716 
L 102.66802 216.014261 
L 103.584584 215.200022 
L 104.501148 215.810701 
L 105.417712 216.760647 
L 106.334277 217.099914 
L 107.250841 215.946408 
L 108.167405 214.046516 
L 109.083969 217.303474 
L 110.000533 218.185566 
L 110.917097 219.814045 
L 111.833661 218.931953 
L 112.750226 219.881899 
L 113.66679 222.121057 
L 114.583354 223.071003 
L 116.416482 223.681683 
L 117.333046 223.61383 
L 119.166175 225.513722 
L 120.082739 225.988695 
L 120.999303 226.260108 
L 121.915867 228.499266 
L 122.832431 228.906386 
L 123.748995 228.431413 
L 124.665559 228.77068 
L 125.582123 229.720626 
L 126.498688 231.416958 
L 127.415252 233.656117 
L 128.331816 234.198943 
L 130.164944 234.334649 
L 131.081508 232.70617 
L 131.998072 233.588263 
L 133.831201 234.809622 
L 134.747765 236.438101 
L 135.664329 235.352449 
L 136.580893 236.370248 
L 137.497457 236.370248 
L 138.414021 236.573808 
L 139.330586 238.27014 
L 140.24715 238.405847 
L 141.163714 238.405847 
L 142.080278 237.86302 
L 142.996842 237.591607 
L 143.913406 237.998727 
L 144.82997 240.034326 
L 145.746535 239.695059 
L 146.663099 239.627206 
L 147.579663 240.441446 
L 148.496227 239.220086 
L 149.412791 240.780712 
L 150.329355 241.119978 
L 151.245919 240.712859 
L 152.162483 240.441446 
L 153.079048 240.848565 
L 153.995612 242.205631 
L 154.912176 242.952017 
L 155.82874 242.477044 
L 156.745304 243.901963 
L 157.661868 241.934218 
L 158.578432 243.291284 
L 159.494997 243.359137 
L 160.411561 244.309083 
L 161.328125 244.919763 
L 162.244689 244.851909 
L 163.161253 244.580496 
L 164.077817 244.64835 
L 164.994381 245.191176 
L 165.910946 244.851909 
L 166.82751 245.666149 
L 167.744074 246.276828 
L 169.577202 245.259029 
L 170.493766 245.055469 
L 171.41033 244.105523 
L 172.326895 244.173376 
L 173.243459 243.901963 
L 174.160023 244.309083 
L 175.076587 244.44479 
L 176.909715 245.259029 
L 177.826279 245.394736 
L 178.742843 245.937562 
L 180.575972 246.548242 
L 181.492536 247.158921 
L 182.4091 247.566041 
L 183.325664 246.887508 
L 184.242228 247.633894 
L 185.158792 247.837454 
L 186.075357 247.769601 
L 186.991921 247.362481 
L 187.908485 248.108867 
L 188.825049 248.515987 
L 189.741613 248.651694 
L 190.658177 248.515987 
L 191.574741 249.60164 
L 192.491306 248.719547 
L 193.40787 248.651694 
L 194.324434 249.058813 
L 195.240998 249.60164 
L 196.157562 249.873053 
L 197.074126 250.619439 
L 197.99069 250.755146 
L 198.907254 251.637238 
L 200.740383 251.637238 
L 201.656947 252.519331 
L 202.573511 252.655038 
L 203.490075 252.926451 
L 204.406639 251.976505 
L 205.323203 252.383625 
L 206.239768 252.180065 
L 207.156332 252.180065 
L 208.072896 252.044358 
L 208.98946 252.451478 
L 209.906024 252.519331 
L 210.822588 252.858598 
L 211.739152 252.044358 
L 212.655717 252.655038 
L 213.572281 253.604984 
L 214.488845 252.383625 
L 215.405409 253.062157 
L 216.321973 253.333571 
L 217.238537 253.74069 
L 218.155101 254.487077 
L 219.071666 253.94425 
L 219.98823 254.012104 
L 220.904794 253.130011 
L 221.821358 254.55493 
L 223.654486 254.283517 
L 224.57105 253.401424 
L 225.487614 253.265717 
L 226.404179 253.672837 
L 227.320743 254.35137 
L 228.237307 254.419223 
L 229.153871 254.012104 
L 230.986999 255.029903 
L 231.903563 254.419223 
L 232.820128 254.894196 
L 233.736692 254.75849 
L 234.653256 254.283517 
L 235.56982 254.419223 
L 236.486384 255.165609 
L 237.402948 255.233463 
L 238.319512 254.419223 
L 239.236077 254.283517 
L 240.152641 253.74069 
L 241.069205 254.419223 
L 241.985769 254.826343 
L 242.902333 255.776289 
L 243.818897 255.911996 
L 244.735461 254.96205 
L 245.652026 255.233463 
L 246.56859 255.165609 
L 247.485154 254.419223 
L 248.401718 254.894196 
L 250.234846 256.251262 
L 251.15141 255.640583 
L 252.067974 254.690636 
L 252.984539 254.690636 
L 253.901103 254.894196 
L 254.817667 255.437023 
L 255.734231 255.572729 
L 256.650795 256.115556 
L 257.567359 255.776289 
L 258.483923 255.776289 
L 259.400488 256.454822 
L 260.317052 256.454822 
L 261.233616 256.794088 
L 262.15018 256.658382 
L 263.066744 255.776289 
L 263.983308 255.640583 
L 264.899872 256.590529 
L 265.816437 256.522675 
L 266.733001 256.861942 
L 267.649565 255.911996 
L 268.566129 255.504876 
L 269.482693 256.726235 
L 270.399257 256.522675 
L 271.315821 255.640583 
L 272.232386 255.437023 
L 273.14895 254.75849 
L 274.065514 254.894196 
L 274.982078 255.708436 
L 275.898642 255.572729 
L 278.648334 255.979849 
L 279.564899 255.437023 
L 280.481463 255.844142 
L 281.398027 256.590529 
L 282.314591 255.844142 
L 283.231155 255.776289 
L 284.147719 255.844142 
L 285.980848 255.233463 
L 286.897412 254.487077 
L 287.813976 254.75849 
L 288.73054 255.301316 
L 289.647104 255.504876 
L 291.480232 256.251262 
L 292.396797 256.047702 
L 294.229925 256.183409 
L 295.146489 256.522675 
L 296.979617 256.047702 
L 297.896181 256.047702 
L 298.812746 256.726235 
L 299.72931 257.201208 
L 300.645874 257.201208 
L 302.479002 256.251262 
L 303.395566 256.861942 
L 304.31213 256.726235 
L 305.228694 256.726235 
L 307.061823 255.979849 
L 307.978387 255.979849 
L 308.894951 256.115556 
L 309.811515 257.133355 
L 311.644643 257.608328 
L 312.561208 256.522675 
L 313.477772 255.911996 
L 314.394336 255.165609 
L 316.227464 256.522675 
L 318.977157 256.047702 
L 319.893721 256.183409 
L 320.810285 255.708436 
L 321.726849 255.504876 
L 322.643413 255.437023 
L 323.559977 255.572729 
L 324.476541 256.454822 
L 325.393105 256.047702 
L 326.30967 256.319115 
L 327.226234 256.183409 
L 328.142798 256.454822 
L 329.059362 257.065502 
L 329.975926 256.251262 
L 331.809054 256.590529 
L 332.725619 257.269061 
L 333.642183 257.404768 
L 334.558747 257.201208 
L 336.391875 258.015448 
L 337.308439 257.744035 
L 338.225003 257.947594 
L 339.141568 257.608328 
L 340.058132 257.676181 
L 340.974696 257.947594 
L 341.89126 257.879741 
L 342.807824 258.286861 
L 343.724388 258.490421 
L 344.640952 258.558274 
L 345.557517 258.422567 
L 346.474081 258.965394 
L 347.390645 258.89754 
L 348.307209 258.083301 
L 349.223773 257.676181 
L 351.056901 257.472621 
L 351.973465 258.151154 
L 352.89003 257.676181 
L 355.639722 257.540475 
L 356.556286 257.811888 
L 357.47285 258.490421 
L 358.389414 258.219008 
L 359.305979 258.89754 
L 361.139107 258.829687 
L 362.055671 258.626127 
L 362.972235 258.626127 
L 363.888799 259.033247 
L 365.721928 259.1011 
L 366.638492 259.372513 
L 367.555056 259.372513 
L 368.47162 258.89754 
L 369.388184 258.829687 
L 370.304748 258.286861 
L 371.221312 258.354714 
L 372.137877 258.015448 
L 373.054441 259.033247 
L 374.887569 259.236807 
L 375.804133 259.033247 
L 376.720697 258.965394 
L 377.637261 259.30466 
L 378.553825 259.91534 
L 379.47039 259.91534 
L 380.386954 259.643927 
L 381.303518 259.50822 
L 382.220082 259.643927 
L 383.136646 259.168954 
L 384.05321 259.168954 
L 384.969774 259.71178 
L 385.886339 259.643927 
L 386.802903 259.168954 
L 387.719467 258.965394 
L 388.636031 259.168954 
L 389.552595 259.50822 
L 392.302288 258.558274 
L 393.218852 258.558274 
L 394.135416 258.422567 
L 395.05198 259.50822 
L 395.968544 259.1011 
L 397.801672 259.168954 
L 398.718237 258.693981 
L 400.551365 258.761834 
L 401.467929 258.490421 
L 402.384493 258.693981 
L 403.301057 259.033247 
L 404.217621 258.965394 
L 405.134185 259.168954 
L 408.800442 259.168954 
L 409.717006 259.576073 
L 410.63357 259.440367 
L 411.550134 260.1189 
L 412.466699 259.983193 
L 413.383263 259.236807 
L 414.299827 259.847487 
L 415.216391 259.440367 
L 416.132955 259.847487 
L 417.049519 259.847487 
L 417.966083 260.254606 
L 418.882648 260.254606 
L 419.799212 259.779633 
L 420.715776 259.168954 
L 421.63234 259.033247 
L 422.548904 259.168954 
L 423.465468 259.576073 
L 425.298596 259.643927 
L 426.215161 258.965394 
L 427.131725 258.829687 
L 428.048289 259.779633 
L 428.964853 259.847487 
L 429.881417 259.779633 
L 430.797981 259.50822 
L 431.714545 259.779633 
L 431.714545 259.779633 
" style="fill:none;stroke:#d62728;stroke-linecap:square;stroke-width:1.5;"/>
   </g>
   <g id="patch_3">
    <path d="M 47.72 303.64 
L 47.72 26.88 
" style="fill:none;stroke:#000000;stroke-linecap:square;stroke-linejoin:miter;stroke-width:0.8;"/>
   </g>
   <g id="patch_4">
    <path d="M 450 303.64 
L 450 26.88 
" style="fill:none;stroke:#000000;stroke-linecap:square;stroke-linejoin:miter;stroke-width:0.8;"/>
   </g>
   <g id="patch_5">
    <path d="M 47.72 303.64 
L 450 303.64 
" style="fill:none;stroke:#000000;stroke-linecap:square;stroke-linejoin:miter;stroke-width:0.8;"/>
   </g>
   <g id="patch_6">
    <path d="M 47.72 26.88 
L 450 26.88 
" style="fill:none;stroke:#000000;stroke-linecap:square;stroke-linejoin:miter;stroke-width:0.8;"/>
   </g>
   <g id="text_17">
    <!-- AdaBoost with stumps -->
    <g transform="translate(181.83625 20.88)scale(0.12 -0.12)">
     <defs>
      <path d="M 2188 4044 
L 1331 1722 
L 3047 1722 
L 2188 4044 
z
M 1831 4666 
L 2547 4666 
L 4325 0 
L 3669 0 
L 3244 1197 
L 1141 1197 
L 716 0 
L 50 0 
L 1831 4666 
z
" id="DejaVuSans-41" transform="scale(0.015625)"/>
      <path d="M 2906 2969 
L 2906 4863 
L 3481 4863 
L 3481 0 
L 2906 0 
L 2906 525 
Q 2725 213 2448 61 
Q 2172 -91 1784 -91 
Q 1150 -91 751 415 
Q 353 922 353 1747 
Q 353 2572 751 3078 
Q 1150 3584 1784 3584 
Q 2172 3584 2448 3432 
Q 2725 3281 2906 2969 
z
M 947 1747 
Q 947 1113 1208 752 
Q 1469 391 1925 391 
Q 2381 391 2643 752 
Q 2906 1113 2906 1747 
Q 2906 2381 2643 2742 
Q 2381 3103 1925 3103 
Q 1469 3103 1208 2742 
Q 947 2381 947 1747 
z
" id="DejaVuSans-64" transform="scale(0.015625)"/>
      <path d="M 269 3500 
L 844 3500 
L 1563 769 
L 2278 3500 
L 2956 3500 
L 3675 769 
L 4391 3500 
L 4966 3500 
L 4050 0 
L 3372 0 
L 2619 2869 
L 1863 0 
L 1184 0 
L 269 3500 
z
" id="DejaVuSans-77" transform="scale(0.015625)"/>
      <path d="M 3513 2113 
L 3513 0 
L 2938 0 
L 2938 2094 
Q 2938 2591 2744 2837 
Q 2550 3084 2163 3084 
Q 1697 3084 1428 2787 
Q 1159 2491 1159 1978 
L 1159 0 
L 581 0 
L 581 4863 
L 1159 4863 
L 1159 2956 
Q 1366 3272 1645 3428 
Q 1925 3584 2291 3584 
Q 2894 3584 3203 3211 
Q 3513 2838 3513 2113 
z
" id="DejaVuSans-68" transform="scale(0.015625)"/>
      <path d="M 544 1381 
L 544 3500 
L 1119 3500 
L 1119 1403 
Q 1119 906 1312 657 
Q 1506 409 1894 409 
Q 2359 409 2629 706 
Q 2900 1003 2900 1516 
L 2900 3500 
L 3475 3500 
L 3475 0 
L 2900 0 
L 2900 538 
Q 2691 219 2414 64 
Q 2138 -91 1772 -91 
Q 1169 -91 856 284 
Q 544 659 544 1381 
z
M 1991 3584 
L 1991 3584 
z
" id="DejaVuSans-75" transform="scale(0.015625)"/>
      <path d="M 3328 2828 
Q 3544 3216 3844 3400 
Q 4144 3584 4550 3584 
Q 5097 3584 5394 3201 
Q 5691 2819 5691 2113 
L 5691 0 
L 5113 0 
L 5113 2094 
Q 5113 2597 4934 2840 
Q 4756 3084 4391 3084 
Q 3944 3084 3684 2787 
Q 3425 2491 3425 1978 
L 3425 0 
L 2847 0 
L 2847 2094 
Q 2847 2600 2669 2842 
Q 2491 3084 2119 3084 
Q 1678 3084 1418 2786 
Q 1159 2488 1159 1978 
L 1159 0 
L 581 0 
L 581 3500 
L 1159 3500 
L 1159 2956 
Q 1356 3278 1631 3431 
Q 1906 3584 2284 3584 
Q 2666 3584 2933 3390 
Q 3200 3197 3328 2828 
z
" id="DejaVuSans-6d" transform="scale(0.015625)"/>
      <path d="M 1159 525 
L 1159 -1331 
L 581 -1331 
L 581 3500 
L 1159 3500 
L 1159 2969 
Q 1341 3281 1617 3432 
Q 1894 3584 2278 3584 
Q 2916 3584 3314 3078 
Q 3713 2572 3713 1747 
Q 3713 922 3314 415 
Q 2916 -91 2278 -91 
Q 1894 -91 1617 61 
Q 1341 213 1159 525 
z
M 3116 1747 
Q 3116 2381 2855 2742 
Q 2594 3103 2138 3103 
Q 1681 3103 1420 2742 
Q 1159 2381 1159 1747 
Q 1159 1113 1420 752 
Q 1681 391 2138 391 
Q 2594 391 2855 752 
Q 3116 1113 3116 1747 
z
" id="DejaVuSans-70" transform="scale(0.015625)"/>
     </defs>
     <use xlink:href="#DejaVuSans-41"/>
     <use x="66.658203" xlink:href="#DejaVuSans-64"/>
     <use x="130.134766" xlink:href="#DejaVuSans-61"/>
     <use x="191.414062" xlink:href="#DejaVuSans-42"/>
     <use x="260.017578" xlink:href="#DejaVuSans-6f"/>
     <use x="321.199219" xlink:href="#DejaVuSans-6f"/>
     <use x="382.380859" xlink:href="#DejaVuSans-73"/>
     <use x="434.480469" xlink:href="#DejaVuSans-74"/>
     <use x="473.689453" xlink:href="#DejaVuSans-20"/>
     <use x="505.476562" xlink:href="#DejaVuSans-77"/>
     <use x="587.263672" xlink:href="#DejaVuSans-69"/>
     <use x="615.046875" xlink:href="#DejaVuSans-74"/>
     <use x="654.255859" xlink:href="#DejaVuSans-68"/>
     <use x="717.634766" xlink:href="#DejaVuSans-20"/>
     <use x="749.421875" xlink:href="#DejaVuSans-73"/>
     <use x="801.521484" xlink:href="#DejaVuSans-74"/>
     <use x="840.730469" xlink:href="#DejaVuSans-75"/>
     <use x="904.109375" xlink:href="#DejaVuSans-6d"/>
     <use x="1001.521484" xlink:href="#DejaVuSans-70"/>
     <use x="1064.998047" xlink:href="#DejaVuSans-73"/>
    </g>
   </g>
   <g id="legend_1">
    <g id="patch_7">
     <path d="M 344.165625 64.23625 
L 443 64.23625 
Q 445 64.23625 445 62.23625 
L 445 33.88 
Q 445 31.88 443 31.88 
L 344.165625 31.88 
Q 342.165625 31.88 342.165625 33.88 
L 342.165625 62.23625 
Q 342.165625 64.23625 344.165625 64.23625 
z
" style="fill:#ffffff;opacity:0.8;stroke:#cccccc;stroke-linejoin:miter;"/>
    </g>
    <g id="line2d_17">
     <path d="M 346.165625 39.978437 
L 366.165625 39.978437 
" style="fill:none;stroke:#1f77b4;stroke-linecap:square;stroke-width:1.5;"/>
    </g>
    <g id="line2d_18"/>
    <g id="text_18">
     <!-- Training error -->
     <g transform="translate(374.165625 43.478437)scale(0.1 -0.1)">
      <defs>
       <path d="M -19 4666 
L 3928 4666 
L 3928 4134 
L 2272 4134 
L 2272 0 
L 1638 0 
L 1638 4134 
L -19 4134 
L -19 4666 
z
" id="DejaVuSans-54" transform="scale(0.015625)"/>
      </defs>
      <use xlink:href="#DejaVuSans-54"/>
      <use x="46.333984" xlink:href="#DejaVuSans-72"/>
      <use x="87.447266" xlink:href="#DejaVuSans-61"/>
      <use x="148.726562" xlink:href="#DejaVuSans-69"/>
      <use x="176.509766" xlink:href="#DejaVuSans-6e"/>
      <use x="239.888672" xlink:href="#DejaVuSans-69"/>
      <use x="267.671875" xlink:href="#DejaVuSans-6e"/>
      <use x="331.050781" xlink:href="#DejaVuSans-67"/>
      <use x="394.527344" xlink:href="#DejaVuSans-20"/>
      <use x="426.314453" xlink:href="#DejaVuSans-65"/>
      <use x="487.837891" xlink:href="#DejaVuSans-72"/>
      <use x="527.201172" xlink:href="#DejaVuSans-72"/>
      <use x="566.064453" xlink:href="#DejaVuSans-6f"/>
      <use x="627.246094" xlink:href="#DejaVuSans-72"/>
     </g>
    </g>
    <g id="line2d_19">
     <path d="M 346.165625 54.656563 
L 366.165625 54.656563 
" style="fill:none;stroke:#d62728;stroke-linecap:square;stroke-width:1.5;"/>
    </g>
    <g id="line2d_20"/>
    <g id="text_19">
     <!-- Test error -->
     <g transform="translate(374.165625 58.156563)scale(0.1 -0.1)">
      <use xlink:href="#DejaVuSans-54"/>
      <use x="44.083984" xlink:href="#DejaVuSans-65"/>
      <use x="105.607422" xlink:href="#DejaVuSans-73"/>
      <use x="157.707031" xlink:href="#DejaVuSans-74"/>
      <use x="196.916016" xlink:href="#DejaVuSans-20"/>
      <use x="228.703125" xlink:href="#DejaVuSans-65"/>
      <use x="290.226562" xlink:href="#DejaVuSans-72"/>
      <use x="329.589844" xlink:href="#DejaVuSans-72"/>
      <use x="368.453125" xlink:href="#DejaVuSans-6f"/>
      <use x="429.634766" xlink:href="#DejaVuSans-72"/>
     </g>
    </g>
   </g>
  </g>
 </g>
 <defs>
  <clipPath id="pee03d00484">
   <rect height="276.76" width="402.28" x="47.72" y="26.88"/>
  </clipPath>
 </defs>
</svg>
