<?xml version="1.0" encoding="UTF-8" standalone="no"?>
<!-- Created with Inkscape (http://www.inkscape.org/) -->

<svg
   xmlns:dc="http://purl.org/dc/elements/1.1/"
   xmlns:cc="http://creativecommons.org/ns#"
   xmlns:rdf="http://www.w3.org/1999/02/22-rdf-syntax-ns#"
   xmlns:svg="http://www.w3.org/2000/svg"
   xmlns="http://www.w3.org/2000/svg"
   xmlns:sodipodi="http://sodipodi.sourceforge.net/DTD/sodipodi-0.dtd"
   xmlns:inkscape="http://www.inkscape.org/namespaces/inkscape"
   width="734.263"
   height="689.87823"
   viewBox="0 0 194.27375 182.53029"
   version="1.1"
   id="svg8"
   inkscape:version="0.92.3 (2405546, 2018-03-11)"
   sodipodi:docname="cost-of-n-microservices.svg">
  <defs
     id="defs2">
    <marker
       inkscape:stockid="Arrow2Send"
       orient="auto"
       refY="0"
       refX="0"
       id="Arrow2Send"
       style="overflow:visible"
       inkscape:isstock="true">
      <path
         id="path850"
         style="fill:#000000;fill-opacity:1;fill-rule:evenodd;stroke:#000000;stroke-width:0.625;stroke-linejoin:round;stroke-opacity:1"
         d="M 8.7185878,4.0337352 -2.2072895,0.01601326 8.7185884,-4.0017078 c -1.7454984,2.3720609 -1.7354408,5.6174519 -6e-7,8.035443 z"
         transform="matrix(-0.3,0,0,-0.3,0.69,0)"
         inkscape:connector-curvature="0" />
    </marker>
    <marker
       inkscape:stockid="Arrow2Mend"
       orient="auto"
       refY="0"
       refX="0"
       id="Arrow2Mend"
       style="overflow:visible"
       inkscape:isstock="true">
      <path
         id="path844"
         style="fill:#000000;fill-opacity:1;fill-rule:evenodd;stroke:#000000;stroke-width:0.625;stroke-linejoin:round;stroke-opacity:1"
         d="M 8.7185878,4.0337352 -2.2072895,0.01601326 8.7185884,-4.0017078 c -1.7454984,2.3720609 -1.7354408,5.6174519 -6e-7,8.035443 z"
         transform="scale(-0.6)"
         inkscape:connector-curvature="0" />
    </marker>
    <marker
       inkscape:stockid="Arrow2Sstart"
       orient="auto"
       refY="0"
       refX="0"
       id="Arrow2Sstart"
       style="overflow:visible"
       inkscape:isstock="true">
      <path
         id="path847"
         style="fill:#000000;fill-opacity:1;fill-rule:evenodd;stroke:#000000;stroke-width:0.625;stroke-linejoin:round;stroke-opacity:1"
         d="M 8.7185878,4.0337352 -2.2072895,0.01601326 8.7185884,-4.0017078 c -1.7454984,2.3720609 -1.7354408,5.6174519 -6e-7,8.035443 z"
         transform="matrix(0.3,0,0,0.3,-0.69,0)"
         inkscape:connector-curvature="0" />
    </marker>
    <marker
       inkscape:stockid="Arrow1Lend"
       orient="auto"
       refY="0"
       refX="0"
       id="Arrow1Lend"
       style="overflow:visible"
       inkscape:isstock="true">
      <path
         id="path820"
         d="M 0,0 5,-5 -12.5,0 5,5 Z"
         style="fill:#000000;fill-opacity:1;fill-rule:evenodd;stroke:#000000;stroke-width:1.00000003pt;stroke-opacity:1"
         transform="matrix(-0.8,0,0,-0.8,-10,0)"
         inkscape:connector-curvature="0" />
    </marker>
    <marker
       inkscape:stockid="Arrow1Lstart"
       orient="auto"
       refY="0"
       refX="0"
       id="Arrow1Lstart"
       style="overflow:visible"
       inkscape:isstock="true">
      <path
         id="path817"
         d="M 0,0 5,-5 -12.5,0 5,5 Z"
         style="fill:#000000;fill-opacity:1;fill-rule:evenodd;stroke:#000000;stroke-width:1.00000003pt;stroke-opacity:1"
         transform="matrix(0.8,0,0,0.8,10,0)"
         inkscape:connector-curvature="0" />
    </marker>
  </defs>
  <sodipodi:namedview
     id="base"
     pagecolor="#ffffff"
     bordercolor="#666666"
     borderopacity="1.0"
     inkscape:pageopacity="0.0"
     inkscape:pageshadow="2"
     inkscape:zoom="0.49120459"
     inkscape:cx="-28.328166"
     inkscape:cy="152.62463"
     inkscape:document-units="mm"
     inkscape:current-layer="layer1"
     showgrid="false"
     units="px"
     fit-margin-top="10"
     fit-margin-left="10"
     fit-margin-right="10"
     fit-margin-bottom="10"
     inkscape:window-width="1535"
     inkscape:window-height="876"
     inkscape:window-x="65"
     inkscape:window-y="24"
     inkscape:window-maximized="1" />
  <metadata
     id="metadata5">
    <rdf:RDF>
      <cc:Work
         rdf:about="">
        <dc:format>image/svg+xml</dc:format>
        <dc:type
           rdf:resource="http://purl.org/dc/dcmitype/StillImage" />
        <dc:title />
      </cc:Work>
    </rdf:RDF>
  </metadata>
  <g
     inkscape:label="Layer 1"
     inkscape:groupmode="layer"
     id="layer1"
     transform="translate(-17.308122,-28.985562)">
    <path
       style="fill:none;fill-rule:evenodd;stroke:#000000;stroke-width:2.64583325;stroke-linecap:butt;stroke-linejoin:miter;stroke-miterlimit:4;stroke-dasharray:none;stroke-opacity:1;marker-start:url(#Arrow2Sstart);marker-end:url(#Arrow2Send)"
       d="M 23.407116,47.980579 V 192.37435 H 184.41512"
       id="path815"
       inkscape:connector-curvature="0" />
    <path
       style="fill:none;fill-rule:evenodd;stroke:#fb0f00;stroke-width:1.32291663;stroke-linecap:butt;stroke-linejoin:miter;stroke-miterlimit:4;stroke-dasharray:none;stroke-opacity:1"
       d="m 37.337677,69.255945 c 0,0 -0.520199,112.636815 131.535713,112.636815"
       id="path1683"
       inkscape:connector-curvature="0"
       sodipodi:nodetypes="cc" />
    <path
       style="fill:none;fill-rule:evenodd;stroke:#3900f3;stroke-width:1.32291663;stroke-linecap:butt;stroke-linejoin:miter;stroke-miterlimit:4;stroke-dasharray:none;stroke-opacity:1"
       d="m 168.35318,69.255949 c 0,0 0.52021,112.636811 -131.535702,112.636811"
       id="path1683-3"
       inkscape:connector-curvature="0"
       sodipodi:nodetypes="cc" />
    <g
       aria-label="n services"
       transform="matrix(0.77283134,0,0,0.77283134,49.464335,152.21635)"
       style="color:#000000;line-height:125%;letter-spacing:0px;word-spacing:0px;clip-rule:nonzero;display:inline;overflow:visible;visibility:visible;opacity:1;isolation:auto;mix-blend-mode:normal;color-interpolation:sRGB;color-interpolation-filters:linearRGB;solid-color:#000000;solid-opacity:1;fill:#000000;fill-opacity:1;fill-rule:nonzero;stroke:none;stroke-width:0.34235585px;stroke-linecap:butt;stroke-linejoin:miter;stroke-miterlimit:4;stroke-dasharray:none;stroke-dashoffset:0;stroke-opacity:1;color-rendering:auto;image-rendering:auto;shape-rendering:auto;text-rendering:auto;enable-background:accumulate"
       id="flowRoot1700">
      <path
         d="m 123.72852,69.175781 v 3.960938 h -1.07813 v -3.925782 q 0,-0.93164 -0.36328,-1.394531 -0.36328,-0.46289 -1.08984,-0.46289 -0.87305,0 -1.37696,0.55664 -0.5039,0.556641 -0.5039,1.517578 v 3.708985 h -1.08399 v -6.5625 h 1.08399 v 1.019531 q 0.38672,-0.591797 0.9082,-0.884766 0.52734,-0.292968 1.21289,-0.292968 1.13086,0 1.71094,0.703125 0.58008,0.697265 0.58008,2.05664 z"
         style="fill:#000000;fill-opacity:1;stroke-width:0.34235585px"
         id="path3045" />
      <path
         d="m 133.89453,66.767578 v 1.019531 q -0.45703,-0.234375 -0.94922,-0.351562 -0.49219,-0.117188 -1.01953,-0.117188 -0.80273,0 -1.20703,0.246094 -0.39844,0.246094 -0.39844,0.738281 0,0.375 0.28711,0.591797 0.28711,0.210938 1.1543,0.404297 l 0.36914,0.08203 q 1.14844,0.246094 1.62891,0.697266 0.48632,0.445312 0.48632,1.248047 0,0.914062 -0.72656,1.447265 -0.7207,0.533204 -1.98633,0.533204 -0.52734,0 -1.10156,-0.105469 -0.56836,-0.09961 -1.20117,-0.304688 v -1.113281 q 0.59765,0.310547 1.17773,0.46875 0.58008,0.152344 1.14844,0.152344 0.76172,0 1.17188,-0.257813 0.41015,-0.263672 0.41015,-0.738281 0,-0.439453 -0.29883,-0.673828 Q 132.54687,70.5 131.54492,70.283203 l -0.375,-0.08789 q -1.00195,-0.210937 -1.44726,-0.644531 -0.44532,-0.439453 -0.44532,-1.201172 0,-0.925781 0.65625,-1.429687 0.65625,-0.503906 1.86328,-0.503906 0.59766,0 1.125,0.08789 0.52735,0.08789 0.97266,0.263672 z"
         style="fill:#000000;fill-opacity:1;stroke-width:0.34235585px"
         id="path3047" />
      <path
         d="m 141.58203,69.585937 v 0.527344 H 136.625 q 0.0703,1.113281 0.66797,1.699219 0.60351,0.580078 1.67578,0.580078 0.62109,0 1.20117,-0.152344 0.58594,-0.152343 1.16016,-0.457031 v 1.019531 q -0.58008,0.246094 -1.18946,0.375 -0.60937,0.128907 -1.23632,0.128907 -1.57032,0 -2.49024,-0.914063 Q 135.5,71.478516 135.5,69.919922 q 0,-1.611328 0.86719,-2.554688 0.87304,-0.949218 2.34961,-0.949218 1.32422,0 2.09179,0.855468 0.77344,0.84961 0.77344,2.314453 z m -1.07812,-0.316406 q -0.0117,-0.884765 -0.49805,-1.412109 -0.48047,-0.527344 -1.27734,-0.527344 -0.90235,0 -1.44727,0.509766 -0.53906,0.509765 -0.62109,1.435547 z"
         style="fill:#000000;fill-opacity:1;stroke-width:0.34235585px"
         id="path3049" />
      <path
         d="m 147.1543,67.582031 q -0.18164,-0.105469 -0.39844,-0.152344 -0.21094,-0.05273 -0.46875,-0.05273 -0.91406,0 -1.40625,0.597656 -0.48633,0.591797 -0.48633,1.705078 v 3.457032 h -1.08398 v -6.5625 h 1.08398 v 1.019531 q 0.33984,-0.597656 0.88477,-0.884766 0.54492,-0.292968 1.32422,-0.292968 0.11132,0 0.24609,0.01758 0.13476,0.01172 0.29883,0.04102 z"
         style="fill:#000000;fill-opacity:1;stroke-width:0.34235585px"
         id="path3051" />
      <path
         d="m 147.52344,66.574219 h 1.14258 l 2.05078,5.507812 2.05078,-5.507812 h 1.14258 l -2.46094,6.5625 h -1.46485 z"
         style="fill:#000000;fill-opacity:1;stroke-width:0.34235585px"
         id="path3053" />
      <path
         d="m 155.39844,66.574219 h 1.07812 v 6.5625 h -1.07812 z m 0,-2.554688 h 1.07812 v 1.365235 h -1.07812 z"
         style="fill:#000000;fill-opacity:1;stroke-width:0.34235585px"
         id="path3055" />
      <path
         d="m 163.44922,66.826172 v 1.007812 q -0.45703,-0.251953 -0.91992,-0.375 -0.45703,-0.128906 -0.92578,-0.128906 -1.04883,0 -1.62891,0.667969 -0.58008,0.662109 -0.58008,1.863281 0,1.201172 0.58008,1.869141 0.58008,0.662109 1.62891,0.662109 0.46875,0 0.92578,-0.123047 0.46289,-0.128906 0.91992,-0.380859 v 0.996094 q -0.45117,0.210937 -0.9375,0.316406 -0.48047,0.105469 -1.02539,0.105469 -1.48242,0 -2.35547,-0.931641 -0.87305,-0.931641 -0.87305,-2.513672 0,-1.605469 0.87891,-2.525391 0.88476,-0.919921 2.41992,-0.919921 0.49805,0 0.97266,0.105468 0.47461,0.09961 0.91992,0.304688 z"
         style="fill:#000000;fill-opacity:1;stroke-width:0.34235585px"
         id="path3057" />
      <path
         d="m 170.94922,69.585937 v 0.527344 h -4.95703 q 0.0703,1.113281 0.66797,1.699219 0.60351,0.580078 1.67578,0.580078 0.62109,0 1.20117,-0.152344 0.58594,-0.152343 1.16016,-0.457031 v 1.019531 q -0.58008,0.246094 -1.18946,0.375 -0.60937,0.128907 -1.23633,0.128907 -1.57031,0 -2.49023,-0.914063 -0.91406,-0.914062 -0.91406,-2.472656 0,-1.611328 0.86718,-2.554688 0.87305,-0.949218 2.34961,-0.949218 1.32422,0 2.0918,0.855468 0.77344,0.84961 0.77344,2.314453 z m -1.07813,-0.316406 q -0.0117,-0.884765 -0.49804,-1.412109 -0.48047,-0.527344 -1.27735,-0.527344 -0.90234,0 -1.44726,0.509766 -0.53907,0.509765 -0.6211,1.435547 z"
         style="fill:#000000;fill-opacity:1;stroke-width:0.34235585px"
         id="path3059" />
      <path
         d="m 176.90234,66.767578 v 1.019531 q -0.45703,-0.234375 -0.94922,-0.351562 -0.49218,-0.117188 -1.01953,-0.117188 -0.80273,0 -1.20703,0.246094 -0.39844,0.246094 -0.39844,0.738281 0,0.375 0.28711,0.591797 0.28711,0.210938 1.1543,0.404297 l 0.36914,0.08203 q 1.14844,0.246094 1.62891,0.697266 0.48633,0.445312 0.48633,1.248047 0,0.914062 -0.72657,1.447265 -0.7207,0.533204 -1.98632,0.533204 -0.52735,0 -1.10157,-0.105469 -0.56836,-0.09961 -1.20117,-0.304688 v -1.113281 q 0.59766,0.310547 1.17774,0.46875 0.58007,0.152344 1.14843,0.152344 0.76172,0 1.17188,-0.257813 0.41015,-0.263672 0.41015,-0.738281 0,-0.439453 -0.29882,-0.673828 Q 175.55469,70.5 174.55273,70.283203 l -0.375,-0.08789 q -1.00195,-0.210937 -1.44726,-0.644531 -0.44531,-0.439453 -0.44531,-1.201172 0,-0.925781 0.65625,-1.429687 0.65625,-0.503906 1.86328,-0.503906 0.59765,0 1.125,0.08789 0.52734,0.08789 0.97265,0.263672 z"
         style="fill:#000000;fill-opacity:1;stroke-width:0.34235585px"
         id="path3061" />
    </g>
    <g
       aria-label="Cost of maintenance (2^n)
"
       transform="matrix(0.77283133,0,0,0.77283133,-6.8257879,7.4712578)"
       style="color:#000000;line-height:125%;letter-spacing:0px;word-spacing:0px;clip-rule:nonzero;display:inline;overflow:visible;visibility:visible;opacity:1;isolation:auto;mix-blend-mode:normal;color-interpolation:sRGB;color-interpolation-filters:linearRGB;solid-color:#000000;solid-opacity:1;fill:#3900f3;fill-opacity:1;fill-rule:nonzero;stroke:none;stroke-width:0.34235585px;stroke-linecap:butt;stroke-linejoin:miter;stroke-miterlimit:4;stroke-dasharray:none;stroke-dashoffset:0;stroke-opacity:1;color-rendering:auto;image-rendering:auto;shape-rendering:auto;text-rendering:auto;enable-background:accumulate"
       id="flowRoot1700-8">
      <path
         d="m 124.87109,65.0625 v 1.248047 q -0.59765,-0.556641 -1.27734,-0.832031 -0.67383,-0.275391 -1.43555,-0.275391 -1.5,0 -2.29687,0.919922 -0.79688,0.914062 -0.79688,2.648437 0,1.728516 0.79688,2.648438 0.79687,0.914062 2.29687,0.914062 0.76172,0 1.43555,-0.27539 0.67969,-0.275391 1.27734,-0.832032 v 1.236329 q -0.62109,0.421875 -1.31836,0.632812 -0.6914,0.210938 -1.46484,0.210938 -1.98633,0 -3.12891,-1.212891 -1.14257,-1.21875 -1.14257,-3.322266 0,-2.109375 1.14257,-3.322265 1.14258,-1.21875 3.12891,-1.21875 0.78516,0 1.47656,0.210937 0.69727,0.205078 1.30664,0.621094 z"
         style="fill:#3900f3;fill-opacity:1;stroke-width:0.34235585px"
         id="path3097" />
      <path
         d="m 129.20703,67.330078 q -0.86719,0 -1.37109,0.679688 -0.50391,0.673828 -0.50391,1.851562 0,1.177734 0.49805,1.857422 0.5039,0.673828 1.37695,0.673828 0.86133,0 1.36524,-0.679687 0.5039,-0.679688 0.5039,-1.851563 0,-1.166016 -0.5039,-1.845703 -0.50391,-0.685547 -1.36524,-0.685547 z m 0,-0.914062 q 1.40625,0 2.20899,0.914062 0.80273,0.914063 0.80273,2.53125 0,1.611328 -0.80273,2.53125 -0.80274,0.914063 -2.20899,0.914063 -1.41211,0 -2.21484,-0.914063 -0.79688,-0.919922 -0.79688,-2.53125 0,-1.617187 0.79688,-2.53125 0.80273,-0.914062 2.21484,-0.914062 z"
         style="fill:#3900f3;fill-opacity:1;stroke-width:0.34235585px"
         id="path3099" />
      <path
         d="m 138.18359,66.767578 v 1.019531 q -0.45703,-0.234375 -0.94922,-0.351562 -0.49218,-0.117188 -1.01953,-0.117188 -0.80273,0 -1.20703,0.246094 -0.39844,0.246094 -0.39844,0.738281 0,0.375 0.28711,0.591797 0.28711,0.210938 1.1543,0.404297 l 0.36914,0.08203 q 1.14844,0.246094 1.62891,0.697266 0.48633,0.445312 0.48633,1.248047 0,0.914062 -0.72657,1.447265 -0.7207,0.533204 -1.98632,0.533204 -0.52735,0 -1.10157,-0.105469 -0.56836,-0.09961 -1.20117,-0.304688 v -1.113281 q 0.59766,0.310547 1.17774,0.46875 0.58007,0.152344 1.14843,0.152344 0.76172,0 1.17188,-0.257813 0.41015,-0.263672 0.41015,-0.738281 0,-0.439453 -0.29882,-0.673828 Q 136.83594,70.5 135.83398,70.283203 l -0.375,-0.08789 q -1.00195,-0.210937 -1.44726,-0.644531 -0.44531,-0.439453 -0.44531,-1.201172 0,-0.925781 0.65625,-1.429687 0.65625,-0.503906 1.86328,-0.503906 0.59765,0 1.125,0.08789 0.52734,0.08789 0.97265,0.263672 z"
         style="fill:#3900f3;fill-opacity:1;stroke-width:0.34235585px"
         id="path3101" />
      <path
         d="m 141.32422,64.710937 v 1.863282 h 2.2207 v 0.83789 h -2.2207 v 3.5625 q 0,0.802735 0.2168,1.03125 0.22265,0.228516 0.89648,0.228516 h 1.10742 v 0.902344 h -1.10742 q -1.24805,0 -1.72266,-0.462891 -0.47461,-0.46875 -0.47461,-1.699219 v -3.5625 h -0.79101 v -0.83789 h 0.79101 v -1.863282 z"
         style="fill:#3900f3;fill-opacity:1;stroke-width:0.34235585px"
         id="path3103" />
      <path
         d="m 151.33203,67.330078 q -0.86719,0 -1.37109,0.679688 -0.50391,0.673828 -0.50391,1.851562 0,1.177734 0.49805,1.857422 0.5039,0.673828 1.37695,0.673828 0.86133,0 1.36524,-0.679687 0.5039,-0.679688 0.5039,-1.851563 0,-1.166016 -0.5039,-1.845703 -0.50391,-0.685547 -1.36524,-0.685547 z m 0,-0.914062 q 1.40625,0 2.20899,0.914062 0.80273,0.914063 0.80273,2.53125 0,1.611328 -0.80273,2.53125 -0.80274,0.914063 -2.20899,0.914063 -1.41211,0 -2.21484,-0.914063 -0.79688,-0.919922 -0.79688,-2.53125 0,-1.617187 0.79688,-2.53125 0.80273,-0.914062 2.21484,-0.914062 z"
         style="fill:#3900f3;fill-opacity:1;stroke-width:0.34235585px"
         id="path3105" />
      <path
         d="m 159.44727,64.019531 v 0.896485 h -1.03125 q -0.58008,0 -0.8086,0.234375 -0.22265,0.234375 -0.22265,0.84375 v 0.580078 h 1.77539 v 0.83789 h -1.77539 v 5.72461 h -1.08399 v -5.72461 h -1.03125 v -0.83789 h 1.03125 v -0.457032 q 0,-1.095703 0.50977,-1.59375 0.50976,-0.503906 1.61718,-0.503906 z"
         style="fill:#3900f3;fill-opacity:1;stroke-width:0.34235585px"
         id="path3107" />
      <path
         d="m 169.27344,67.833984 q 0.40429,-0.726562 0.96679,-1.072265 0.5625,-0.345703 1.32422,-0.345703 1.02539,0 1.58203,0.720703 0.55664,0.714843 0.55664,2.039062 v 3.960938 h -1.08398 v -3.925782 q 0,-0.943359 -0.33398,-1.40039 -0.33399,-0.457031 -1.01954,-0.457031 -0.83789,0 -1.32421,0.55664 -0.48633,0.556641 -0.48633,1.517578 v 3.708985 h -1.08399 v -3.925782 q 0,-0.949218 -0.33398,-1.40039 -0.33399,-0.457031 -1.03125,-0.457031 -0.82617,0 -1.3125,0.5625 -0.48633,0.55664 -0.48633,1.511718 v 3.708985 h -1.08398 v -6.5625 h 1.08398 v 1.019531 q 0.36914,-0.603516 0.88477,-0.890625 0.51562,-0.287109 1.22461,-0.287109 0.71484,0 1.21289,0.363281 0.5039,0.363281 0.74414,1.054687 z"
         style="fill:#3900f3;fill-opacity:1;stroke-width:0.34235585px"
         id="path3109" />
      <path
         d="m 178.8418,69.837891 q -1.30664,0 -1.81055,0.298828 -0.50391,0.298828 -0.50391,1.019531 0,0.574219 0.375,0.914062 0.38086,0.333985 1.03125,0.333985 0.89649,0 1.43555,-0.632813 0.54492,-0.638672 0.54492,-1.693359 v -0.240234 z m 2.15039,-0.445313 v 3.744141 h -1.07813 v -0.996094 q -0.36914,0.597656 -0.91992,0.884766 -0.55078,0.28125 -1.34766,0.28125 -1.00781,0 -1.60546,-0.5625 -0.5918,-0.56836 -0.5918,-1.517579 0,-1.107421 0.73828,-1.669921 0.74414,-0.5625 2.21484,-0.5625 h 1.51172 v -0.105469 q 0,-0.744141 -0.49219,-1.148438 -0.48632,-0.410156 -1.37109,-0.410156 -0.5625,0 -1.0957,0.134766 -0.53321,0.134765 -1.02539,0.404297 v -0.996094 q 0.59179,-0.228516 1.14843,-0.339844 0.55665,-0.117187 1.08399,-0.117187 1.42383,0 2.12695,0.738281 0.70313,0.738281 0.70313,2.238281 z"
         style="fill:#3900f3;fill-opacity:1;stroke-width:0.34235585px"
         id="path3111" />
      <path
         d="m 183.21875,66.574219 h 1.07812 v 6.5625 h -1.07812 z m 0,-2.554688 h 1.07812 v 1.365235 h -1.07812 z"
         style="fill:#3900f3;fill-opacity:1;stroke-width:0.34235585px"
         id="path3113" />
      <path
         d="m 192.00195,69.175781 v 3.960938 h -1.07812 v -3.925782 q 0,-0.93164 -0.36328,-1.394531 -0.36328,-0.46289 -1.08985,-0.46289 -0.87304,0 -1.37695,0.55664 -0.50391,0.556641 -0.50391,1.517578 v 3.708985 h -1.08398 v -6.5625 h 1.08398 v 1.019531 q 0.38672,-0.591797 0.90821,-0.884766 0.52734,-0.292968 1.21289,-0.292968 1.13086,0 1.71093,0.703125 0.58008,0.697265 0.58008,2.05664 z"
         style="fill:#3900f3;fill-opacity:1;stroke-width:0.34235585px"
         id="path3115" />
      <path
         d="m 195.23047,64.710937 v 1.863282 h 2.2207 v 0.83789 h -2.2207 v 3.5625 q 0,0.802735 0.2168,1.03125 0.22265,0.228516 0.89648,0.228516 h 1.10742 v 0.902344 h -1.10742 q -1.24805,0 -1.72266,-0.462891 -0.47461,-0.46875 -0.47461,-1.699219 v -3.5625 h -0.79101 v -0.83789 h 0.79101 v -1.863282 z"
         style="fill:#3900f3;fill-opacity:1;stroke-width:0.34235585px"
         id="path3117" />
      <path
         d="m 204.48828,69.585937 v 0.527344 h -4.95703 q 0.0703,1.113281 0.66797,1.699219 0.60351,0.580078 1.67578,0.580078 0.62109,0 1.20117,-0.152344 0.58594,-0.152343 1.16016,-0.457031 v 1.019531 q -0.58008,0.246094 -1.18946,0.375 -0.60937,0.128907 -1.23632,0.128907 -1.57032,0 -2.49024,-0.914063 -0.91406,-0.914062 -0.91406,-2.472656 0,-1.611328 0.86719,-2.554688 0.87304,-0.949218 2.34961,-0.949218 1.32422,0 2.09179,0.855468 0.77344,0.84961 0.77344,2.314453 z m -1.07812,-0.316406 q -0.0117,-0.884765 -0.49805,-1.412109 -0.48047,-0.527344 -1.27734,-0.527344 -0.90235,0 -1.44727,0.509766 -0.53906,0.509765 -0.62109,1.435547 z"
         style="fill:#3900f3;fill-opacity:1;stroke-width:0.34235585px"
         id="path3119" />
      <path
         d="m 211.71289,69.175781 v 3.960938 h -1.07812 v -3.925782 q 0,-0.93164 -0.36329,-1.394531 -0.36328,-0.46289 -1.08984,-0.46289 -0.87305,0 -1.37695,0.55664 -0.50391,0.556641 -0.50391,1.517578 v 3.708985 h -1.08398 v -6.5625 h 1.08398 v 1.019531 q 0.38672,-0.591797 0.9082,-0.884766 0.52735,-0.292968 1.21289,-0.292968 1.13086,0 1.71094,0.703125 0.58008,0.697265 0.58008,2.05664 z"
         style="fill:#3900f3;fill-opacity:1;stroke-width:0.34235585px"
         id="path3121" />
      <path
         d="m 216.85742,69.837891 q -1.30664,0 -1.81055,0.298828 -0.5039,0.298828 -0.5039,1.019531 0,0.574219 0.375,0.914062 0.38086,0.333985 1.03125,0.333985 0.89648,0 1.43555,-0.632813 0.54492,-0.638672 0.54492,-1.693359 v -0.240234 z m 2.15039,-0.445313 v 3.744141 h -1.07812 v -0.996094 q -0.36914,0.597656 -0.91992,0.884766 -0.55079,0.28125 -1.34766,0.28125 -1.00781,0 -1.60547,-0.5625 -0.5918,-0.56836 -0.5918,-1.517579 0,-1.107421 0.73828,-1.669921 0.74415,-0.5625 2.21485,-0.5625 h 1.51172 v -0.105469 q 0,-0.744141 -0.49219,-1.148438 -0.48633,-0.410156 -1.37109,-0.410156 -0.5625,0 -1.09571,0.134766 -0.5332,0.134765 -1.02539,0.404297 v -0.996094 q 0.5918,-0.228516 1.14844,-0.339844 0.55664,-0.117187 1.08398,-0.117187 1.42383,0 2.12696,0.738281 0.70312,0.738281 0.70312,2.238281 z"
         style="fill:#3900f3;fill-opacity:1;stroke-width:0.34235585px"
         id="path3123" />
      <path
         d="m 226.68945,69.175781 v 3.960938 h -1.07812 v -3.925782 q 0,-0.93164 -0.36328,-1.394531 -0.36328,-0.46289 -1.08985,-0.46289 -0.87304,0 -1.37695,0.55664 -0.50391,0.556641 -0.50391,1.517578 v 3.708985 h -1.08398 v -6.5625 h 1.08398 v 1.019531 q 0.38672,-0.591797 0.90821,-0.884766 0.52734,-0.292968 1.21289,-0.292968 1.13086,0 1.71093,0.703125 0.58008,0.697265 0.58008,2.05664 z"
         style="fill:#3900f3;fill-opacity:1;stroke-width:0.34235585px"
         id="path3125" />
      <path
         d="m 233.57422,66.826172 v 1.007812 q -0.45703,-0.251953 -0.91992,-0.375 -0.45703,-0.128906 -0.92578,-0.128906 -1.04883,0 -1.62891,0.667969 -0.58008,0.662109 -0.58008,1.863281 0,1.201172 0.58008,1.869141 0.58008,0.662109 1.62891,0.662109 0.46875,0 0.92578,-0.123047 0.46289,-0.128906 0.91992,-0.380859 v 0.996094 q -0.45117,0.210937 -0.9375,0.316406 -0.48047,0.105469 -1.02539,0.105469 -1.48242,0 -2.35547,-0.931641 -0.87305,-0.931641 -0.87305,-2.513672 0,-1.605469 0.87891,-2.525391 0.88476,-0.919921 2.41992,-0.919921 0.49805,0 0.97266,0.105468 0.47461,0.09961 0.91992,0.304688 z"
         style="fill:#3900f3;fill-opacity:1;stroke-width:0.34235585px"
         id="path3127" />
      <path
         d="m 241.07422,69.585937 v 0.527344 h -4.95703 q 0.0703,1.113281 0.66797,1.699219 0.60351,0.580078 1.67578,0.580078 0.62109,0 1.20117,-0.152344 0.58594,-0.152343 1.16016,-0.457031 v 1.019531 q -0.58008,0.246094 -1.18946,0.375 -0.60937,0.128907 -1.23633,0.128907 -1.57031,0 -2.49023,-0.914063 -0.91406,-0.914062 -0.91406,-2.472656 0,-1.611328 0.86718,-2.554688 0.87305,-0.949218 2.34961,-0.949218 1.32422,0 2.0918,0.855468 0.77344,0.84961 0.77344,2.314453 z m -1.07813,-0.316406 q -0.0117,-0.884765 -0.49804,-1.412109 -0.48047,-0.527344 -1.27735,-0.527344 -0.90234,0 -1.44726,0.509766 -0.53907,0.509765 -0.6211,1.435547 z"
         style="fill:#3900f3;fill-opacity:1;stroke-width:0.34235585px"
         id="path3129" />
      <path
         d="m 249.25391,64.03125 q -0.78516,1.347656 -1.16602,2.666016 -0.38086,1.318359 -0.38086,2.671875 0,1.353515 0.38086,2.683593 0.38672,1.324219 1.16602,2.666016 h -0.9375 q -0.87891,-1.376953 -1.31836,-2.707031 -0.4336,-1.330078 -0.4336,-2.642578 0,-1.306641 0.4336,-2.63086 0.43359,-1.324219 1.31836,-2.707031 z"
         style="fill:#3900f3;fill-opacity:1;stroke-width:0.34235585px"
         id="path3131" />
      <path
         d="m 252.52344,72.140625 h 4.13086 v 0.996094 h -5.55469 v -0.996094 q 0.67383,-0.697266 1.83398,-1.869141 1.16602,-1.177734 1.46485,-1.517578 0.56836,-0.638672 0.79101,-1.078125 0.22852,-0.445312 0.22852,-0.873047 0,-0.697265 -0.49219,-1.136718 -0.48633,-0.439454 -1.27148,-0.439454 -0.55664,0 -1.17774,0.19336 -0.61523,0.193359 -1.31836,0.585937 v -1.195312 q 0.71485,-0.28711 1.33594,-0.433594 0.62109,-0.146484 1.13672,-0.146484 1.35937,0 2.16797,0.679687 0.80859,0.679688 0.80859,1.816406 0,0.539063 -0.20508,1.025391 -0.19922,0.480469 -0.73242,1.136719 -0.14648,0.169922 -0.93164,0.984375 -0.78516,0.808594 -2.21484,2.267578 z"
         style="fill:#3900f3;fill-opacity:1;stroke-width:0.34235585px"
         id="path3133" />
      <path
         d="m 263.46289,64.388672 3.18164,3.263672 h -1.17773 l -2.57813,-2.314453 -2.57812,2.314453 h -1.17774 l 3.18164,-3.263672 z"
         style="fill:#3900f3;fill-opacity:1;stroke-width:0.34235585px"
         id="path3135" />
      <path
         d="m 274.50195,69.175781 v 3.960938 h -1.07812 v -3.925782 q 0,-0.93164 -0.36328,-1.394531 -0.36328,-0.46289 -1.08985,-0.46289 -0.87304,0 -1.37695,0.55664 -0.50391,0.556641 -0.50391,1.517578 v 3.708985 h -1.08398 v -6.5625 h 1.08398 v 1.019531 q 0.38672,-0.591797 0.90821,-0.884766 0.52734,-0.292968 1.21289,-0.292968 1.13086,0 1.71093,0.703125 0.58008,0.697265 0.58008,2.05664 z"
         style="fill:#3900f3;fill-opacity:1;stroke-width:0.34235585px"
         id="path3137" />
      <path
         d="m 276.49414,64.03125 h 0.9375 q 0.87891,1.382812 1.3125,2.707031 0.43945,1.324219 0.43945,2.63086 0,1.3125 -0.43945,2.642578 -0.43359,1.330078 -1.3125,2.707031 h -0.9375 q 0.7793,-1.341797 1.16016,-2.666016 0.38672,-1.330078 0.38672,-2.683593 0,-1.353516 -0.38672,-2.671875 -0.38086,-1.31836 -1.16016,-2.666016 z"
         style="fill:#3900f3;fill-opacity:1;stroke-width:0.34235585px"
         id="path3139" />
    </g>
    <g
       aria-label="Cost of new feature
"
       transform="matrix(0.77283133,0,0,0.77283133,-50.455774,30.094214)"
       style="color:#000000;line-height:125%;letter-spacing:0px;word-spacing:0px;clip-rule:nonzero;display:inline;overflow:visible;visibility:visible;opacity:1;isolation:auto;mix-blend-mode:normal;color-interpolation:sRGB;color-interpolation-filters:linearRGB;solid-color:#000000;solid-opacity:1;fill:#fb0f00;fill-opacity:0.99607843;fill-rule:nonzero;stroke:none;stroke-width:0.34235585px;stroke-linecap:butt;stroke-linejoin:miter;stroke-miterlimit:4;stroke-dasharray:none;stroke-dashoffset:0;stroke-opacity:1;color-rendering:auto;image-rendering:auto;shape-rendering:auto;text-rendering:auto;enable-background:accumulate"
       id="flowRoot1700-3">
      <path
         d="m 124.87109,65.0625 v 1.248047 q -0.59765,-0.556641 -1.27734,-0.832031 -0.67383,-0.275391 -1.43555,-0.275391 -1.5,0 -2.29687,0.919922 -0.79688,0.914062 -0.79688,2.648437 0,1.728516 0.79688,2.648438 0.79687,0.914062 2.29687,0.914062 0.76172,0 1.43555,-0.27539 0.67969,-0.275391 1.27734,-0.832032 v 1.236329 q -0.62109,0.421875 -1.31836,0.632812 -0.6914,0.210938 -1.46484,0.210938 -1.98633,0 -3.12891,-1.212891 -1.14257,-1.21875 -1.14257,-3.322266 0,-2.109375 1.14257,-3.322265 1.14258,-1.21875 3.12891,-1.21875 0.78516,0 1.47656,0.210937 0.69727,0.205078 1.30664,0.621094 z"
         style="fill:#fb0f00;fill-opacity:0.99607843;stroke-width:0.34235585px"
         id="path3064" />
      <path
         d="m 129.20703,67.330078 q -0.86719,0 -1.37109,0.679688 -0.50391,0.673828 -0.50391,1.851562 0,1.177734 0.49805,1.857422 0.5039,0.673828 1.37695,0.673828 0.86133,0 1.36524,-0.679687 0.5039,-0.679688 0.5039,-1.851563 0,-1.166016 -0.5039,-1.845703 -0.50391,-0.685547 -1.36524,-0.685547 z m 0,-0.914062 q 1.40625,0 2.20899,0.914062 0.80273,0.914063 0.80273,2.53125 0,1.611328 -0.80273,2.53125 -0.80274,0.914063 -2.20899,0.914063 -1.41211,0 -2.21484,-0.914063 -0.79688,-0.919922 -0.79688,-2.53125 0,-1.617187 0.79688,-2.53125 0.80273,-0.914062 2.21484,-0.914062 z"
         style="fill:#fb0f00;fill-opacity:0.99607843;stroke-width:0.34235585px"
         id="path3066" />
      <path
         d="m 138.18359,66.767578 v 1.019531 q -0.45703,-0.234375 -0.94922,-0.351562 -0.49218,-0.117188 -1.01953,-0.117188 -0.80273,0 -1.20703,0.246094 -0.39844,0.246094 -0.39844,0.738281 0,0.375 0.28711,0.591797 0.28711,0.210938 1.1543,0.404297 l 0.36914,0.08203 q 1.14844,0.246094 1.62891,0.697266 0.48633,0.445312 0.48633,1.248047 0,0.914062 -0.72657,1.447265 -0.7207,0.533204 -1.98632,0.533204 -0.52735,0 -1.10157,-0.105469 -0.56836,-0.09961 -1.20117,-0.304688 v -1.113281 q 0.59766,0.310547 1.17774,0.46875 0.58007,0.152344 1.14843,0.152344 0.76172,0 1.17188,-0.257813 0.41015,-0.263672 0.41015,-0.738281 0,-0.439453 -0.29882,-0.673828 Q 136.83594,70.5 135.83398,70.283203 l -0.375,-0.08789 q -1.00195,-0.210937 -1.44726,-0.644531 -0.44531,-0.439453 -0.44531,-1.201172 0,-0.925781 0.65625,-1.429687 0.65625,-0.503906 1.86328,-0.503906 0.59765,0 1.125,0.08789 0.52734,0.08789 0.97265,0.263672 z"
         style="fill:#fb0f00;fill-opacity:0.99607843;stroke-width:0.34235585px"
         id="path3068" />
      <path
         d="m 141.32422,64.710937 v 1.863282 h 2.2207 v 0.83789 h -2.2207 v 3.5625 q 0,0.802735 0.2168,1.03125 0.22265,0.228516 0.89648,0.228516 h 1.10742 v 0.902344 h -1.10742 q -1.24805,0 -1.72266,-0.462891 -0.47461,-0.46875 -0.47461,-1.699219 v -3.5625 h -0.79101 v -0.83789 h 0.79101 v -1.863282 z"
         style="fill:#fb0f00;fill-opacity:0.99607843;stroke-width:0.34235585px"
         id="path3070" />
      <path
         d="m 151.33203,67.330078 q -0.86719,0 -1.37109,0.679688 -0.50391,0.673828 -0.50391,1.851562 0,1.177734 0.49805,1.857422 0.5039,0.673828 1.37695,0.673828 0.86133,0 1.36524,-0.679687 0.5039,-0.679688 0.5039,-1.851563 0,-1.166016 -0.5039,-1.845703 -0.50391,-0.685547 -1.36524,-0.685547 z m 0,-0.914062 q 1.40625,0 2.20899,0.914062 0.80273,0.914063 0.80273,2.53125 0,1.611328 -0.80273,2.53125 -0.80274,0.914063 -2.20899,0.914063 -1.41211,0 -2.21484,-0.914063 -0.79688,-0.919922 -0.79688,-2.53125 0,-1.617187 0.79688,-2.53125 0.80273,-0.914062 2.21484,-0.914062 z"
         style="fill:#fb0f00;fill-opacity:0.99607843;stroke-width:0.34235585px"
         id="path3072" />
      <path
         d="m 159.44727,64.019531 v 0.896485 h -1.03125 q -0.58008,0 -0.8086,0.234375 -0.22265,0.234375 -0.22265,0.84375 v 0.580078 h 1.77539 v 0.83789 h -1.77539 v 5.72461 h -1.08399 v -5.72461 h -1.03125 v -0.83789 h 1.03125 v -0.457032 q 0,-1.095703 0.50977,-1.59375 0.50976,-0.503906 1.61718,-0.503906 z"
         style="fill:#fb0f00;fill-opacity:0.99607843;stroke-width:0.34235585px"
         id="path3074" />
      <path
         d="m 169.61914,69.175781 v 3.960938 h -1.07812 v -3.925782 q 0,-0.93164 -0.36329,-1.394531 -0.36328,-0.46289 -1.08984,-0.46289 -0.87305,0 -1.37695,0.55664 -0.50391,0.556641 -0.50391,1.517578 v 3.708985 h -1.08398 v -6.5625 h 1.08398 v 1.019531 q 0.38672,-0.591797 0.9082,-0.884766 0.52735,-0.292968 1.21289,-0.292968 1.13086,0 1.71094,0.703125 0.58008,0.697265 0.58008,2.05664 z"
         style="fill:#fb0f00;fill-opacity:0.99607843;stroke-width:0.34235585px"
         id="path3076" />
      <path
         d="m 177.39453,69.585937 v 0.527344 h -4.95703 q 0.0703,1.113281 0.66797,1.699219 0.60351,0.580078 1.67578,0.580078 0.62109,0 1.20117,-0.152344 0.58594,-0.152343 1.16016,-0.457031 v 1.019531 q -0.58008,0.246094 -1.18946,0.375 -0.60937,0.128907 -1.23632,0.128907 -1.57032,0 -2.49024,-0.914063 -0.91406,-0.914062 -0.91406,-2.472656 0,-1.611328 0.86719,-2.554688 0.87304,-0.949218 2.34961,-0.949218 1.32422,0 2.09179,0.855468 0.77344,0.84961 0.77344,2.314453 z m -1.07812,-0.316406 q -0.0117,-0.884765 -0.49805,-1.412109 -0.48047,-0.527344 -1.27734,-0.527344 -0.90235,0 -1.44727,0.509766 -0.53906,0.509765 -0.62109,1.435547 z"
         style="fill:#fb0f00;fill-opacity:0.99607843;stroke-width:0.34235585px"
         id="path3078" />
      <path
         d="m 178.53711,66.574219 h 1.07812 l 1.34766,5.121093 1.3418,-5.121093 h 1.27148 l 1.34766,5.121093 1.34179,-5.121093 h 1.07813 l -1.7168,6.5625 h -1.27148 l -1.41211,-5.378907 -1.41797,5.378907 h -1.27148 z"
         style="fill:#fb0f00;fill-opacity:0.99607843;stroke-width:0.34235585px"
         id="path3080" />
      <path
         d="m 196.12695,64.019531 v 0.896485 h -1.03125 q -0.58008,0 -0.80859,0.234375 -0.22266,0.234375 -0.22266,0.84375 v 0.580078 h 1.77539 v 0.83789 h -1.77539 v 5.72461 h -1.08398 v -5.72461 h -1.03125 v -0.83789 h 1.03125 v -0.457032 q 0,-1.095703 0.50976,-1.59375 0.50977,-0.503906 1.61719,-0.503906 z"
         style="fill:#fb0f00;fill-opacity:0.99607843;stroke-width:0.34235585px"
         id="path3082" />
      <path
         d="m 202.63672,69.585937 v 0.527344 h -4.95703 q 0.0703,1.113281 0.66797,1.699219 0.60351,0.580078 1.67578,0.580078 0.62109,0 1.20117,-0.152344 0.58594,-0.152343 1.16016,-0.457031 v 1.019531 q -0.58008,0.246094 -1.18946,0.375 -0.60937,0.128907 -1.23633,0.128907 -1.57031,0 -2.49023,-0.914063 -0.91406,-0.914062 -0.91406,-2.472656 0,-1.611328 0.86718,-2.554688 0.87305,-0.949218 2.34961,-0.949218 1.32422,0 2.0918,0.855468 0.77344,0.84961 0.77344,2.314453 z m -1.07813,-0.316406 q -0.0117,-0.884765 -0.49804,-1.412109 -0.48047,-0.527344 -1.27735,-0.527344 -0.90234,0 -1.44726,0.509766 -0.53907,0.509765 -0.6211,1.435547 z"
         style="fill:#fb0f00;fill-opacity:0.99607843;stroke-width:0.34235585px"
         id="path3084" />
      <path
         d="m 207.38867,69.837891 q -1.30664,0 -1.81055,0.298828 -0.5039,0.298828 -0.5039,1.019531 0,0.574219 0.375,0.914062 0.38086,0.333985 1.03125,0.333985 0.89648,0 1.43555,-0.632813 0.54492,-0.638672 0.54492,-1.693359 v -0.240234 z m 2.15039,-0.445313 v 3.744141 h -1.07812 v -0.996094 q -0.36914,0.597656 -0.91992,0.884766 -0.55079,0.28125 -1.34766,0.28125 -1.00781,0 -1.60547,-0.5625 -0.5918,-0.56836 -0.5918,-1.517579 0,-1.107421 0.73828,-1.669921 0.74415,-0.5625 2.21485,-0.5625 h 1.51172 v -0.105469 q 0,-0.744141 -0.49219,-1.148438 -0.48633,-0.410156 -1.37109,-0.410156 -0.5625,0 -1.09571,0.134766 -0.5332,0.134765 -1.02539,0.404297 v -0.996094 q 0.5918,-0.228516 1.14844,-0.339844 0.55664,-0.117187 1.08398,-0.117187 1.42383,0 2.12696,0.738281 0.70312,0.738281 0.70312,2.238281 z"
         style="fill:#fb0f00;fill-opacity:0.99607843;stroke-width:0.34235585px"
         id="path3086" />
      <path
         d="m 212.83203,64.710937 v 1.863282 h 2.2207 v 0.83789 h -2.2207 v 3.5625 q 0,0.802735 0.2168,1.03125 0.22265,0.228516 0.89648,0.228516 h 1.10742 v 0.902344 h -1.10742 q -1.24804,0 -1.72265,-0.462891 -0.47461,-0.46875 -0.47461,-1.699219 v -3.5625 h -0.79102 v -0.83789 h 0.79102 v -1.863282 z"
         style="fill:#fb0f00;fill-opacity:0.99607843;stroke-width:0.34235585px"
         id="path3088" />
      <path
         d="m 216.36523,70.546875 v -3.972656 h 1.07813 v 3.93164 q 0,0.931641 0.36328,1.400391 0.36328,0.462891 1.08984,0.462891 0.87305,0 1.37696,-0.556641 0.50976,-0.556641 0.50976,-1.517578 v -3.720703 h 1.07813 v 6.5625 h -1.07813 v -1.007813 q -0.39258,0.597656 -0.91406,0.890625 -0.51562,0.28711 -1.20117,0.28711 -1.13086,0 -1.7168,-0.703125 -0.58594,-0.703125 -0.58594,-2.056641 z m 2.71289,-4.130859 z"
         style="fill:#fb0f00;fill-opacity:0.99607843;stroke-width:0.34235585px"
         id="path3090" />
      <path
         d="m 227.89648,67.582031 q -0.18164,-0.105469 -0.39843,-0.152344 -0.21094,-0.05273 -0.46875,-0.05273 -0.91407,0 -1.40625,0.597656 -0.48633,0.591797 -0.48633,1.705078 v 3.457032 h -1.08399 v -6.5625 h 1.08399 v 1.019531 q 0.33984,-0.597656 0.88476,-0.884766 0.54493,-0.292968 1.32422,-0.292968 0.11133,0 0.2461,0.01758 0.13476,0.01172 0.29882,0.04102 z"
         style="fill:#fb0f00;fill-opacity:0.99607843;stroke-width:0.34235585px"
         id="path3092" />
      <path
         d="m 234.39453,69.585937 v 0.527344 h -4.95703 q 0.0703,1.113281 0.66797,1.699219 0.60351,0.580078 1.67578,0.580078 0.62109,0 1.20117,-0.152344 0.58594,-0.152343 1.16016,-0.457031 v 1.019531 q -0.58008,0.246094 -1.18946,0.375 -0.60937,0.128907 -1.23632,0.128907 -1.57032,0 -2.49024,-0.914063 -0.91406,-0.914062 -0.91406,-2.472656 0,-1.611328 0.86719,-2.554688 0.87304,-0.949218 2.34961,-0.949218 1.32422,0 2.09179,0.855468 0.77344,0.84961 0.77344,2.314453 z m -1.07812,-0.316406 q -0.0117,-0.884765 -0.49805,-1.412109 -0.48047,-0.527344 -1.27734,-0.527344 -0.90235,0 -1.44727,0.509766 -0.53906,0.509765 -0.62109,1.435547 z"
         style="fill:#fb0f00;fill-opacity:0.99607843;stroke-width:0.34235585px"
         id="path3094" />
    </g>
    <g
       aria-label="cost (dev hours)"
       transform="matrix(0.77283133,0,0,0.77283133,-71.089198,-17.844904)"
       style="color:#000000;line-height:125%;letter-spacing:0px;word-spacing:0px;clip-rule:nonzero;display:inline;overflow:visible;visibility:visible;opacity:1;isolation:auto;mix-blend-mode:normal;color-interpolation:sRGB;color-interpolation-filters:linearRGB;solid-color:#000000;solid-opacity:1;fill:#000000;fill-opacity:1;fill-rule:nonzero;stroke:none;stroke-width:0.34235585px;stroke-linecap:butt;stroke-linejoin:miter;stroke-miterlimit:4;stroke-dasharray:none;stroke-dashoffset:0;stroke-opacity:1;color-rendering:auto;image-rendering:auto;shape-rendering:auto;text-rendering:auto;enable-background:accumulate"
       id="flowRoot1700-4">
      <path
         d="m 122.99609,66.826172 v 1.007812 q -0.45703,-0.251953 -0.91992,-0.375 -0.45703,-0.128906 -0.92578,-0.128906 -1.04883,0 -1.62891,0.667969 -0.58007,0.662109 -0.58007,1.863281 0,1.201172 0.58007,1.869141 0.58008,0.662109 1.62891,0.662109 0.46875,0 0.92578,-0.123047 0.46289,-0.128906 0.91992,-0.380859 v 0.996094 q -0.45117,0.210937 -0.9375,0.316406 -0.48046,0.105469 -1.02539,0.105469 -1.48242,0 -2.35547,-0.931641 -0.87304,-0.931641 -0.87304,-2.513672 0,-1.605469 0.8789,-2.525391 0.88477,-0.919921 2.41993,-0.919921 0.49804,0 0.97265,0.105468 0.47461,0.09961 0.91992,0.304688 z"
         style="fill:#000000;fill-opacity:1;stroke-width:0.34235585px"
         id="path3142" />
      <path
         d="m 127.42578,67.330078 q -0.86719,0 -1.37109,0.679688 -0.50391,0.673828 -0.50391,1.851562 0,1.177734 0.49805,1.857422 0.5039,0.673828 1.37695,0.673828 0.86133,0 1.36524,-0.679687 0.5039,-0.679688 0.5039,-1.851563 0,-1.166016 -0.5039,-1.845703 -0.50391,-0.685547 -1.36524,-0.685547 z m 0,-0.914062 q 1.40625,0 2.20899,0.914062 0.80273,0.914063 0.80273,2.53125 0,1.611328 -0.80273,2.53125 -0.80274,0.914063 -2.20899,0.914063 -1.41211,0 -2.21484,-0.914063 -0.79688,-0.919922 -0.79688,-2.53125 0,-1.617187 0.79688,-2.53125 0.80273,-0.914062 2.21484,-0.914062 z"
         style="fill:#000000;fill-opacity:1;stroke-width:0.34235585px"
         id="path3144" />
      <path
         d="m 136.40234,66.767578 v 1.019531 q -0.45703,-0.234375 -0.94922,-0.351562 -0.49218,-0.117188 -1.01953,-0.117188 -0.80273,0 -1.20703,0.246094 -0.39844,0.246094 -0.39844,0.738281 0,0.375 0.28711,0.591797 0.28711,0.210938 1.1543,0.404297 l 0.36914,0.08203 q 1.14844,0.246094 1.62891,0.697266 0.48633,0.445312 0.48633,1.248047 0,0.914062 -0.72657,1.447265 -0.7207,0.533204 -1.98632,0.533204 -0.52735,0 -1.10157,-0.105469 -0.56836,-0.09961 -1.20117,-0.304688 v -1.113281 q 0.59766,0.310547 1.17774,0.46875 0.58007,0.152344 1.14843,0.152344 0.76172,0 1.17188,-0.257813 0.41015,-0.263672 0.41015,-0.738281 0,-0.439453 -0.29882,-0.673828 Q 135.05469,70.5 134.05273,70.283203 l -0.375,-0.08789 q -1.00195,-0.210937 -1.44726,-0.644531 -0.44531,-0.439453 -0.44531,-1.201172 0,-0.925781 0.65625,-1.429687 0.65625,-0.503906 1.86328,-0.503906 0.59765,0 1.125,0.08789 0.52734,0.08789 0.97265,0.263672 z"
         style="fill:#000000;fill-opacity:1;stroke-width:0.34235585px"
         id="path3146" />
      <path
         d="m 139.54297,64.710937 v 1.863282 h 2.2207 v 0.83789 h -2.2207 v 3.5625 q 0,0.802735 0.2168,1.03125 0.22265,0.228516 0.89648,0.228516 h 1.10742 v 0.902344 h -1.10742 q -1.24805,0 -1.72266,-0.462891 -0.47461,-0.46875 -0.47461,-1.699219 v -3.5625 h -0.79101 v -0.83789 h 0.79101 v -1.863282 z"
         style="fill:#000000;fill-opacity:1;stroke-width:0.34235585px"
         id="path3148" />
      <path
         d="m 149.59766,64.03125 q -0.78516,1.347656 -1.16602,2.666016 -0.38086,1.318359 -0.38086,2.671875 0,1.353515 0.38086,2.683593 0.38672,1.324219 1.16602,2.666016 h -0.9375 q -0.87891,-1.376953 -1.31836,-2.707031 -0.4336,-1.330078 -0.4336,-2.642578 0,-1.306641 0.4336,-2.63086 0.43359,-1.324219 1.31836,-2.707031 z"
         style="fill:#000000;fill-opacity:1;stroke-width:0.34235585px"
         id="path3150" />
      <path
         d="m 156.01367,67.570312 v -3.550781 h 1.07813 v 9.117188 h -1.07813 v -0.984375 q -0.33984,0.585937 -0.86133,0.873047 -0.51562,0.28125 -1.24218,0.28125 -1.18946,0 -1.93946,-0.949219 -0.74414,-0.949219 -0.74414,-2.496094 0,-1.546875 0.74414,-2.496094 0.75,-0.949218 1.93946,-0.949218 0.72656,0 1.24218,0.287109 0.52149,0.28125 0.86133,0.867187 z m -3.67383,2.291016 q 0,1.189453 0.48633,1.869141 0.49219,0.673828 1.34766,0.673828 0.85547,0 1.34765,-0.673828 0.49219,-0.679688 0.49219,-1.869141 0,-1.189453 -0.49219,-1.863281 -0.49218,-0.679688 -1.34765,-0.679688 -0.85547,0 -1.34766,0.679688 -0.48633,0.673828 -0.48633,1.863281 z"
         style="fill:#000000;fill-opacity:1;stroke-width:0.34235585px"
         id="path3152" />
      <path
         d="m 164.92578,69.585937 v 0.527344 h -4.95703 q 0.0703,1.113281 0.66797,1.699219 0.60351,0.580078 1.67578,0.580078 0.62109,0 1.20117,-0.152344 0.58594,-0.152343 1.16016,-0.457031 v 1.019531 q -0.58008,0.246094 -1.18946,0.375 -0.60937,0.128907 -1.23632,0.128907 -1.57032,0 -2.49024,-0.914063 -0.91406,-0.914062 -0.91406,-2.472656 0,-1.611328 0.86719,-2.554688 0.87304,-0.949218 2.34961,-0.949218 1.32422,0 2.09179,0.855468 0.77344,0.84961 0.77344,2.314453 z m -1.07812,-0.316406 q -0.0117,-0.884765 -0.49805,-1.412109 -0.48047,-0.527344 -1.27734,-0.527344 -0.90235,0 -1.44727,0.509766 -0.53906,0.509765 -0.62109,1.435547 z"
         style="fill:#000000;fill-opacity:1;stroke-width:0.34235585px"
         id="path3154" />
      <path
         d="m 165.92187,66.574219 h 1.14258 l 2.05078,5.507812 2.05079,-5.507812 h 1.14257 l -2.46093,6.5625 h -1.46485 z"
         style="fill:#000000;fill-opacity:1;stroke-width:0.34235585px"
         id="path3156" />
      <path
         d="m 183.07227,69.175781 v 3.960938 h -1.07813 v -3.925782 q 0,-0.93164 -0.36328,-1.394531 -0.36328,-0.46289 -1.08984,-0.46289 -0.87305,0 -1.37696,0.55664 -0.5039,0.556641 -0.5039,1.517578 v 3.708985 h -1.08399 v -9.117188 h 1.08399 v 3.574219 q 0.38671,-0.591797 0.9082,-0.884766 0.52734,-0.292968 1.21289,-0.292968 1.13086,0 1.71094,0.703125 0.58008,0.697265 0.58008,2.05664 z"
         style="fill:#000000;fill-opacity:1;stroke-width:0.34235585px"
         id="path3158" />
      <path
         d="m 187.77734,67.330078 q -0.86718,0 -1.37109,0.679688 -0.50391,0.673828 -0.50391,1.851562 0,1.177734 0.49805,1.857422 0.50391,0.673828 1.37695,0.673828 0.86133,0 1.36524,-0.679687 0.5039,-0.679688 0.5039,-1.851563 0,-1.166016 -0.5039,-1.845703 -0.50391,-0.685547 -1.36524,-0.685547 z m 0,-0.914062 q 1.40625,0 2.20899,0.914062 0.80273,0.914063 0.80273,2.53125 0,1.611328 -0.80273,2.53125 -0.80274,0.914063 -2.20899,0.914063 -1.41211,0 -2.21484,-0.914063 -0.79688,-0.919922 -0.79688,-2.53125 0,-1.617187 0.79688,-2.53125 0.80273,-0.914062 2.21484,-0.914062 z"
         style="fill:#000000;fill-opacity:1;stroke-width:0.34235585px"
         id="path3160" />
      <path
         d="m 192.45898,70.546875 v -3.972656 h 1.07813 v 3.93164 q 0,0.931641 0.36328,1.400391 0.36328,0.462891 1.08984,0.462891 0.87305,0 1.37696,-0.556641 0.50976,-0.556641 0.50976,-1.517578 v -3.720703 h 1.07813 v 6.5625 h -1.07813 v -1.007813 q -0.39258,0.597656 -0.91406,0.890625 -0.51562,0.28711 -1.20117,0.28711 -1.13086,0 -1.7168,-0.703125 -0.58594,-0.703125 -0.58594,-2.056641 z m 2.71289,-4.130859 z"
         style="fill:#000000;fill-opacity:1;stroke-width:0.34235585px"
         id="path3162" />
      <path
         d="m 203.99023,67.582031 q -0.18164,-0.105469 -0.39843,-0.152344 -0.21094,-0.05273 -0.46875,-0.05273 -0.91407,0 -1.40625,0.597656 -0.48633,0.591797 -0.48633,1.705078 v 3.457032 h -1.08399 v -6.5625 h 1.08399 v 1.019531 q 0.33984,-0.597656 0.88476,-0.884766 0.54493,-0.292968 1.32422,-0.292968 0.11133,0 0.2461,0.01758 0.13476,0.01172 0.29882,0.04102 z"
         style="fill:#000000;fill-opacity:1;stroke-width:0.34235585px"
         id="path3164" />
      <path
         d="m 209.31641,66.767578 v 1.019531 q -0.45704,-0.234375 -0.94922,-0.351562 -0.49219,-0.117188 -1.01953,-0.117188 -0.80274,0 -1.20704,0.246094 -0.39843,0.246094 -0.39843,0.738281 0,0.375 0.28711,0.591797 0.28711,0.210938 1.15429,0.404297 l 0.36914,0.08203 q 1.14844,0.246094 1.62891,0.697266 0.48633,0.445312 0.48633,1.248047 0,0.914062 -0.72656,1.447265 -0.72071,0.533204 -1.98633,0.533204 -0.52735,0 -1.10156,-0.105469 -0.56836,-0.09961 -1.20118,-0.304688 v -1.113281 q 0.59766,0.310547 1.17774,0.46875 0.58008,0.152344 1.14844,0.152344 0.76171,0 1.17187,-0.257813 0.41016,-0.263672 0.41016,-0.738281 0,-0.439453 -0.29883,-0.673828 Q 207.96875,70.5 206.9668,70.283203 l -0.375,-0.08789 q -1.00196,-0.210937 -1.44727,-0.644531 -0.44531,-0.439453 -0.44531,-1.201172 0,-0.925781 0.65625,-1.429687 0.65625,-0.503906 1.86328,-0.503906 0.59766,0 1.125,0.08789 0.52734,0.08789 0.97266,0.263672 z"
         style="fill:#000000;fill-opacity:1;stroke-width:0.34235585px"
         id="path3166" />
      <path
         d="m 211.2207,64.03125 h 0.9375 q 0.87891,1.382812 1.3125,2.707031 0.43946,1.324219 0.43946,2.63086 0,1.3125 -0.43946,2.642578 -0.43359,1.330078 -1.3125,2.707031 h -0.9375 q 0.7793,-1.341797 1.16016,-2.666016 0.38672,-1.330078 0.38672,-2.683593 0,-1.353516 -0.38672,-2.671875 Q 212,65.378906 211.2207,64.03125 Z"
         style="fill:#000000;fill-opacity:1;stroke-width:0.34235585px"
         id="path3168" />
    </g>
  </g>
</svg>
