<?xml version="1.0" encoding="UTF-8" standalone="no"?>
<!-- Created with Inkscape (http://www.inkscape.org/) -->

<svg
   xmlns:dc="http://purl.org/dc/elements/1.1/"
   xmlns:cc="http://creativecommons.org/ns#"
   xmlns:rdf="http://www.w3.org/1999/02/22-rdf-syntax-ns#"
   xmlns:svg="http://www.w3.org/2000/svg"
   xmlns="http://www.w3.org/2000/svg"
   xmlns:sodipodi="http://sodipodi.sourceforge.net/DTD/sodipodi-0.dtd"
   xmlns:inkscape="http://www.inkscape.org/namespaces/inkscape"
   width="734.263"
   height="689.87823"
   viewBox="0 0 194.27375 182.53029"
   version="1.1"
   id="svg8"
   inkscape:version="0.92.3 (2405546, 2018-03-11)"
   sodipodi:docname="design-stamina-hypothesis.svg">
  <defs
     id="defs2">
    <marker
       inkscape:isstock="true"
       style="overflow:visible"
       id="marker2213"
       refX="0"
       refY="0"
       orient="auto"
       inkscape:stockid="Arrow2Sstart">
      <path
         inkscape:connector-curvature="0"
         transform="matrix(0.3,0,0,0.3,-0.69,0)"
         d="M 8.7185878,4.0337352 -2.2072895,0.01601326 8.7185884,-4.0017078 c -1.7454984,2.3720609 -1.7354408,5.6174519 -6e-7,8.035443 z"
         style="fill:#3900f3;fill-opacity:1;fill-rule:evenodd;stroke:#3900f3;stroke-width:0.625;stroke-linejoin:round;stroke-opacity:1"
         id="path2211" />
    </marker>
    <marker
       inkscape:isstock="true"
       style="overflow:visible"
       id="marker2077"
       refX="0"
       refY="0"
       orient="auto"
       inkscape:stockid="Arrow2Sstart">
      <path
         inkscape:connector-curvature="0"
         transform="matrix(0.3,0,0,0.3,-0.69,0)"
         d="M 8.7185878,4.0337352 -2.2072895,0.01601326 8.7185884,-4.0017078 c -1.7454984,2.3720609 -1.7354408,5.6174519 -6e-7,8.035443 z"
         style="fill:#fb0f00;fill-opacity:1;fill-rule:evenodd;stroke:#fb0f00;stroke-width:0.625;stroke-linejoin:round;stroke-opacity:1"
         id="path2075" />
    </marker>
    <marker
       inkscape:isstock="true"
       style="overflow:visible"
       id="marker2029"
       refX="0"
       refY="0"
       orient="auto"
       inkscape:stockid="Arrow2Send">
      <path
         inkscape:connector-curvature="0"
         transform="matrix(-0.3,0,0,-0.3,0.69,0)"
         d="M 8.7185878,4.0337352 -2.2072895,0.01601326 8.7185884,-4.0017078 c -1.7454984,2.3720609 -1.7354408,5.6174519 -6e-7,8.035443 z"
         style="fill:#000000;fill-opacity:1;fill-rule:evenodd;stroke:#000000;stroke-width:0.625;stroke-linejoin:round;stroke-opacity:1"
         id="path2027" />
    </marker>
    <marker
       inkscape:stockid="Arrow2Send"
       orient="auto"
       refY="0.0"
       refX="0.0"
       id="marker1877"
       style="overflow:visible;"
       inkscape:isstock="true">
      <path
         id="path1875"
         style="fill-rule:evenodd;stroke-width:0.625;stroke-linejoin:round;stroke:#3900f3;stroke-opacity:1;fill:#3900f3;fill-opacity:1"
         d="M 8.7185878,4.0337352 L -2.2072895,0.016013256 L 8.7185884,-4.0017078 C 6.9730900,-1.6296469 6.9831476,1.6157441 8.7185878,4.0337352 z "
         transform="scale(0.3) rotate(180) translate(-2.3,0)" />
    </marker>
    <marker
       inkscape:stockid="Arrow2Mend"
       orient="auto"
       refY="0"
       refX="0"
       id="Arrow2Mend"
       style="overflow:visible"
       inkscape:isstock="true">
      <path
         id="path844"
         style="fill:#000000;fill-opacity:1;fill-rule:evenodd;stroke:#000000;stroke-width:0.625;stroke-linejoin:round;stroke-opacity:1"
         d="M 8.7185878,4.0337352 -2.2072895,0.01601326 8.7185884,-4.0017078 c -1.7454984,2.3720609 -1.7354408,5.6174519 -6e-7,8.035443 z"
         transform="scale(-0.6)"
         inkscape:connector-curvature="0" />
    </marker>
    <marker
       inkscape:stockid="Arrow2Sstart"
       orient="auto"
       refY="0"
       refX="0"
       id="Arrow2Sstart"
       style="overflow:visible"
       inkscape:isstock="true"
       inkscape:collect="always">
      <path
         id="path847"
         style="fill:#000000;fill-opacity:1;fill-rule:evenodd;stroke:#000000;stroke-width:0.625;stroke-linejoin:round;stroke-opacity:1"
         d="M 8.7185878,4.0337352 -2.2072895,0.01601326 8.7185884,-4.0017078 c -1.7454984,2.3720609 -1.7354408,5.6174519 -6e-7,8.035443 z"
         transform="matrix(0.3,0,0,0.3,-0.69,0)"
         inkscape:connector-curvature="0" />
    </marker>
    <marker
       inkscape:stockid="Arrow1Lend"
       orient="auto"
       refY="0"
       refX="0"
       id="Arrow1Lend"
       style="overflow:visible"
       inkscape:isstock="true">
      <path
         id="path820"
         d="M 0,0 5,-5 -12.5,0 5,5 Z"
         style="fill:#000000;fill-opacity:1;fill-rule:evenodd;stroke:#000000;stroke-width:1.00000003pt;stroke-opacity:1"
         transform="matrix(-0.8,0,0,-0.8,-10,0)"
         inkscape:connector-curvature="0" />
    </marker>
    <marker
       inkscape:stockid="Arrow1Lstart"
       orient="auto"
       refY="0"
       refX="0"
       id="Arrow1Lstart"
       style="overflow:visible"
       inkscape:isstock="true">
      <path
         id="path817"
         d="M 0,0 5,-5 -12.5,0 5,5 Z"
         style="fill:#000000;fill-opacity:1;fill-rule:evenodd;stroke:#000000;stroke-width:1.00000003pt;stroke-opacity:1"
         transform="matrix(0.8,0,0,0.8,10,0)"
         inkscape:connector-curvature="0" />
    </marker>
  </defs>
  <sodipodi:namedview
     id="base"
     pagecolor="#ffffff"
     bordercolor="#666666"
     borderopacity="1.0"
     inkscape:pageopacity="1"
     inkscape:pageshadow="2"
     inkscape:zoom="0.49120459"
     inkscape:cx="362.54766"
     inkscape:cy="152.62463"
     inkscape:document-units="mm"
     inkscape:current-layer="layer2"
     showgrid="false"
     units="px"
     fit-margin-top="10"
     fit-margin-left="9.4"
     fit-margin-right="10"
     fit-margin-bottom="10"
     inkscape:window-width="1535"
     inkscape:window-height="876"
     inkscape:window-x="65"
     inkscape:window-y="24"
     inkscape:window-maximized="1"
     inkscape:pagecheckerboard="false" />
  <metadata
     id="metadata5">
    <rdf:RDF>
      <cc:Work
         rdf:about="">
        <dc:format>image/svg+xml</dc:format>
        <dc:type
           rdf:resource="http://purl.org/dc/dcmitype/StillImage" />
        <dc:title></dc:title>
      </cc:Work>
    </rdf:RDF>
  </metadata>
  <g
     inkscape:groupmode="layer"
     id="layer2"
     inkscape:label="Background"
     style="display:inline">
    <rect
       style="fill:#ffffff;fill-opacity:0.99215686;stroke:none;stroke-width:0.02645833;stroke-linejoin:round;stroke-miterlimit:4;stroke-dasharray:0.15875, 0.15875;stroke-dashoffset:0;stroke-opacity:1;paint-order:normal"
       id="rect2434"
       width="222.45906"
       height="205.76117"
       x="-18.852463"
       y="-11.380773" />
  </g>
  <g
     inkscape:label="Layer 1"
     inkscape:groupmode="layer"
     id="layer1"
     transform="translate(-17.308122,-28.985562)">
    <path
       style="fill:none;fill-rule:evenodd;stroke:#000000;stroke-width:2.64583325;stroke-linecap:butt;stroke-linejoin:miter;stroke-miterlimit:4;stroke-dasharray:none;stroke-opacity:1;marker-start:url(#Arrow2Sstart);marker-end:url(#marker2029)"
       d="M 23.407116,47.980579 V 192.37435 H 184.41512"
       id="path815"
       inkscape:connector-curvature="0" />
    <path
       style="fill:none;fill-rule:evenodd;stroke:#fb0f00;stroke-width:1.32291663;stroke-linecap:butt;stroke-linejoin:miter;stroke-miterlimit:4;stroke-dasharray:none;stroke-opacity:1;marker-end:;marker-start:url(#marker2077)"
       d="m 175.75289,111.6694 c 0,0 -138.999914,-0.3642 -139.076701,70.22336"
       id="path1683"
       inkscape:connector-curvature="0"
       sodipodi:nodetypes="cc" />
    <path
       style="fill:none;fill-rule:evenodd;stroke:#3900f3;stroke-width:1.32291663;stroke-linecap:butt;stroke-linejoin:miter;stroke-miterlimit:4;stroke-dasharray:none;stroke-opacity:1;marker-end:;marker-start:url(#marker2213)"
       d="M 168.35318,69.255949 36.817478,181.89276"
       id="path1683-3"
       inkscape:connector-curvature="0"
       sodipodi:nodetypes="cc" />
    <g
       aria-label="time"
       transform="matrix(0.77283134,0,0,0.77283134,70.631015,152.21635)"
       style="color:#000000;line-height:125%;letter-spacing:0px;word-spacing:0px;clip-rule:nonzero;display:inline;overflow:visible;visibility:visible;opacity:1;isolation:auto;mix-blend-mode:normal;color-interpolation:sRGB;color-interpolation-filters:linearRGB;solid-color:#000000;solid-opacity:1;fill:#000000;fill-opacity:1;fill-rule:nonzero;stroke:none;stroke-width:0.34235585px;stroke-linecap:butt;stroke-linejoin:miter;stroke-miterlimit:4;stroke-dasharray:none;stroke-dashoffset:0;stroke-opacity:1;color-rendering:auto;image-rendering:auto;shape-rendering:auto;text-rendering:auto;enable-background:accumulate"
       id="flowRoot1700">
      <path
         d="m 119.33984,64.710937 v 1.863282 h 2.22071 v 0.83789 h -2.22071 v 3.5625 q 0,0.802735 0.2168,1.03125 0.22266,0.228516 0.89649,0.228516 h 1.10742 v 0.902344 h -1.10742 q -1.24805,0 -1.72266,-0.462891 -0.47461,-0.46875 -0.47461,-1.699219 v -3.5625 h -0.79102 v -0.83789 h 0.79102 v -1.863282 z"
         style="fill:#000000;fill-opacity:1;stroke-width:0.34235585px"
         id="path2356" />
      <path
         d="m 122.98438,66.574219 h 1.07812 v 6.5625 h -1.07812 z m 0,-2.554688 h 1.07812 v 1.365235 h -1.07812 z"
         style="fill:#000000;fill-opacity:1;stroke-width:0.34235585px"
         id="path2358" />
      <path
         d="m 131.42187,67.833984 q 0.4043,-0.726562 0.9668,-1.072265 0.5625,-0.345703 1.32422,-0.345703 1.02539,0 1.58203,0.720703 0.55664,0.714843 0.55664,2.039062 v 3.960938 h -1.08398 v -3.925782 q 0,-0.943359 -0.33399,-1.40039 -0.33398,-0.457031 -1.01953,-0.457031 -0.83789,0 -1.32422,0.55664 -0.48632,0.556641 -0.48632,1.517578 v 3.708985 h -1.08399 v -3.925782 q 0,-0.949218 -0.33398,-1.40039 -0.33399,-0.457031 -1.03125,-0.457031 -0.82618,0 -1.3125,0.5625 -0.48633,0.55664 -0.48633,1.511718 v 3.708985 h -1.08399 v -6.5625 h 1.08399 v 1.019531 q 0.36914,-0.603516 0.88476,-0.890625 0.51563,-0.287109 1.22461,-0.287109 0.71485,0 1.21289,0.363281 0.50391,0.363281 0.74414,1.054687 z"
         style="fill:#000000;fill-opacity:1;stroke-width:0.34235585px"
         id="path2360" />
      <path
         d="m 143.62109,69.585937 v 0.527344 h -4.95703 q 0.0703,1.113281 0.66797,1.699219 0.60352,0.580078 1.67578,0.580078 0.6211,0 1.20117,-0.152344 0.58594,-0.152343 1.16016,-0.457031 v 1.019531 q -0.58008,0.246094 -1.18945,0.375 -0.60938,0.128907 -1.23633,0.128907 -1.57031,0 -2.49024,-0.914063 -0.91406,-0.914062 -0.91406,-2.472656 0,-1.611328 0.86719,-2.554688 0.87305,-0.949218 2.34961,-0.949218 1.32422,0 2.0918,0.855468 0.77343,0.84961 0.77343,2.314453 z m -1.07812,-0.316406 q -0.0117,-0.884765 -0.49805,-1.412109 -0.48047,-0.527344 -1.27734,-0.527344 -0.90235,0 -1.44727,0.509766 -0.53906,0.509765 -0.62109,1.435547 z"
         style="fill:#000000;fill-opacity:1;stroke-width:0.34235585px"
         id="path2362" />
    </g>
    <g
       aria-label="Good design"
       transform="matrix(0.77283133,0,0,0.77283133,13.103959,13.396318)"
       style="color:#000000;line-height:125%;letter-spacing:0px;word-spacing:0px;clip-rule:nonzero;display:inline;overflow:visible;visibility:visible;opacity:1;isolation:auto;mix-blend-mode:normal;color-interpolation:sRGB;color-interpolation-filters:linearRGB;solid-color:#000000;solid-opacity:1;fill:#3900f3;fill-opacity:1;fill-rule:nonzero;stroke:none;stroke-width:0.34235585px;stroke-linecap:butt;stroke-linejoin:miter;stroke-miterlimit:4;stroke-dasharray:none;stroke-dashoffset:0;stroke-opacity:1;color-rendering:auto;image-rendering:auto;shape-rendering:auto;text-rendering:auto;enable-background:accumulate"
       id="flowRoot1700-8">
      <path
         d="m 124.28516,71.888672 v -2.34961 h -1.9336 v -0.972656 h 3.10547 v 3.75586 q -0.68555,0.486328 -1.51172,0.738281 -0.82617,0.246094 -1.76367,0.246094 -2.05078,0 -3.21094,-1.195313 -1.15429,-1.201172 -1.15429,-3.339844 0,-2.144531 1.15429,-3.339843 1.16016,-1.201172 3.21094,-1.201172 0.85547,0 1.62305,0.210937 0.77344,0.210938 1.42383,0.621094 v 1.259766 q -0.65625,-0.556641 -1.39454,-0.837891 -0.73828,-0.28125 -1.55273,-0.28125 -1.60547,0 -2.41406,0.896484 -0.80274,0.896485 -0.80274,2.671875 0,1.769532 0.80274,2.666016 0.80859,0.896484 2.41406,0.896484 0.62695,0 1.11914,-0.105468 0.49219,-0.111329 0.88477,-0.339844 z"
         style="fill:#3900f3;fill-opacity:1;stroke-width:0.34235585px"
         id="path2382" />
      <path
         d="m 130.12109,67.330078 q -0.86718,0 -1.37109,0.679688 -0.50391,0.673828 -0.50391,1.851562 0,1.177734 0.49805,1.857422 0.50391,0.673828 1.37695,0.673828 0.86133,0 1.36524,-0.679687 0.5039,-0.679688 0.5039,-1.851563 0,-1.166016 -0.5039,-1.845703 -0.50391,-0.685547 -1.36524,-0.685547 z m 0,-0.914062 q 1.40625,0 2.20899,0.914062 0.80273,0.914063 0.80273,2.53125 0,1.611328 -0.80273,2.53125 -0.80274,0.914063 -2.20899,0.914063 -1.41211,0 -2.21484,-0.914063 -0.79687,-0.919922 -0.79687,-2.53125 0,-1.617187 0.79687,-2.53125 0.80273,-0.914062 2.21484,-0.914062 z"
         style="fill:#3900f3;fill-opacity:1;stroke-width:0.34235585px"
         id="path2384" />
      <path
         d="m 137.45703,67.330078 q -0.86719,0 -1.37109,0.679688 -0.50391,0.673828 -0.50391,1.851562 0,1.177734 0.49805,1.857422 0.5039,0.673828 1.37695,0.673828 0.86133,0 1.36524,-0.679687 0.5039,-0.679688 0.5039,-1.851563 0,-1.166016 -0.5039,-1.845703 -0.50391,-0.685547 -1.36524,-0.685547 z m 0,-0.914062 q 1.40625,0 2.20899,0.914062 0.80273,0.914063 0.80273,2.53125 0,1.611328 -0.80273,2.53125 -0.80274,0.914063 -2.20899,0.914063 -1.41211,0 -2.21484,-0.914063 -0.79688,-0.919922 -0.79688,-2.53125 0,-1.617187 0.79688,-2.53125 0.80273,-0.914062 2.21484,-0.914062 z"
         style="fill:#3900f3;fill-opacity:1;stroke-width:0.34235585px"
         id="path2386" />
      <path
         d="m 146.56836,67.570312 v -3.550781 h 1.07812 v 9.117188 h -1.07812 v -0.984375 q -0.33984,0.585937 -0.86133,0.873047 -0.51562,0.28125 -1.24219,0.28125 -1.18945,0 -1.93945,-0.949219 -0.74414,-0.949219 -0.74414,-2.496094 0,-1.546875 0.74414,-2.496094 0.75,-0.949218 1.93945,-0.949218 0.72657,0 1.24219,0.287109 0.52149,0.28125 0.86133,0.867187 z m -3.67383,2.291016 q 0,1.189453 0.48633,1.869141 0.49219,0.673828 1.34766,0.673828 0.85546,0 1.34765,-0.673828 0.49219,-0.679688 0.49219,-1.869141 0,-1.189453 -0.49219,-1.863281 -0.49219,-0.679688 -1.34765,-0.679688 -0.85547,0 -1.34766,0.679688 -0.48633,0.673828 -0.48633,1.863281 z"
         style="fill:#3900f3;fill-opacity:1;stroke-width:0.34235585px"
         id="path2388" />
      <path
         d="m 158.00586,67.570312 v -3.550781 h 1.07812 v 9.117188 h -1.07812 v -0.984375 q -0.33984,0.585937 -0.86133,0.873047 -0.51562,0.28125 -1.24219,0.28125 -1.18945,0 -1.93945,-0.949219 -0.74414,-0.949219 -0.74414,-2.496094 0,-1.546875 0.74414,-2.496094 0.75,-0.949218 1.93945,-0.949218 0.72657,0 1.24219,0.287109 0.52149,0.28125 0.86133,0.867187 z m -3.67383,2.291016 q 0,1.189453 0.48633,1.869141 0.49219,0.673828 1.34766,0.673828 0.85546,0 1.34765,-0.673828 0.49219,-0.679688 0.49219,-1.869141 0,-1.189453 -0.49219,-1.863281 -0.49219,-0.679688 -1.34765,-0.679688 -0.85547,0 -1.34766,0.679688 -0.48633,0.673828 -0.48633,1.863281 z"
         style="fill:#3900f3;fill-opacity:1;stroke-width:0.34235585px"
         id="path2390" />
      <path
         d="m 166.91797,69.585937 v 0.527344 h -4.95703 q 0.0703,1.113281 0.66797,1.699219 0.60351,0.580078 1.67578,0.580078 0.62109,0 1.20117,-0.152344 0.58594,-0.152343 1.16016,-0.457031 v 1.019531 q -0.58008,0.246094 -1.18946,0.375 -0.60937,0.128907 -1.23633,0.128907 -1.57031,0 -2.49023,-0.914063 -0.91406,-0.914062 -0.91406,-2.472656 0,-1.611328 0.86718,-2.554688 0.87305,-0.949218 2.34961,-0.949218 1.32422,0 2.0918,0.855468 0.77344,0.84961 0.77344,2.314453 z m -1.07813,-0.316406 q -0.0117,-0.884765 -0.49804,-1.412109 -0.48047,-0.527344 -1.27735,-0.527344 -0.90234,0 -1.44726,0.509766 -0.53907,0.509765 -0.6211,1.435547 z"
         style="fill:#3900f3;fill-opacity:1;stroke-width:0.34235585px"
         id="path2392" />
      <path
         d="m 172.87109,66.767578 v 1.019531 q -0.45703,-0.234375 -0.94922,-0.351562 -0.49218,-0.117188 -1.01953,-0.117188 -0.80273,0 -1.20703,0.246094 -0.39844,0.246094 -0.39844,0.738281 0,0.375 0.28711,0.591797 0.28711,0.210938 1.1543,0.404297 l 0.36914,0.08203 q 1.14844,0.246094 1.62891,0.697266 0.48633,0.445312 0.48633,1.248047 0,0.914062 -0.72657,1.447265 -0.7207,0.533204 -1.98632,0.533204 -0.52735,0 -1.10157,-0.105469 -0.56836,-0.09961 -1.20117,-0.304688 v -1.113281 q 0.59766,0.310547 1.17774,0.46875 0.58007,0.152344 1.14843,0.152344 0.76172,0 1.17188,-0.257813 0.41015,-0.263672 0.41015,-0.738281 0,-0.439453 -0.29882,-0.673828 Q 171.52344,70.5 170.52148,70.283203 l -0.375,-0.08789 q -1.00195,-0.210937 -1.44726,-0.644531 -0.44531,-0.439453 -0.44531,-1.201172 0,-0.925781 0.65625,-1.429687 0.65625,-0.503906 1.86328,-0.503906 0.59765,0 1.125,0.08789 0.52734,0.08789 0.97265,0.263672 z"
         style="fill:#3900f3;fill-opacity:1;stroke-width:0.34235585px"
         id="path2394" />
      <path
         d="m 174.94531,66.574219 h 1.07813 v 6.5625 h -1.07813 z m 0,-2.554688 h 1.07813 v 1.365235 h -1.07813 z"
         style="fill:#3900f3;fill-opacity:1;stroke-width:0.34235585px"
         id="path2396" />
      <path
         d="m 182.5918,69.779297 q 0,-1.171875 -0.48633,-1.816406 -0.48047,-0.644532 -1.35352,-0.644532 -0.86718,0 -1.35351,0.644532 -0.48047,0.644531 -0.48047,1.816406 0,1.166015 0.48047,1.810547 0.48633,0.644531 1.35351,0.644531 0.87305,0 1.35352,-0.644531 0.48633,-0.644532 0.48633,-1.810547 z m 1.07812,2.542969 q 0,1.675781 -0.74414,2.490234 -0.74414,0.820312 -2.2793,0.820312 -0.56836,0 -1.07226,-0.08789 -0.50391,-0.08203 -0.97852,-0.257813 v -1.048828 q 0.47461,0.257813 0.9375,0.38086 0.46289,0.123046 0.94336,0.123046 1.06055,0 1.58789,-0.55664 0.52735,-0.550781 0.52735,-1.669922 v -0.533203 q -0.33399,0.580078 -0.85547,0.867187 -0.52149,0.28711 -1.24805,0.28711 -1.20703,0 -1.94531,-0.919922 -0.73828,-0.919922 -0.73828,-2.4375 0,-1.523438 0.73828,-2.44336 0.73828,-0.919921 1.94531,-0.919921 0.72656,0 1.24805,0.287109 0.52148,0.287109 0.85547,0.867187 v -0.996093 h 1.07812 z"
         style="fill:#3900f3;fill-opacity:1;stroke-width:0.34235585px"
         id="path2398" />
      <path
         d="m 191.3457,69.175781 v 3.960938 h -1.07812 v -3.925782 q 0,-0.93164 -0.36328,-1.394531 -0.36328,-0.46289 -1.08985,-0.46289 -0.87304,0 -1.37695,0.55664 -0.50391,0.556641 -0.50391,1.517578 v 3.708985 h -1.08398 v -6.5625 h 1.08398 v 1.019531 q 0.38672,-0.591797 0.90821,-0.884766 0.52734,-0.292968 1.21289,-0.292968 1.13086,0 1.71093,0.703125 0.58008,0.697265 0.58008,2.05664 z"
         style="fill:#3900f3;fill-opacity:1;stroke-width:0.34235585px"
         id="path2400" />
    </g>
    <g
       aria-label="No design
"
       transform="matrix(0.77283133,0,0,0.77283133,61.043083,48.946678)"
       style="color:#000000;line-height:125%;letter-spacing:0px;word-spacing:0px;clip-rule:nonzero;display:inline;overflow:visible;visibility:visible;opacity:1;isolation:auto;mix-blend-mode:normal;color-interpolation:sRGB;color-interpolation-filters:linearRGB;solid-color:#000000;solid-opacity:1;fill:#fb0f00;fill-opacity:0.99607843;fill-rule:nonzero;stroke:none;stroke-width:0.34235585px;stroke-linecap:butt;stroke-linejoin:miter;stroke-miterlimit:4;stroke-dasharray:none;stroke-dashoffset:0;stroke-opacity:1;color-rendering:auto;image-rendering:auto;shape-rendering:auto;text-rendering:auto;enable-background:accumulate"
       id="flowRoot1700-3">
      <path
         d="m 118.32031,64.388672 h 1.59375 l 3.87891,7.318359 v -7.318359 h 1.14844 v 8.748047 h -1.59375 l -3.87891,-7.31836 v 7.31836 h -1.14844 z"
         style="fill:#fb0f00;fill-opacity:0.99607843;stroke-width:0.34235585px"
         id="path2365" />
      <path
         d="m 129.79297,67.330078 q -0.86719,0 -1.3711,0.679688 -0.5039,0.673828 -0.5039,1.851562 0,1.177734 0.49805,1.857422 0.5039,0.673828 1.37695,0.673828 0.86133,0 1.36523,-0.679687 0.50391,-0.679688 0.50391,-1.851563 0,-1.166016 -0.50391,-1.845703 -0.5039,-0.685547 -1.36523,-0.685547 z m 0,-0.914062 q 1.40625,0 2.20898,0.914062 0.80274,0.914063 0.80274,2.53125 0,1.611328 -0.80274,2.53125 -0.80273,0.914063 -2.20898,0.914063 -1.41211,0 -2.21484,-0.914063 -0.79688,-0.919922 -0.79688,-2.53125 0,-1.617187 0.79688,-2.53125 0.80273,-0.914062 2.21484,-0.914062 z"
         style="fill:#fb0f00;fill-opacity:0.99607843;stroke-width:0.34235585px"
         id="path2367" />
      <path
         d="m 142.72461,67.570312 v -3.550781 h 1.07812 v 9.117188 h -1.07812 v -0.984375 q -0.33984,0.585937 -0.86133,0.873047 -0.51562,0.28125 -1.24219,0.28125 -1.18945,0 -1.93945,-0.949219 -0.74414,-0.949219 -0.74414,-2.496094 0,-1.546875 0.74414,-2.496094 0.75,-0.949218 1.93945,-0.949218 0.72657,0 1.24219,0.287109 0.52149,0.28125 0.86133,0.867187 z m -3.67383,2.291016 q 0,1.189453 0.48633,1.869141 0.49219,0.673828 1.34766,0.673828 0.85546,0 1.34765,-0.673828 0.49219,-0.679688 0.49219,-1.869141 0,-1.189453 -0.49219,-1.863281 -0.49219,-0.679688 -1.34765,-0.679688 -0.85547,0 -1.34766,0.679688 -0.48633,0.673828 -0.48633,1.863281 z"
         style="fill:#fb0f00;fill-opacity:0.99607843;stroke-width:0.34235585px"
         id="path2369" />
      <path
         d="m 151.63672,69.585937 v 0.527344 h -4.95703 q 0.0703,1.113281 0.66797,1.699219 0.60351,0.580078 1.67578,0.580078 0.62109,0 1.20117,-0.152344 0.58594,-0.152343 1.16016,-0.457031 v 1.019531 q -0.58008,0.246094 -1.18946,0.375 -0.60937,0.128907 -1.23633,0.128907 -1.57031,0 -2.49023,-0.914063 -0.91406,-0.914062 -0.91406,-2.472656 0,-1.611328 0.86718,-2.554688 0.87305,-0.949218 2.34961,-0.949218 1.32422,0 2.0918,0.855468 0.77344,0.84961 0.77344,2.314453 z m -1.07813,-0.316406 q -0.0117,-0.884765 -0.49804,-1.412109 -0.48047,-0.527344 -1.27735,-0.527344 -0.90234,0 -1.44726,0.509766 -0.53907,0.509765 -0.6211,1.435547 z"
         style="fill:#fb0f00;fill-opacity:0.99607843;stroke-width:0.34235585px"
         id="path2371" />
      <path
         d="m 157.58984,66.767578 v 1.019531 q -0.45703,-0.234375 -0.94922,-0.351562 -0.49218,-0.117188 -1.01953,-0.117188 -0.80273,0 -1.20703,0.246094 -0.39844,0.246094 -0.39844,0.738281 0,0.375 0.28711,0.591797 0.28711,0.210938 1.1543,0.404297 l 0.36914,0.08203 q 1.14844,0.246094 1.62891,0.697266 0.48633,0.445312 0.48633,1.248047 0,0.914062 -0.72657,1.447265 -0.7207,0.533204 -1.98632,0.533204 -0.52735,0 -1.10157,-0.105469 -0.56836,-0.09961 -1.20117,-0.304688 v -1.113281 q 0.59766,0.310547 1.17774,0.46875 0.58007,0.152344 1.14843,0.152344 0.76172,0 1.17188,-0.257813 0.41015,-0.263672 0.41015,-0.738281 0,-0.439453 -0.29882,-0.673828 Q 156.24219,70.5 155.24023,70.283203 l -0.375,-0.08789 q -1.00195,-0.210937 -1.44726,-0.644531 -0.44531,-0.439453 -0.44531,-1.201172 0,-0.925781 0.65625,-1.429687 0.65625,-0.503906 1.86328,-0.503906 0.59765,0 1.125,0.08789 0.52734,0.08789 0.97265,0.263672 z"
         style="fill:#fb0f00;fill-opacity:0.99607843;stroke-width:0.34235585px"
         id="path2373" />
      <path
         d="m 159.66406,66.574219 h 1.07813 v 6.5625 h -1.07813 z m 0,-2.554688 h 1.07813 v 1.365235 h -1.07813 z"
         style="fill:#fb0f00;fill-opacity:0.99607843;stroke-width:0.34235585px"
         id="path2375" />
      <path
         d="m 167.31055,69.779297 q 0,-1.171875 -0.48633,-1.816406 -0.48047,-0.644532 -1.35352,-0.644532 -0.86718,0 -1.35351,0.644532 -0.48047,0.644531 -0.48047,1.816406 0,1.166015 0.48047,1.810547 0.48633,0.644531 1.35351,0.644531 0.87305,0 1.35352,-0.644531 0.48633,-0.644532 0.48633,-1.810547 z m 1.07812,2.542969 q 0,1.675781 -0.74414,2.490234 -0.74414,0.820312 -2.2793,0.820312 -0.56836,0 -1.07226,-0.08789 -0.50391,-0.08203 -0.97852,-0.257813 v -1.048828 q 0.47461,0.257813 0.9375,0.38086 0.46289,0.123046 0.94336,0.123046 1.06055,0 1.58789,-0.55664 0.52735,-0.550781 0.52735,-1.669922 v -0.533203 q -0.33399,0.580078 -0.85547,0.867187 -0.52149,0.28711 -1.24805,0.28711 -1.20703,0 -1.94531,-0.919922 -0.73828,-0.919922 -0.73828,-2.4375 0,-1.523438 0.73828,-2.44336 0.73828,-0.919921 1.94531,-0.919921 0.72656,0 1.24805,0.287109 0.52148,0.287109 0.85547,0.867187 v -0.996093 h 1.07812 z"
         style="fill:#fb0f00;fill-opacity:0.99607843;stroke-width:0.34235585px"
         id="path2377" />
      <path
         d="m 176.06445,69.175781 v 3.960938 h -1.07812 v -3.925782 q 0,-0.93164 -0.36328,-1.394531 -0.36328,-0.46289 -1.08985,-0.46289 -0.87304,0 -1.37695,0.55664 -0.50391,0.556641 -0.50391,1.517578 v 3.708985 h -1.08398 v -6.5625 h 1.08398 v 1.019531 q 0.38672,-0.591797 0.90821,-0.884766 0.52734,-0.292968 1.21289,-0.292968 1.13086,0 1.71093,0.703125 0.58008,0.697265 0.58008,2.05664 z"
         style="fill:#fb0f00;fill-opacity:0.99607843;stroke-width:0.34235585px"
         id="path2379" />
    </g>
    <g
       aria-label="cumulative
functionality"
       transform="matrix(0.77283133,0,0,0.77283133,-63.151693,-17.844904)"
       style="color:#000000;line-height:125%;letter-spacing:0px;word-spacing:0px;clip-rule:nonzero;display:inline;overflow:visible;visibility:visible;opacity:1;isolation:auto;mix-blend-mode:normal;color-interpolation:sRGB;color-interpolation-filters:linearRGB;solid-color:#000000;solid-opacity:1;fill:#000000;fill-opacity:1;fill-rule:nonzero;stroke:none;stroke-width:0.34235585px;stroke-linecap:butt;stroke-linejoin:miter;stroke-miterlimit:4;stroke-dasharray:none;stroke-dashoffset:0;stroke-opacity:1;color-rendering:auto;image-rendering:auto;shape-rendering:auto;text-rendering:auto;enable-background:accumulate"
       id="flowRoot1700-4">
      <path
         d="m 122.99609,66.826172 v 1.007812 q -0.45703,-0.251953 -0.91992,-0.375 -0.45703,-0.128906 -0.92578,-0.128906 -1.04883,0 -1.62891,0.667969 -0.58007,0.662109 -0.58007,1.863281 0,1.201172 0.58007,1.869141 0.58008,0.662109 1.62891,0.662109 0.46875,0 0.92578,-0.123047 0.46289,-0.128906 0.91992,-0.380859 v 0.996094 q -0.45117,0.210937 -0.9375,0.316406 -0.48046,0.105469 -1.02539,0.105469 -1.48242,0 -2.35547,-0.931641 -0.87304,-0.931641 -0.87304,-2.513672 0,-1.605469 0.8789,-2.525391 0.88477,-0.919921 2.41993,-0.919921 0.49804,0 0.97265,0.105468 0.47461,0.09961 0.91992,0.304688 z"
         style="fill:#000000;fill-opacity:1;stroke-width:0.34235585px"
         id="path2309" />
      <path
         d="m 124.77148,70.546875 v -3.972656 h 1.07813 v 3.93164 q 0,0.931641 0.36328,1.400391 0.36328,0.462891 1.08984,0.462891 0.87305,0 1.37696,-0.556641 0.50976,-0.556641 0.50976,-1.517578 v -3.720703 h 1.07813 v 6.5625 h -1.07813 v -1.007813 q -0.39258,0.597656 -0.91406,0.890625 -0.51562,0.28711 -1.20117,0.28711 -1.13086,0 -1.7168,-0.703125 -0.58594,-0.703125 -0.58594,-2.056641 z m 2.7129,-4.130859 z"
         style="fill:#000000;fill-opacity:1;stroke-width:0.34235585px"
         id="path2311" />
      <path
         d="m 137.60937,67.833984 q 0.4043,-0.726562 0.9668,-1.072265 0.5625,-0.345703 1.32422,-0.345703 1.02539,0 1.58203,0.720703 0.55664,0.714843 0.55664,2.039062 v 3.960938 h -1.08398 v -3.925782 q 0,-0.943359 -0.33399,-1.40039 -0.33398,-0.457031 -1.01953,-0.457031 -0.83789,0 -1.32422,0.55664 -0.48632,0.556641 -0.48632,1.517578 v 3.708985 h -1.08399 v -3.925782 q 0,-0.949218 -0.33398,-1.40039 -0.33399,-0.457031 -1.03125,-0.457031 -0.82618,0 -1.3125,0.5625 -0.48633,0.55664 -0.48633,1.511718 v 3.708985 h -1.08399 v -6.5625 h 1.08399 v 1.019531 q 0.36914,-0.603516 0.88476,-0.890625 0.51563,-0.287109 1.22461,-0.287109 0.71485,0 1.21289,0.363281 0.50391,0.363281 0.74414,1.054687 z"
         style="fill:#000000;fill-opacity:1;stroke-width:0.34235585px"
         id="path2313" />
      <path
         d="m 144.08398,70.546875 v -3.972656 h 1.07813 v 3.93164 q 0,0.931641 0.36328,1.400391 0.36328,0.462891 1.08984,0.462891 0.87305,0 1.37696,-0.556641 0.50976,-0.556641 0.50976,-1.517578 v -3.720703 h 1.07813 v 6.5625 h -1.07813 v -1.007813 q -0.39258,0.597656 -0.91406,0.890625 -0.51562,0.28711 -1.20117,0.28711 -1.13086,0 -1.7168,-0.703125 -0.58594,-0.703125 -0.58594,-2.056641 z m 2.71289,-4.130859 z"
         style="fill:#000000;fill-opacity:1;stroke-width:0.34235585px"
         id="path2315" />
      <path
         d="m 151.8125,64.019531 h 1.07812 v 9.117188 h -1.07812 z"
         style="fill:#000000;fill-opacity:1;stroke-width:0.34235585px"
         id="path2317" />
      <path
         d="m 158.12305,69.837891 q -1.30664,0 -1.81055,0.298828 -0.50391,0.298828 -0.50391,1.019531 0,0.574219 0.375,0.914062 0.38086,0.333985 1.03125,0.333985 0.89649,0 1.43555,-0.632813 0.54492,-0.638672 0.54492,-1.693359 v -0.240234 z m 2.15039,-0.445313 v 3.744141 h -1.07813 v -0.996094 q -0.36914,0.597656 -0.91992,0.884766 -0.55078,0.28125 -1.34766,0.28125 -1.00781,0 -1.60546,-0.5625 -0.5918,-0.56836 -0.5918,-1.517579 0,-1.107421 0.73828,-1.669921 0.74414,-0.5625 2.21484,-0.5625 h 1.51172 v -0.105469 q 0,-0.744141 -0.49219,-1.148438 -0.48632,-0.410156 -1.37109,-0.410156 -0.5625,0 -1.0957,0.134766 -0.53321,0.134765 -1.02539,0.404297 v -0.996094 q 0.59179,-0.228516 1.14843,-0.339844 0.55665,-0.117187 1.08399,-0.117187 1.42383,0 2.12695,0.738281 0.70313,0.738281 0.70313,2.238281 z"
         style="fill:#000000;fill-opacity:1;stroke-width:0.34235585px"
         id="path2319" />
      <path
         d="m 163.56641,64.710937 v 1.863282 h 2.2207 v 0.83789 h -2.2207 v 3.5625 q 0,0.802735 0.21679,1.03125 0.22266,0.228516 0.89649,0.228516 h 1.10742 v 0.902344 h -1.10742 q -1.24805,0 -1.72266,-0.462891 -0.47461,-0.46875 -0.47461,-1.699219 v -3.5625 h -0.79101 v -0.83789 h 0.79101 v -1.863282 z"
         style="fill:#000000;fill-opacity:1;stroke-width:0.34235585px"
         id="path2321" />
      <path
         d="m 167.21094,66.574219 h 1.07812 v 6.5625 h -1.07812 z m 0,-2.554688 h 1.07812 v 1.365235 h -1.07812 z"
         style="fill:#000000;fill-opacity:1;stroke-width:0.34235585px"
         id="path2323" />
      <path
         d="m 169.76562,66.574219 h 1.14258 l 2.05078,5.507812 2.05079,-5.507812 h 1.14257 l -2.46093,6.5625 h -1.46485 z"
         style="fill:#000000;fill-opacity:1;stroke-width:0.34235585px"
         id="path2325" />
      <path
         d="m 183.25391,69.585937 v 0.527344 h -4.95704 q 0.0703,1.113281 0.66797,1.699219 0.60352,0.580078 1.67578,0.580078 0.6211,0 1.20118,-0.152344 0.58593,-0.152343 1.16015,-0.457031 v 1.019531 q -0.58008,0.246094 -1.18945,0.375 -0.60938,0.128907 -1.23633,0.128907 -1.57031,0 -2.49023,-0.914063 -0.91407,-0.914062 -0.91407,-2.472656 0,-1.611328 0.86719,-2.554688 0.87305,-0.949218 2.34961,-0.949218 1.32422,0 2.0918,0.855468 0.77344,0.84961 0.77344,2.314453 z m -1.07813,-0.316406 q -0.0117,-0.884765 -0.49805,-1.412109 -0.48046,-0.527344 -1.27734,-0.527344 -0.90234,0 -1.44727,0.509766 -0.53906,0.509765 -0.62109,1.435547 z"
         style="fill:#000000;fill-opacity:1;stroke-width:0.34235585px"
         id="path2327" />
      <path
         d="m 121.5957,79.019531 v 0.896485 h -1.03125 q -0.58007,0 -0.80859,0.234375 -0.22266,0.234375 -0.22266,0.84375 v 0.580078 h 1.77539 v 0.83789 h -1.77539 v 5.72461 h -1.08398 v -5.72461 h -1.03125 v -0.83789 h 1.03125 v -0.457032 q 0,-1.095703 0.50976,-1.59375 0.50977,-0.503906 1.61719,-0.503906 z"
         style="fill:#000000;fill-opacity:1;stroke-width:0.34235585px"
         id="path2329" />
      <path
         d="m 122.38086,85.546875 v -3.972656 h 1.07812 v 3.93164 q 0,0.931641 0.36329,1.400391 0.36328,0.462891 1.08984,0.462891 0.87305,0 1.37695,-0.556641 0.50977,-0.556641 0.50977,-1.517578 v -3.720703 h 1.07812 v 6.5625 h -1.07812 v -1.007813 q -0.39258,0.597656 -0.91406,0.890625 -0.51563,0.28711 -1.20118,0.28711 -1.13086,0 -1.71679,-0.703125 -0.58594,-0.703125 -0.58594,-2.056641 z m 2.71289,-4.130859 z"
         style="fill:#000000;fill-opacity:1;stroke-width:0.34235585px"
         id="path2331" />
      <path
         d="m 135.56445,84.175781 v 3.960938 h -1.07812 v -3.925782 q 0,-0.93164 -0.36328,-1.394531 -0.36328,-0.46289 -1.08985,-0.46289 -0.87304,0 -1.37695,0.55664 -0.50391,0.556641 -0.50391,1.517578 v 3.708985 h -1.08398 v -6.5625 h 1.08398 v 1.019531 q 0.38672,-0.591797 0.90821,-0.884766 0.52734,-0.292968 1.21289,-0.292968 1.13086,0 1.71093,0.703125 0.58008,0.697265 0.58008,2.05664 z"
         style="fill:#000000;fill-opacity:1;stroke-width:0.34235585px"
         id="path2333" />
      <path
         d="m 142.44922,81.826172 v 1.007812 q -0.45703,-0.251953 -0.91992,-0.375 -0.45703,-0.128906 -0.92578,-0.128906 -1.04883,0 -1.62891,0.667969 -0.58008,0.662109 -0.58008,1.863281 0,1.201172 0.58008,1.869141 0.58008,0.662109 1.62891,0.662109 0.46875,0 0.92578,-0.123047 0.46289,-0.128906 0.91992,-0.380859 v 0.996094 q -0.45117,0.210937 -0.9375,0.316406 -0.48047,0.105469 -1.02539,0.105469 -1.48242,0 -2.35547,-0.931641 -0.87305,-0.931641 -0.87305,-2.513672 0,-1.605469 0.87891,-2.525391 0.88476,-0.919921 2.41992,-0.919921 0.49805,0 0.97266,0.105468 0.47461,0.09961 0.91992,0.304688 z"
         style="fill:#000000;fill-opacity:1;stroke-width:0.34235585px"
         id="path2335" />
      <path
         d="m 145.40234,79.710937 v 1.863282 h 2.22071 v 0.83789 h -2.22071 v 3.5625 q 0,0.802735 0.2168,1.03125 0.22266,0.228516 0.89648,0.228516 h 1.10743 v 0.902344 h -1.10743 q -1.24804,0 -1.72265,-0.462891 -0.47461,-0.46875 -0.47461,-1.699219 v -3.5625 h -0.79102 v -0.83789 h 0.79102 v -1.863282 z"
         style="fill:#000000;fill-opacity:1;stroke-width:0.34235585px"
         id="path2337" />
      <path
         d="m 149.04687,81.574219 h 1.07813 v 6.5625 h -1.07813 z m 0,-2.554688 h 1.07813 v 1.365235 h -1.07813 z"
         style="fill:#000000;fill-opacity:1;stroke-width:0.34235585px"
         id="path2339" />
      <path
         d="m 154.91797,82.330078 q -0.86719,0 -1.3711,0.679688 -0.5039,0.673828 -0.5039,1.851562 0,1.177734 0.49805,1.857422 0.5039,0.673828 1.37695,0.673828 0.86133,0 1.36523,-0.679687 0.50391,-0.679688 0.50391,-1.851563 0,-1.166016 -0.50391,-1.845703 -0.5039,-0.685547 -1.36523,-0.685547 z m 0,-0.914062 q 1.40625,0 2.20898,0.914062 0.80274,0.914063 0.80274,2.53125 0,1.611328 -0.80274,2.53125 -0.80273,0.914063 -2.20898,0.914063 -1.41211,0 -2.21485,-0.914063 -0.79687,-0.919922 -0.79687,-2.53125 0,-1.617187 0.79687,-2.53125 0.80274,-0.914062 2.21485,-0.914062 z"
         style="fill:#000000;fill-opacity:1;stroke-width:0.34235585px"
         id="path2341" />
      <path
         d="m 165.16602,84.175781 v 3.960938 h -1.07813 v -3.925782 q 0,-0.93164 -0.36328,-1.394531 -0.36328,-0.46289 -1.08984,-0.46289 -0.87305,0 -1.37696,0.55664 -0.5039,0.556641 -0.5039,1.517578 v 3.708985 h -1.08399 v -6.5625 h 1.08399 v 1.019531 q 0.38671,-0.591797 0.9082,-0.884766 0.52734,-0.292968 1.21289,-0.292968 1.13086,0 1.71094,0.703125 0.58008,0.697265 0.58008,2.05664 z"
         style="fill:#000000;fill-opacity:1;stroke-width:0.34235585px"
         id="path2343" />
      <path
         d="m 170.31055,84.837891 q -1.30664,0 -1.81055,0.298828 -0.50391,0.298828 -0.50391,1.019531 0,0.574219 0.375,0.914062 0.38086,0.333985 1.03125,0.333985 0.89649,0 1.43555,-0.632813 0.54492,-0.638672 0.54492,-1.693359 v -0.240234 z m 2.15039,-0.445313 v 3.744141 h -1.07813 v -0.996094 q -0.36914,0.597656 -0.91992,0.884766 -0.55078,0.28125 -1.34766,0.28125 -1.00781,0 -1.60546,-0.5625 -0.5918,-0.56836 -0.5918,-1.517579 0,-1.107421 0.73828,-1.669921 0.74414,-0.5625 2.21484,-0.5625 h 1.51172 v -0.105469 q 0,-0.744141 -0.49219,-1.148438 -0.48632,-0.410156 -1.37109,-0.410156 -0.5625,0 -1.0957,0.134766 -0.53321,0.134765 -1.02539,0.404297 v -0.996094 q 0.59179,-0.228516 1.14843,-0.339844 0.55665,-0.117187 1.08399,-0.117187 1.42383,0 2.12695,0.738281 0.70313,0.738281 0.70313,2.238281 z"
         style="fill:#000000;fill-opacity:1;stroke-width:0.34235585px"
         id="path2345" />
      <path
         d="m 174.6875,79.019531 h 1.07812 v 9.117188 h -1.07812 z"
         style="fill:#000000;fill-opacity:1;stroke-width:0.34235585px"
         id="path2347" />
      <path
         d="m 178.01562,81.574219 h 1.07813 v 6.5625 h -1.07813 z m 0,-2.554688 h 1.07813 v 1.365235 h -1.07813 z"
         style="fill:#000000;fill-opacity:1;stroke-width:0.34235585px"
         id="path2349" />
      <path
         d="m 182.41016,79.710937 v 1.863282 h 2.2207 v 0.83789 h -2.2207 v 3.5625 q 0,0.802735 0.21679,1.03125 0.22266,0.228516 0.89649,0.228516 h 1.10742 v 0.902344 h -1.10742 q -1.24805,0 -1.72266,-0.462891 -0.47461,-0.46875 -0.47461,-1.699219 v -3.5625 h -0.79101 v -0.83789 h 0.79101 v -1.863282 z"
         style="fill:#000000;fill-opacity:1;stroke-width:0.34235585px"
         id="path2351" />
      <path
         d="m 188.78516,88.746094 q -0.45704,1.171875 -0.89063,1.529297 -0.43359,0.357421 -1.16016,0.357421 h -0.86132 v -0.902343 h 0.63281 q 0.44531,0 0.69141,-0.210938 0.24609,-0.210937 0.54492,-0.996094 l 0.19336,-0.492187 -2.6543,-6.457031 h 1.14258 l 2.05078,5.132812 2.05078,-5.132812 h 1.14258 z"
         style="fill:#000000;fill-opacity:1;stroke-width:0.34235585px"
         id="path2353" />
    </g>
    <path
       style="fill:none;fill-rule:evenodd;stroke:#000000;stroke-width:0.79374999;stroke-linecap:butt;stroke-linejoin:miter;stroke-miterlimit:4;stroke-dasharray:4.7625, 4.7625;stroke-dashoffset:0;stroke-opacity:1"
       d="M 24.310466,119.40809 H 202.60091"
       id="path1840"
       inkscape:connector-curvature="0" />
    <g
       aria-label="design payoff line"
       transform="matrix(0.77283133,0,0,0.77283133,28.223794,73.652692)"
       style="color:#000000;line-height:125%;letter-spacing:0px;word-spacing:0px;clip-rule:nonzero;display:inline;overflow:visible;visibility:visible;opacity:1;isolation:auto;mix-blend-mode:normal;color-interpolation:sRGB;color-interpolation-filters:linearRGB;solid-color:#000000;solid-opacity:1;fill:#000000;fill-opacity:1;fill-rule:nonzero;stroke:none;stroke-width:0.34235585px;stroke-linecap:butt;stroke-linejoin:miter;stroke-miterlimit:4;stroke-dasharray:none;stroke-dashoffset:0;stroke-opacity:1;color-rendering:auto;image-rendering:auto;shape-rendering:auto;text-rendering:auto;enable-background:accumulate"
       id="flowRoot1700-4-8">
      <path
         d="m 122.5918,67.570312 v -3.550781 h 1.07812 v 9.117188 h -1.07812 v -0.984375 q -0.33985,0.585937 -0.86133,0.873047 -0.51563,0.28125 -1.24219,0.28125 -1.18945,0 -1.93945,-0.949219 -0.74414,-0.949219 -0.74414,-2.496094 0,-1.546875 0.74414,-2.496094 0.75,-0.949218 1.93945,-0.949218 0.72656,0 1.24219,0.287109 0.52148,0.28125 0.86133,0.867187 z m -3.67383,2.291016 q 0,1.189453 0.48633,1.869141 0.49218,0.673828 1.34765,0.673828 0.85547,0 1.34766,-0.673828 0.49219,-0.679688 0.49219,-1.869141 0,-1.189453 -0.49219,-1.863281 -0.49219,-0.679688 -1.34766,-0.679688 -0.85547,0 -1.34765,0.679688 -0.48633,0.673828 -0.48633,1.863281 z"
         style="fill:#000000;fill-opacity:1;stroke:none;stroke-width:0.34235585px;stroke-opacity:1"
         id="path2403" />
      <path
         d="m 131.50391,69.585937 v 0.527344 h -4.95703 q 0.0703,1.113281 0.66796,1.699219 0.60352,0.580078 1.67578,0.580078 0.6211,0 1.20118,-0.152344 0.58593,-0.152343 1.16015,-0.457031 v 1.019531 q -0.58008,0.246094 -1.18945,0.375 -0.60938,0.128907 -1.23633,0.128907 -1.57031,0 -2.49023,-0.914063 -0.91406,-0.914062 -0.91406,-2.472656 0,-1.611328 0.86718,-2.554688 0.87305,-0.949218 2.34961,-0.949218 1.32422,0 2.0918,0.855468 0.77344,0.84961 0.77344,2.314453 z m -1.07813,-0.316406 q -0.0117,-0.884765 -0.49805,-1.412109 -0.48046,-0.527344 -1.27734,-0.527344 -0.90234,0 -1.44726,0.509766 -0.53907,0.509765 -0.6211,1.435547 z"
         style="fill:#000000;fill-opacity:1;stroke:none;stroke-width:0.34235585px;stroke-opacity:1"
         id="path2405" />
      <path
         d="m 137.45703,66.767578 v 1.019531 Q 137,67.552734 136.50781,67.435547 q -0.49219,-0.117188 -1.01953,-0.117188 -0.80273,0 -1.20703,0.246094 -0.39844,0.246094 -0.39844,0.738281 0,0.375 0.28711,0.591797 0.28711,0.210938 1.1543,0.404297 l 0.36914,0.08203 q 1.14844,0.246094 1.62891,0.697266 0.48632,0.445312 0.48632,1.248047 0,0.914062 -0.72656,1.447265 -0.7207,0.533204 -1.98633,0.533204 -0.52734,0 -1.10156,-0.105469 -0.56836,-0.09961 -1.20117,-0.304688 v -1.113281 q 0.59765,0.310547 1.17773,0.46875 0.58008,0.152344 1.14844,0.152344 0.76172,0 1.17188,-0.257813 0.41015,-0.263672 0.41015,-0.738281 0,-0.439453 -0.29883,-0.673828 Q 136.10937,70.5 135.10742,70.283203 l -0.375,-0.08789 q -1.00195,-0.210937 -1.44726,-0.644531 -0.44532,-0.439453 -0.44532,-1.201172 0,-0.925781 0.65625,-1.429687 0.65625,-0.503906 1.86328,-0.503906 0.59766,0 1.125,0.08789 0.52735,0.08789 0.97266,0.263672 z"
         style="fill:#000000;fill-opacity:1;stroke:none;stroke-width:0.34235585px;stroke-opacity:1"
         id="path2407" />
      <path
         d="m 139.53125,66.574219 h 1.07812 v 6.5625 h -1.07812 z m 0,-2.554688 h 1.07812 v 1.365235 h -1.07812 z"
         style="fill:#000000;fill-opacity:1;stroke:none;stroke-width:0.34235585px;stroke-opacity:1"
         id="path2409" />
      <path
         d="m 147.17773,69.779297 q 0,-1.171875 -0.48632,-1.816406 -0.48047,-0.644532 -1.35352,-0.644532 -0.86719,0 -1.35352,0.644532 -0.48046,0.644531 -0.48046,1.816406 0,1.166015 0.48046,1.810547 0.48633,0.644531 1.35352,0.644531 0.87305,0 1.35352,-0.644531 0.48632,-0.644532 0.48632,-1.810547 z m 1.07813,2.542969 q 0,1.675781 -0.74414,2.490234 -0.74414,0.820312 -2.2793,0.820312 -0.56836,0 -1.07226,-0.08789 -0.50391,-0.08203 -0.97852,-0.257813 v -1.048828 q 0.47461,0.257813 0.9375,0.38086 0.46289,0.123046 0.94336,0.123046 1.06055,0 1.58789,-0.55664 0.52734,-0.550781 0.52734,-1.669922 v -0.533203 q -0.33398,0.580078 -0.85546,0.867187 -0.52149,0.28711 -1.24805,0.28711 -1.20703,0 -1.94531,-0.919922 -0.73829,-0.919922 -0.73829,-2.4375 0,-1.523438 0.73829,-2.44336 0.73828,-0.919921 1.94531,-0.919921 0.72656,0 1.24805,0.287109 0.52148,0.287109 0.85546,0.867187 v -0.996093 h 1.07813 z"
         style="fill:#000000;fill-opacity:1;stroke:none;stroke-width:0.34235585px;stroke-opacity:1"
         id="path2411" />
      <path
         d="m 155.93164,69.175781 v 3.960938 h -1.07812 v -3.925782 q 0,-0.93164 -0.36329,-1.394531 -0.36328,-0.46289 -1.08984,-0.46289 -0.87305,0 -1.37695,0.55664 -0.50391,0.556641 -0.50391,1.517578 v 3.708985 h -1.08398 v -6.5625 h 1.08398 v 1.019531 q 0.38672,-0.591797 0.9082,-0.884766 0.52735,-0.292968 1.21289,-0.292968 1.13086,0 1.71094,0.703125 0.58008,0.697265 0.58008,2.05664 z"
         style="fill:#000000;fill-opacity:1;stroke:none;stroke-width:0.34235585px;stroke-opacity:1"
         id="path2413" />
      <path
         d="m 162.95703,72.152344 v 3.480468 h -1.08398 v -9.058593 h 1.08398 v 0.996093 q 0.33984,-0.585937 0.85547,-0.867187 0.52148,-0.287109 1.24219,-0.287109 1.19531,0 1.93945,0.949218 0.75,0.949219 0.75,2.496094 0,1.546875 -0.75,2.496094 -0.74414,0.949219 -1.93945,0.949219 -0.72071,0 -1.24219,-0.28125 -0.51563,-0.28711 -0.85547,-0.873047 z m 3.66797,-2.291016 q 0,-1.189453 -0.49219,-1.863281 -0.48633,-0.679688 -1.34179,-0.679688 -0.85547,0 -1.34766,0.679688 -0.48633,0.673828 -0.48633,1.863281 0,1.189453 0.48633,1.869141 0.49219,0.673828 1.34766,0.673828 0.85546,0 1.34179,-0.673828 0.49219,-0.679688 0.49219,-1.869141 z"
         style="fill:#000000;fill-opacity:1;stroke:none;stroke-width:0.34235585px;stroke-opacity:1"
         id="path2415" />
      <path
         d="m 172.51367,69.837891 q -1.30664,0 -1.81055,0.298828 -0.5039,0.298828 -0.5039,1.019531 0,0.574219 0.375,0.914062 0.38086,0.333985 1.03125,0.333985 0.89648,0 1.43555,-0.632813 0.54492,-0.638672 0.54492,-1.693359 v -0.240234 z m 2.15039,-0.445313 v 3.744141 h -1.07812 v -0.996094 q -0.36914,0.597656 -0.91992,0.884766 -0.55079,0.28125 -1.34766,0.28125 -1.00781,0 -1.60547,-0.5625 -0.5918,-0.56836 -0.5918,-1.517579 0,-1.107421 0.73828,-1.669921 0.74415,-0.5625 2.21485,-0.5625 h 1.51172 v -0.105469 q 0,-0.744141 -0.49219,-1.148438 -0.48633,-0.410156 -1.37109,-0.410156 -0.5625,0 -1.09571,0.134766 -0.5332,0.134765 -1.02539,0.404297 v -0.996094 q 0.5918,-0.228516 1.14844,-0.339844 0.55664,-0.117187 1.08398,-0.117187 1.42383,0 2.12696,0.738281 0.70312,0.738281 0.70312,2.238281 z"
         style="fill:#000000;fill-opacity:1;stroke:none;stroke-width:0.34235585px;stroke-opacity:1"
         id="path2417" />
      <path
         d="m 179.62109,73.746094 q -0.45703,1.171875 -0.89062,1.529297 -0.4336,0.357421 -1.16016,0.357421 h -0.86133 v -0.902343 h 0.63282 q 0.44531,0 0.6914,-0.210938 0.2461,-0.210937 0.54492,-0.996094 l 0.19336,-0.492187 -2.65429,-6.457031 h 1.14258 l 2.05078,5.132812 2.05078,-5.132812 h 1.14258 z"
         style="fill:#000000;fill-opacity:1;stroke:none;stroke-width:0.34235585px;stroke-opacity:1"
         id="path2419" />
      <path
         d="m 186.53516,67.330078 q -0.86719,0 -1.3711,0.679688 -0.5039,0.673828 -0.5039,1.851562 0,1.177734 0.49804,1.857422 0.50391,0.673828 1.37696,0.673828 0.86132,0 1.36523,-0.679687 0.50391,-0.679688 0.50391,-1.851563 0,-1.166016 -0.50391,-1.845703 -0.50391,-0.685547 -1.36523,-0.685547 z m 0,-0.914062 q 1.40625,0 2.20898,0.914062 0.80273,0.914063 0.80273,2.53125 0,1.611328 -0.80273,2.53125 -0.80273,0.914063 -2.20898,0.914063 -1.41211,0 -2.21485,-0.914063 -0.79687,-0.919922 -0.79687,-2.53125 0,-1.617187 0.79687,-2.53125 0.80274,-0.914062 2.21485,-0.914062 z"
         style="fill:#000000;fill-opacity:1;stroke:none;stroke-width:0.34235585px;stroke-opacity:1"
         id="path2421" />
      <path
         d="m 198.69336,64.019531 v 0.896485 h -1.03125 q -0.58008,0 -0.80859,0.234375 -0.22266,0.234375 -0.22266,0.84375 v 0.580078 h 1.77539 v 0.83789 h -1.77539 v 5.72461 h -1.08399 v -5.72461 h -2.95898 v 5.72461 h -1.08398 v -5.72461 h -1.03125 v -0.83789 h 1.03125 v -0.457032 q 0,-1.095703 0.50976,-1.59375 0.50977,-0.503906 1.61719,-0.503906 h 1.01953 v 0.896485 h -1.03125 q -0.58008,0 -0.80859,0.234375 -0.22266,0.234375 -0.22266,0.84375 v 0.580078 h 2.95898 v -0.457032 q 0,-1.095703 0.50977,-1.59375 0.50977,-0.503906 1.61719,-0.503906 z"
         style="fill:#000000;fill-opacity:1;stroke:none;stroke-width:0.34235585px;stroke-opacity:1"
         id="path2423" />
      <path
         d="M 203.42187,64.019531 H 204.5 v 9.117188 h -1.07813 z"
         style="fill:#000000;fill-opacity:1;stroke:none;stroke-width:0.34235585px;stroke-opacity:1"
         id="path2425" />
      <path
         d="m 206.75,66.574219 h 1.07812 v 6.5625 H 206.75 Z m 0,-2.554688 h 1.07812 v 1.365235 H 206.75 Z"
         style="fill:#000000;fill-opacity:1;stroke:none;stroke-width:0.34235585px;stroke-opacity:1"
         id="path2427" />
      <path
         d="m 215.5332,69.175781 v 3.960938 h -1.07812 v -3.925782 q 0,-0.93164 -0.36328,-1.394531 -0.36328,-0.46289 -1.08985,-0.46289 -0.87304,0 -1.37695,0.55664 -0.50391,0.556641 -0.50391,1.517578 v 3.708985 h -1.08398 v -6.5625 h 1.08398 v 1.019531 q 0.38672,-0.591797 0.90821,-0.884766 0.52734,-0.292968 1.21289,-0.292968 1.13086,0 1.71093,0.703125 0.58008,0.697265 0.58008,2.05664 z"
         style="fill:#000000;fill-opacity:1;stroke:none;stroke-width:0.34235585px;stroke-opacity:1"
         id="path2429" />
      <path
         d="m 223.30859,69.585937 v 0.527344 h -4.95703 q 0.0703,1.113281 0.66797,1.699219 0.60352,0.580078 1.67578,0.580078 0.6211,0 1.20117,-0.152344 0.58594,-0.152343 1.16016,-0.457031 v 1.019531 q -0.58008,0.246094 -1.18945,0.375 -0.60938,0.128907 -1.23633,0.128907 -1.57031,0 -2.49024,-0.914063 -0.91406,-0.914062 -0.91406,-2.472656 0,-1.611328 0.86719,-2.554688 0.87305,-0.949218 2.34961,-0.949218 1.32422,0 2.0918,0.855468 0.77343,0.84961 0.77343,2.314453 z m -1.07812,-0.316406 q -0.0117,-0.884765 -0.49805,-1.412109 -0.48047,-0.527344 -1.27734,-0.527344 -0.90235,0 -1.44727,0.509766 -0.53906,0.509765 -0.62109,1.435547 z"
         style="fill:#000000;fill-opacity:1;stroke:none;stroke-width:0.34235585px;stroke-opacity:1"
         id="path2431" />
    </g>
  </g>
</svg>
