<svg viewBox="0 0 600 350" height="350" width="600" xmlns="http://www.w3.org/2000/svg" style="font-family:&quot;Lucida Grande&quot;, &quot;Lucida Sans Unicode&quot;, Arial, Helvetica, sans-serif;font-size:12px;" class="highcharts-root" version="1.1" xmlns:xlink="http://www.w3.org/1999/xlink"><desc>Created with Highcharts 9.3.0</desc><defs><clipPath id="highcharts-67nw3sj-68-"><rect fill="none" height="266" width="529" y="0" x="0"></rect></clipPath><clipPath id="highcharts-67nw3sj-74-"><rect fill="none" height="266" width="529" y="0" x="0"></rect></clipPath></defs><rect ry="0" rx="0" height="350" width="600" y="0" x="0" class="highcharts-background" fill="#ffffff"></rect><rect height="266" width="529" y="10" x="61" class="highcharts-plot-background" fill="none"></rect><g data-z-index="0" class="highcharts-pane-group"></g><g data-z-index="1" class="highcharts-grid highcharts-xaxis-grid"><path opacity="1" d="M 101.5 10 L 101.5 276" class="highcharts-grid-line" data-z-index="1" stroke-dasharray="none" fill="none"></path><path opacity="1" d="M 191.5 10 L 191.5 276" class="highcharts-grid-line" data-z-index="1" stroke-dasharray="none" fill="none"></path><path opacity="1" d="M 278.5 10 L 278.5 276" class="highcharts-grid-line" data-z-index="1" stroke-dasharray="none" fill="none"></path><path opacity="1" d="M 367.5 10 L 367.5 276" class="highcharts-grid-line" data-z-index="1" stroke-dasharray="none" fill="none"></path><path opacity="1" d="M 455.5 10 L 455.5 276" class="highcharts-grid-line" data-z-index="1" stroke-dasharray="none" fill="none"></path><path opacity="1" d="M 544.5 10 L 544.5 276" class="highcharts-grid-line" data-z-index="1" stroke-dasharray="none" fill="none"></path></g><g data-z-index="1" class="highcharts-grid highcharts-yaxis-grid"><path opacity="1" d="M 61 276.5 L 590 276.5" class="highcharts-grid-line" data-z-index="1" stroke-dasharray="none" stroke-width="1" stroke="#e6e6e6" fill="none"></path><path opacity="1" d="M 61 232.5 L 590 232.5" class="highcharts-grid-line" data-z-index="1" stroke-dasharray="none" stroke-width="1" stroke="#e6e6e6" fill="none"></path><path opacity="1" d="M 61 187.5 L 590 187.5" class="highcharts-grid-line" data-z-index="1" stroke-dasharray="none" stroke-width="1" stroke="#e6e6e6" fill="none"></path><path opacity="1" d="M 61 143.5 L 590 143.5" class="highcharts-grid-line" data-z-index="1" stroke-dasharray="none" stroke-width="1" stroke="#e6e6e6" fill="none"></path><path opacity="1" d="M 61 99.5 L 590 99.5" class="highcharts-grid-line" data-z-index="1" stroke-dasharray="none" stroke-width="1" stroke="#e6e6e6" fill="none"></path><path opacity="1" d="M 61 54.5 L 590 54.5" class="highcharts-grid-line" data-z-index="1" stroke-dasharray="none" stroke-width="1" stroke="#e6e6e6" fill="none"></path><path opacity="1" d="M 61 9.5 L 590 9.5" class="highcharts-grid-line" data-z-index="1" stroke-dasharray="none" stroke-width="1" stroke="#e6e6e6" fill="none"></path></g><rect height="266" width="529" y="10" x="61" data-z-index="1" class="highcharts-plot-border" fill="none"></rect><g data-z-index="2" class="highcharts-axis highcharts-xaxis"><path opacity="1" d="M 101.5 276 L 101.5 286" stroke-width="1" stroke="#ccd6eb" class="highcharts-tick" fill="none"></path><path opacity="1" d="M 191.5 276 L 191.5 286" stroke-width="1" stroke="#ccd6eb" class="highcharts-tick" fill="none"></path><path opacity="1" d="M 278.5 276 L 278.5 286" stroke-width="1" stroke="#ccd6eb" class="highcharts-tick" fill="none"></path><path opacity="1" d="M 367.5 276 L 367.5 286" stroke-width="1" stroke="#ccd6eb" class="highcharts-tick" fill="none"></path><path opacity="1" d="M 455.5 276 L 455.5 286" stroke-width="1" stroke="#ccd6eb" class="highcharts-tick" fill="none"></path><path opacity="1" d="M 544.5 276 L 544.5 286" stroke-width="1" stroke="#ccd6eb" class="highcharts-tick" fill="none"></path><path d="M 61 276.5 L 590 276.5" data-z-index="7" stroke-width="1" stroke="#ccd6eb" class="highcharts-axis-line" fill="none"></path></g><g data-z-index="2" class="highcharts-axis highcharts-yaxis"><text y="143" style="color:#666666;font-size:12px;fill:#666666;" class="highcharts-axis-title" transform="translate(0,0) rotate(270 23.75 143)" text-anchor="middle" data-z-index="7" x="23.75">5 WAY 1~2 SHOT</text><path d="M 61 10 L 61 276" data-z-index="7" class="highcharts-axis-line" fill="none"></path></g><g data-z-index="3" class="highcharts-series-group"><g clip-path="url(#highcharts-67nw3sj-74-)" transform="translate(61,10) scale(1 1)" opacity="1" data-z-index="1" class="highcharts-series highcharts-series-0 highcharts-scatter-series"></g><g clip-path="none" transform="translate(61,10) scale(1 1)" opacity="1" data-z-index="1" class="highcharts-markers highcharts-series-0 highcharts-scatter-series"><path class="highcharts-point tag-0" opacity="1" d="M 19 200 A 4 4 0 1 1 19.003999999333335 199.99999800000018 Z" fill="#ddd"></path><path class="highcharts-point tag-0" opacity="1" d="M 19 222 A 4 4 0 1 1 19.003999999333335 221.99999800000018 Z" fill="#ddd"></path><path class="highcharts-point tag-0" opacity="1" d="M 84 154 A 4 4 0 1 1 84.00399999933333 153.99999800000018 Z" fill="#ddd"></path><path class="highcharts-point tag-0" opacity="1" d="M 273 105 A 4 4 0 1 1 273.00399999933336 104.99999800000016 Z" fill="#ddd"></path><path class="highcharts-point tag-0" opacity="1" d="M 449 79 A 4 4 0 1 1 449.00399999933336 78.99999800000016 Z" fill="#ddd"></path></g><g clip-path="url(#highcharts-67nw3sj-74-)" transform="translate(61,10) scale(1 1)" opacity="1" data-z-index="2" class="highcharts-series highcharts-series-3 highcharts-line-series"><path stroke-linecap="round" stroke-linejoin="round" stroke-width="2" stroke="#21ccc7" data-z-index="1" class="highcharts-graph" d="M 19.19347957446 176.40233333333333 L 78.280143921777 131.09366666666665 L 179.50238038562 90.97200000000001 L 423.11379158808 60.514999999999986 L 451.68848991998 40.875333333333316 L 509.80652042554 33.338666666666654" fill="none"></path></g><g clip-path="none" transform="translate(61,10) scale(1 1)" opacity="1" data-z-index="2" class="highcharts-markers highcharts-series-3 highcharts-line-series"><path class="highcharts-point tag-0" opacity="1" d="M 19 180 A 4 4 0 1 1 19.003999999333335 179.99999800000018 Z" fill="#21ccc7"></path><path class="highcharts-point tag-0" opacity="1" d="M 78 135 A 4 4 0 1 1 78.00399999933333 134.99999800000018 Z" fill="#21ccc7"></path><path class="highcharts-point tag-0" opacity="1" d="M 179 95 A 4 4 0 1 1 179.00399999933333 94.99999800000016 Z" fill="#21ccc7"></path><path class="highcharts-point tag-0" opacity="1" d="M 423 65 A 4 4 0 1 1 423.00399999933336 64.99999800000016 Z" fill="#21ccc7"></path><path class="highcharts-point tag-0" opacity="1" d="M 451 45 A 4 4 0 1 1 451.00399999933336 44.99999800000017 Z" fill="#21ccc7"></path><path class="highcharts-point tag-0" opacity="1" d="M 509 37 A 4 4 0 1 1 509.00399999933336 36.99999800000017 Z" fill="#21ccc7"></path></g><g clip-path="url(#highcharts-67nw3sj-74-)" transform="translate(61,10) scale(1 1)" opacity="1" data-z-index="3" class="highcharts-series highcharts-series-1 highcharts-errorbar-series"><g class="highcharts-point"><path d="M 18 180 L 18 172 M 18 180 L 18 180" stroke-width="2" stroke="#21ccc7" class="highcharts-boxplot-stem" fill="none"></path><path d="M 14.5 172 L 21.5 172 M 14.5 180 L 21.5 180" stroke-width="2" stroke="#21ccc7" class="highcharts-boxplot-whisker" fill="none"></path><path d="M 0 0" stroke-width="2" stroke="#21ccc7" class="highcharts-boxplot-median" fill="none"></path></g><g class="highcharts-point"><path d="M 179 94 L 179 87 M 179 94 L 179 94" stroke-width="2" stroke="#21ccc7" class="highcharts-boxplot-stem" fill="none"></path><path d="M 175.5 87 L 182.5 87 M 175.5 94 L 182.5 94" stroke-width="2" stroke="#21ccc7" class="highcharts-boxplot-whisker" fill="none"></path><path d="M 0 0" stroke-width="2" stroke="#21ccc7" class="highcharts-boxplot-median" fill="none"></path></g><g class="highcharts-point"><path d="M 422 61 L 422 59 M 422 61 L 422 61" stroke-width="2" stroke="#21ccc7" class="highcharts-boxplot-stem" fill="none"></path><path d="M 418.5 59 L 425.5 59 M 418.5 61 L 425.5 61" stroke-width="2" stroke="#21ccc7" class="highcharts-boxplot-whisker" fill="none"></path><path d="M 0 0" stroke-width="2" stroke="#21ccc7" class="highcharts-boxplot-median" fill="none"></path></g><g class="highcharts-point"><path d="M 451 42 L 451 39 M 451 42 L 451 42" stroke-width="2" stroke="#21ccc7" class="highcharts-boxplot-stem" fill="none"></path><path d="M 447.5 39 L 454.5 39 M 447.5 42 L 454.5 42" stroke-width="2" stroke="#21ccc7" class="highcharts-boxplot-whisker" fill="none"></path><path d="M 0 0" stroke-width="2" stroke="#21ccc7" class="highcharts-boxplot-median" fill="none"></path></g><g class="highcharts-point"><path d="M 509 34 L 509 32 M 509 34 L 509 34" stroke-width="2" stroke="#21ccc7" class="highcharts-boxplot-stem" fill="none"></path><path d="M 505.5 32 L 512.5 32 M 505.5 34 L 512.5 34" stroke-width="2" stroke="#21ccc7" class="highcharts-boxplot-whisker" fill="none"></path><path d="M 0 0" stroke-width="2" stroke="#21ccc7" class="highcharts-boxplot-median" fill="none"></path></g></g><g clip-path="none" transform="translate(61,10) scale(1 1)" opacity="1" data-z-index="3" class="highcharts-markers highcharts-series-1 highcharts-errorbar-series"></g><g clip-path="url(#highcharts-67nw3sj-74-)" transform="translate(61,10) scale(1 1)" opacity="1" data-z-index="3" class="highcharts-series highcharts-series-2 highcharts-errorbar-series"><g class="highcharts-point"><path d="M 18 200 L 18 192 M 18 200 L 18 200" stroke-width="2" stroke="#ddd" class="highcharts-boxplot-stem" fill="none"></path><path d="M 14.5 192 L 21.5 192 M 14.5 200 L 21.5 200" stroke-width="2" stroke="#ddd" class="highcharts-boxplot-whisker" fill="none"></path><path d="M 0 0" stroke-width="2" stroke="#ddd" class="highcharts-boxplot-median" fill="none"></path></g><g class="highcharts-point"><path d="M 18 222 L 18 214 M 18 222 L 18 222" stroke-width="2" stroke="#ddd" class="highcharts-boxplot-stem" fill="none"></path><path d="M 14.5 214 L 21.5 214 M 14.5 222 L 21.5 222" stroke-width="2" stroke="#ddd" class="highcharts-boxplot-whisker" fill="none"></path><path d="M 0 0" stroke-width="2" stroke="#ddd" class="highcharts-boxplot-median" fill="none"></path></g><g class="highcharts-point"><path d="M 83 157 L 83 143 M 83 157 L 83 157" stroke-width="2" stroke="#ddd" class="highcharts-boxplot-stem" fill="none"></path><path d="M 79.5 143 L 86.5 143 M 79.5 157 L 86.5 157" stroke-width="2" stroke="#ddd" class="highcharts-boxplot-whisker" fill="none"></path><path d="M 0 0" stroke-width="2" stroke="#ddd" class="highcharts-boxplot-median" fill="none"></path></g><g class="highcharts-point"><path d="M 448 76 L 448 73 M 448 76 L 448 76" stroke-width="2" stroke="#ddd" class="highcharts-boxplot-stem" fill="none"></path><path d="M 444.5 73 L 451.5 73 M 444.5 76 L 451.5 76" stroke-width="2" stroke="#ddd" class="highcharts-boxplot-whisker" fill="none"></path><path d="M 0 0" stroke-width="2" stroke="#ddd" class="highcharts-boxplot-median" fill="none"></path></g></g><g clip-path="none" transform="translate(61,10) scale(1 1)" opacity="1" data-z-index="3" class="highcharts-markers highcharts-series-2 highcharts-errorbar-series"></g></g><g transform="translate(61,10) scale(1 1)" opacity="1" data-z-index="3" class="highcharts-data-labels highcharts-series-3 highcharts-line-series"><g style="pointer-events:none;" opacity="0" transform="translate(-5,155)" data-z-index="1" class="highcharts-label highcharts-data-label highcharts-data-label-color-undefined highcharts-data-label-hidden"><text style="color:#4a4a4a;font-size:11px;font-weight:normal;fill:#4a4a4a;" y="16" data-z-index="1" x="5"><tspan style="" stroke-linejoin="round" stroke-width="2px" stroke="#FFFFFF" fill="#FFFFFF" class="highcharts-text-outline">StructShot<tspan y="16" x="5">​</tspan></tspan>StructShot</text></g><g transform="translate(42,110)" data-z-index="1" class="highcharts-label highcharts-data-label highcharts-data-label-color-undefined"><text style="color:#4a4a4a;font-size:11px;font-weight:normal;fill:#4a4a4a;" y="16" data-z-index="1" x="5"><tspan style="" stroke-linejoin="round" stroke-width="2px" stroke="#FFFFFF" fill="#FFFFFF" class="highcharts-text-outline">CONTaiNER<tspan y="16" x="5">​</tspan></tspan>CONTaiNER</text></g><g style="pointer-events:none;" opacity="0" transform="translate(118,70)" data-z-index="1" class="highcharts-label highcharts-data-label highcharts-data-label-color-undefined highcharts-data-label-hidden"><text style="color:#4a4a4a;font-size:11px;font-weight:normal;fill:#4a4a4a;" y="16" data-z-index="1" x="5"><tspan style="" stroke-linejoin="round" stroke-width="2px" stroke="#FFFFFF" fill="#FFFFFF" class="highcharts-text-outline">DecomposedMetaNER<tspan y="16" x="5">​</tspan></tspan>DecomposedMetaNER</text></g><g style="pointer-events:none;" opacity="0" transform="translate(402,40)" data-z-index="1" class="highcharts-label highcharts-data-label highcharts-data-label-color-undefined highcharts-data-label-hidden"><text style="color:#4a4a4a;font-size:11px;font-weight:normal;fill:#4a4a4a;" y="16" data-z-index="1" x="5"><tspan style="" stroke-linejoin="round" stroke-width="2px" stroke="#FFFFFF" fill="#FFFFFF" class="highcharts-text-outline">MSDP<tspan y="16" x="5">​</tspan></tspan>MSDP</text></g><g style="pointer-events:none;" opacity="0" transform="translate(426,20)" data-z-index="1" class="highcharts-label highcharts-data-label highcharts-data-label-color-undefined highcharts-data-label-hidden"><text style="color:#4a4a4a;font-size:11px;font-weight:normal;fill:#4a4a4a;" y="16" data-z-index="1" x="5"><tspan style="" stroke-linejoin="round" stroke-width="2px" stroke="#FFFFFF" fill="#FFFFFF" class="highcharts-text-outline">TadNER<tspan y="16" x="5">​</tspan></tspan>TadNER</text></g><g style="pointer-events:none;" opacity="0" transform="translate(486,12)" data-z-index="1" class="highcharts-label highcharts-data-label highcharts-data-label-color-undefined highcharts-data-label-hidden"><text style="color:#4a4a4a;font-size:11px;font-weight:normal;fill:#4a4a4a;" y="16" data-z-index="1" x="5"><tspan style="" stroke-linejoin="round" stroke-width="2px" stroke="#FFFFFF" fill="#FFFFFF" class="highcharts-text-outline">NuNER<tspan y="16" x="5">​</tspan></tspan>NuNER</text></g></g><text y="24" style="color:#333333;font-size:18px;fill:#333333;" data-z-index="4" class="highcharts-title" text-anchor="middle" x="300"></text><text y="24" style="color:#666666;fill:#666666;" data-z-index="4" class="highcharts-subtitle" text-anchor="middle" x="300"></text><text y="347" style="color:#666666;fill:#666666;" data-z-index="4" class="highcharts-caption" text-anchor="start" x="10"></text><g transform="translate(61,10) scale(1 1)" opacity="1" data-z-index="6" class="highcharts-data-labels highcharts-series-1 highcharts-errorbar-series"><g transform="translate(0,151)" data-z-index="1" class="highcharts-label highcharts-data-label highcharts-data-label-color-undefined"><text style="color:#000000;font-size:11px;font-weight:bold;fill:#000000;" y="16" data-z-index="1" x="5"><tspan style="" stroke-linejoin="round" stroke-width="2px" stroke="#FFFFFF" fill="#FFFFFF" class="highcharts-text-outline">31.11<tspan y="16" x="5">​</tspan></tspan>31.11</text></g><g transform="translate(161,66)" data-z-index="1" class="highcharts-label highcharts-data-label highcharts-data-label-color-undefined"><text style="color:#000000;font-size:11px;font-weight:bold;fill:#000000;" y="16" data-z-index="1" x="5"><tspan stroke-linejoin="round" stroke-width="2px" stroke="#FFFFFF" fill="#FFFFFF" class="highcharts-text-outline">50.33<tspan y="16" x="5">​</tspan></tspan>50.33</text></g><g transform="translate(404,38)" data-z-index="1" class="highcharts-label highcharts-data-label highcharts-data-label-color-undefined"><text style="color:#000000;font-size:11px;font-weight:bold;fill:#000000;" y="16" data-z-index="1" x="5"><tspan stroke-linejoin="round" stroke-width="2px" stroke="#FFFFFF" fill="#FFFFFF" class="highcharts-text-outline">56.63<tspan y="16" x="5">​</tspan></tspan>56.63</text></g><g transform="translate(436,18)" data-z-index="1" class="highcharts-label highcharts-data-label highcharts-data-label-color-undefined"><text style="color:#000000;font-size:11px;font-weight:bold;fill:#000000;" y="16" data-z-index="1" x="5"><tspan style="" stroke-linejoin="round" stroke-width="2px" stroke="#FFFFFF" fill="#FFFFFF" class="highcharts-text-outline">61.1<tspan y="16" x="5">​</tspan></tspan>61.1</text></g><g transform="translate(491,11)" data-z-index="1" class="highcharts-label highcharts-data-label highcharts-data-label-color-undefined"><text style="color:#000000;font-size:11px;font-weight:bold;fill:#000000;" y="16" data-z-index="1" x="5"><tspan stroke-linejoin="round" stroke-width="2px" stroke="#FFFFFF" fill="#FFFFFF" class="highcharts-text-outline">62.76<tspan y="16" x="5">​</tspan></tspan>62.76</text></g><g transform="translate(-5,181)" data-z-index="1" class="highcharts-label highcharts-data-label highcharts-data-label-color-undefined"><text style="color:#000000;font-size:11px;font-weight:bold;fill:#000000;" y="16" data-z-index="1" x="5"><tspan style="" stroke-linejoin="round" stroke-width="2px" stroke="#FFFFFF" fill="#FFFFFF" class="highcharts-text-outline">29.310000000000002<tspan y="16" x="5">​</tspan></tspan>29.310000000000002</text></g><g transform="translate(121,96)" data-z-index="1" class="highcharts-label highcharts-data-label highcharts-data-label-color-undefined"><text style="color:#000000;font-size:11px;font-weight:bold;fill:#000000;" y="16" data-z-index="1" x="5"><tspan stroke-linejoin="round" stroke-width="2px" stroke="#FFFFFF" fill="#FFFFFF" class="highcharts-text-outline">48.629999999999995<tspan y="16" x="5">​</tspan></tspan>48.629999999999995</text></g><g transform="translate(404,63)" data-z-index="1" class="highcharts-label highcharts-data-label highcharts-data-label-color-undefined"><text style="color:#000000;font-size:11px;font-weight:bold;fill:#000000;" y="16" data-z-index="1" x="5"><tspan stroke-linejoin="round" stroke-width="2px" stroke="#FFFFFF" fill="#FFFFFF" class="highcharts-text-outline">56.07<tspan y="16" x="5">​</tspan></tspan>56.07</text></g><g transform="translate(433,43)" data-z-index="1" class="highcharts-label highcharts-data-label highcharts-data-label-color-undefined"><text style="color:#000000;font-size:11px;font-weight:bold;fill:#000000;" y="16" data-z-index="1" x="5"><tspan stroke-linejoin="round" stroke-width="2px" stroke="#FFFFFF" fill="#FFFFFF" class="highcharts-text-outline">60.46<tspan y="16" x="5">​</tspan></tspan>60.46</text></g><g style="pointer-events:none;" opacity="0" transform="translate(417,36)" data-z-index="1" class="highcharts-label highcharts-data-label highcharts-data-label-color-undefined highcharts-data-label-hidden"><text style="color:#000000;font-size:11px;font-weight:bold;fill:#000000;" y="16" data-z-index="1" x="5"><tspan stroke-linejoin="round" stroke-width="2px" stroke="#FFFFFF" fill="#FFFFFF" class="highcharts-text-outline">62.199999999999996<tspan y="16" x="5">​</tspan></tspan>62.199999999999996</text></g></g><g transform="translate(61,10) scale(1 1)" opacity="1" data-z-index="6" class="highcharts-data-labels highcharts-series-2 highcharts-errorbar-series"><g style="pointer-events:none;" opacity="0" transform="translate(0,171)" data-z-index="1" class="highcharts-label highcharts-data-label highcharts-data-label-color-undefined highcharts-data-label-hidden"><text style="color:#000000;font-size:11px;font-weight:bold;fill:#000000;" y="16" data-z-index="1" x="5"><tspan stroke-linejoin="round" stroke-width="2px" stroke="#FFFFFF" fill="#FFFFFF" class="highcharts-text-outline">26.69<tspan y="16" x="5">​</tspan></tspan>26.69</text></g><g style="pointer-events:none;" opacity="0" transform="translate(3,194)" data-z-index="1" class="highcharts-label highcharts-data-label highcharts-data-label-color-undefined highcharts-data-label-hidden"><text style="color:#000000;font-size:11px;font-weight:bold;fill:#000000;" y="16" data-z-index="1" x="5"><tspan stroke-linejoin="round" stroke-width="2px" stroke="#FFFFFF" fill="#FFFFFF" class="highcharts-text-outline">21.6<tspan y="16" x="5">​</tspan></tspan>21.6</text></g><g transform="translate(65,122)" data-z-index="1" class="highcharts-label highcharts-data-label highcharts-data-label-color-undefined"><text style="color:#000000;font-size:11px;font-weight:bold;fill:#000000;" y="16" data-z-index="1" x="5"><tspan stroke-linejoin="round" stroke-width="2px" stroke="#FFFFFF" fill="#FFFFFF" class="highcharts-text-outline">37.68<tspan y="16" x="5">​</tspan></tspan>37.68</text></g><g style="pointer-events:none;" opacity="0" transform="translate(430,53)" data-z-index="1" class="highcharts-label highcharts-data-label highcharts-data-label-color-undefined highcharts-data-label-hidden"><text style="color:#000000;font-size:11px;font-weight:bold;fill:#000000;" y="16" data-z-index="1" x="5"><tspan stroke-linejoin="round" stroke-width="2px" stroke="#FFFFFF" fill="#FFFFFF" class="highcharts-text-outline">53.33<tspan y="16" x="5">​</tspan></tspan>53.33</text></g><g transform="translate(0,201)" data-z-index="1" class="highcharts-label highcharts-data-label highcharts-data-label-color-undefined"><text style="color:#000000;font-size:11px;font-weight:bold;fill:#000000;" y="16" data-z-index="1" x="5"><tspan stroke-linejoin="round" stroke-width="2px" stroke="#FFFFFF" fill="#FFFFFF" class="highcharts-text-outline">24.87<tspan y="16" x="5">​</tspan></tspan>24.87</text></g><g transform="translate(0,223)" data-z-index="1" class="highcharts-label highcharts-data-label highcharts-data-label-color-undefined"><text style="color:#000000;font-size:11px;font-weight:bold;fill:#000000;" y="16" data-z-index="1" x="5"><tspan stroke-linejoin="round" stroke-width="2px" stroke="#FFFFFF" fill="#FFFFFF" class="highcharts-text-outline">19.92<tspan y="16" x="5">​</tspan></tspan>19.92</text></g><g transform="translate(65,158)" data-z-index="1" class="highcharts-label highcharts-data-label highcharts-data-label-color-undefined"><text style="color:#000000;font-size:11px;font-weight:bold;fill:#000000;" y="16" data-z-index="1" x="5"><tspan stroke-linejoin="round" stroke-width="2px" stroke="#FFFFFF" fill="#FFFFFF" class="highcharts-text-outline">34.48<tspan y="16" x="5">​</tspan></tspan>34.48</text></g><g transform="translate(390,78)" data-z-index="1" class="highcharts-label highcharts-data-label highcharts-data-label-color-undefined"><text style="color:#000000;font-size:11px;font-weight:bold;fill:#000000;" y="16" data-z-index="1" x="5"><tspan stroke-linejoin="round" stroke-width="2px" stroke="#FFFFFF" fill="#FFFFFF" class="highcharts-text-outline">52.730000000000004<tspan y="16" x="5">​</tspan></tspan>52.730000000000004</text></g></g><g transform="translate(108,308)" data-z-index="7" class="highcharts-legend highcharts-no-tooltip"><rect visibility="visible" height="27" width="383" y="0" x="0" ry="0" rx="0" class="highcharts-legend-box" fill="#ffffff"></rect><g data-z-index="1"><g><g transform="translate(8,3)" data-z-index="1" class="highcharts-legend-item highcharts-scatter-series highcharts-color-undefined highcharts-series-0"><path class="highcharts-graph" d="M 0 13 L 16 13" fill="none"></path><path opacity="1" class="highcharts-point" d="M 8 17 A 4 4 0 1 1 8.003999999333336 16.99999800000017 Z" fill="#ddd"></path><text y="17" data-z-index="2" text-anchor="start" style="color:#414141;cursor:pointer;font-size:14px;font-weight:normal;fill:#414141;" x="21">Other models</text></g><g transform="translate(133.046875,3)" data-z-index="1" class="highcharts-legend-item highcharts-line-series highcharts-color-undefined highcharts-series-3"><path stroke-width="2" stroke="#21ccc7" class="highcharts-graph" d="M 0 13 L 16 13" fill="none"></path><path opacity="1" class="highcharts-point" d="M 8 17 A 4 4 0 1 1 8.003999999333336 16.99999800000017 Z" fill="#21ccc7"></path><text data-z-index="2" text-anchor="start" style="color:#414141;cursor:pointer;font-size:14px;font-weight:normal;fill:#414141;" y="17" x="21">Models with highest 5 way 1~2 shot</text></g></g></g></g><g data-z-index="7" class="highcharts-axis-labels highcharts-xaxis-labels"><text opacity="1" y="295" transform="translate(0,0)" text-anchor="middle" style="color:#666666;cursor:default;font-size:11px;fill:#666666;" x="102.47205793492">Jul '21</text><text opacity="1" y="295" transform="translate(0,0)" text-anchor="middle" style="color:#666666;cursor:default;font-size:11px;fill:#666666;" x="191.58637137678">Jan '22</text><text opacity="1" y="295" transform="translate(0,0)" text-anchor="middle" style="color:#666666;cursor:default;font-size:11px;fill:#666666;" x="279.24773405599">Jul '22</text><text opacity="1" y="295" transform="translate(0,0)" text-anchor="middle" style="color:#666666;cursor:default;font-size:11px;fill:#666666;" x="368.36204749785">Jan '23</text><text opacity="1" y="295" transform="translate(0,0)" text-anchor="middle" style="color:#666666;cursor:default;font-size:11px;fill:#666666;" x="456.02341017706">Jul '23</text><text opacity="1" y="295" transform="translate(0,0)" text-anchor="middle" style="color:#666666;cursor:default;font-size:11px;fill:#666666;" x="545.13772361892">Jan '24</text></g><g data-z-index="7" class="highcharts-axis-labels highcharts-yaxis-labels"><text opacity="1" y="281" transform="translate(0,0)" text-anchor="end" style="color:#666666;cursor:default;font-size:11px;fill:#666666;" x="46">10</text><text opacity="1" y="237" transform="translate(0,0)" text-anchor="end" style="color:#666666;cursor:default;font-size:11px;fill:#666666;" x="46">20</text><text opacity="1" y="192" transform="translate(0,0)" text-anchor="end" style="color:#666666;cursor:default;font-size:11px;fill:#666666;" x="46">30</text><text opacity="1" y="148" transform="translate(0,0)" text-anchor="end" style="color:#666666;cursor:default;font-size:11px;fill:#666666;" x="46">40</text><text opacity="1" y="104" transform="translate(0,0)" text-anchor="end" style="color:#666666;cursor:default;font-size:11px;fill:#666666;" x="46">50</text><text opacity="1" y="59" transform="translate(0,0)" text-anchor="end" style="color:#666666;cursor:default;font-size:11px;fill:#666666;" x="46">60</text><text opacity="1" y="15" transform="translate(0,0)" text-anchor="end" style="color:#666666;cursor:default;font-size:11px;fill:#666666;" x="46">70</text></g></svg>