<svg viewBox="0 0 600 350" height="350" width="600" xmlns="http://www.w3.org/2000/svg" style="font-family:&quot;Lucida Grande&quot;, &quot;Lucida Sans Unicode&quot;, Arial, Helvetica, sans-serif;font-size:12px;" class="highcharts-root" version="1.1" xmlns:xlink="http://www.w3.org/1999/xlink"><desc>Created with Highcharts 9.3.0</desc><defs><clipPath id="highcharts-uepta5u-84-"><rect fill="none" height="266" width="529" y="0" x="0"></rect></clipPath><clipPath id="highcharts-uepta5u-148-"><rect fill="none" height="266" width="529" y="0" x="0"></rect></clipPath></defs><rect ry="0" rx="0" height="350" width="600" y="0" x="0" class="highcharts-background" fill="#ffffff"></rect><rect height="266" width="529" y="10" x="61" class="highcharts-plot-background" fill="none"></rect><g data-z-index="0" class="highcharts-pane-group"></g><g data-z-index="1" class="highcharts-grid highcharts-xaxis-grid"><path opacity="1" d="M 82.5 10 L 82.5 276" class="highcharts-grid-line" data-z-index="1" stroke-dasharray="none" fill="none"></path><path opacity="1" d="M 145.5 10 L 145.5 276" class="highcharts-grid-line" data-z-index="1" stroke-dasharray="none" fill="none"></path><path opacity="1" d="M 209.5 10 L 209.5 276" class="highcharts-grid-line" data-z-index="1" stroke-dasharray="none" fill="none"></path><path opacity="1" d="M 272.5 10 L 272.5 276" class="highcharts-grid-line" data-z-index="1" stroke-dasharray="none" fill="none"></path><path opacity="1" d="M 335.5 10 L 335.5 276" class="highcharts-grid-line" data-z-index="1" stroke-dasharray="none" fill="none"></path><path opacity="1" d="M 399.5 10 L 399.5 276" class="highcharts-grid-line" data-z-index="1" stroke-dasharray="none" fill="none"></path><path opacity="1" d="M 462.5 10 L 462.5 276" class="highcharts-grid-line" data-z-index="1" stroke-dasharray="none" fill="none"></path><path opacity="1" d="M 525.5 10 L 525.5 276" class="highcharts-grid-line" data-z-index="1" stroke-dasharray="none" fill="none"></path><path opacity="1" d="M 589.5 10 L 589.5 276" class="highcharts-grid-line" data-z-index="1" stroke-dasharray="none" fill="none"></path></g><g data-z-index="1" class="highcharts-grid highcharts-yaxis-grid"><path opacity="1" d="M 61 276.5 L 590 276.5" class="highcharts-grid-line" data-z-index="1" stroke-dasharray="none" stroke-width="1" stroke="#e6e6e6" fill="none"></path><path opacity="1" d="M 61 238.5 L 590 238.5" class="highcharts-grid-line" data-z-index="1" stroke-dasharray="none" stroke-width="1" stroke="#e6e6e6" fill="none"></path><path opacity="1" d="M 61 200.5 L 590 200.5" class="highcharts-grid-line" data-z-index="1" stroke-dasharray="none" stroke-width="1" stroke="#e6e6e6" fill="none"></path><path opacity="1" d="M 61 162.5 L 590 162.5" class="highcharts-grid-line" data-z-index="1" stroke-dasharray="none" stroke-width="1" stroke="#e6e6e6" fill="none"></path><path opacity="1" d="M 61 124.5 L 590 124.5" class="highcharts-grid-line" data-z-index="1" stroke-dasharray="none" stroke-width="1" stroke="#e6e6e6" fill="none"></path><path opacity="1" d="M 61 86.5 L 590 86.5" class="highcharts-grid-line" data-z-index="1" stroke-dasharray="none" stroke-width="1" stroke="#e6e6e6" fill="none"></path><path opacity="1" d="M 61 48.5 L 590 48.5" class="highcharts-grid-line" data-z-index="1" stroke-dasharray="none" stroke-width="1" stroke="#e6e6e6" fill="none"></path><path opacity="1" d="M 61 9.5 L 590 9.5" class="highcharts-grid-line" data-z-index="1" stroke-dasharray="none" stroke-width="1" stroke="#e6e6e6" fill="none"></path></g><rect height="266" width="529" y="10" x="61" data-z-index="1" class="highcharts-plot-border" fill="none"></rect><g data-z-index="2" class="highcharts-axis highcharts-xaxis"><path opacity="1" d="M 82.5 276 L 82.5 286" stroke-width="1" stroke="#ccd6eb" class="highcharts-tick" fill="none"></path><path opacity="1" d="M 145.5 276 L 145.5 286" stroke-width="1" stroke="#ccd6eb" class="highcharts-tick" fill="none"></path><path opacity="1" d="M 209.5 276 L 209.5 286" stroke-width="1" stroke="#ccd6eb" class="highcharts-tick" fill="none"></path><path opacity="1" d="M 272.5 276 L 272.5 286" stroke-width="1" stroke="#ccd6eb" class="highcharts-tick" fill="none"></path><path opacity="1" d="M 335.5 276 L 335.5 286" stroke-width="1" stroke="#ccd6eb" class="highcharts-tick" fill="none"></path><path opacity="1" d="M 399.5 276 L 399.5 286" stroke-width="1" stroke="#ccd6eb" class="highcharts-tick" fill="none"></path><path opacity="1" d="M 462.5 276 L 462.5 286" stroke-width="1" stroke="#ccd6eb" class="highcharts-tick" fill="none"></path><path opacity="1" d="M 525.5 276 L 525.5 286" stroke-width="1" stroke="#ccd6eb" class="highcharts-tick" fill="none"></path><path opacity="1" d="M 589.5 276 L 589.5 286" stroke-width="1" stroke="#ccd6eb" class="highcharts-tick" fill="none"></path><path d="M 61 276.5 L 590 276.5" data-z-index="7" stroke-width="1" stroke="#ccd6eb" class="highcharts-axis-line" fill="none"></path></g><g data-z-index="2" class="highcharts-axis highcharts-yaxis"><text y="143" style="color:#666666;font-size:12px;fill:#666666;" class="highcharts-axis-title" transform="translate(0,0) rotate(270 23.75 143)" text-anchor="middle" data-z-index="7" x="23.75">F1</text><path d="M 61 10 L 61 276" data-z-index="7" class="highcharts-axis-line" fill="none"></path></g><g data-z-index="3" class="highcharts-series-group"><g clip-path="url(#highcharts-uepta5u-148-)" transform="translate(61,10) scale(1 1)" opacity="1" data-z-index="1" class="highcharts-series highcharts-series-0 highcharts-scatter-series"></g><g clip-path="none" transform="translate(61,10) scale(1 1)" opacity="1" data-z-index="1" class="highcharts-markers highcharts-series-0 highcharts-scatter-series"><path class="highcharts-point tag-8" opacity="1" d="M 32 95 A 4 4 0 1 1 32.00399999933334 94.99999800000016 Z" fill="#ddd"></path><path class="highcharts-point tag-8" opacity="1" d="M 32 100 A 4 4 0 1 1 32.00399999933334 99.99999800000016 Z" fill="#ddd"></path><path class="highcharts-point tag-8" opacity="1" d="M 35 96 A 4 4 0 1 1 35.00399999933334 95.99999800000016 Z" fill="#ddd"></path><path class="highcharts-point tag-0" opacity="1" d="M 90 92 A 4 4 0 1 1 90.00399999933333 91.99999800000016 Z" fill="#ddd"></path><path class="highcharts-point tag-0" opacity="1" d="M 98 94 A 4 4 0 1 1 98.00399999933333 93.99999800000016 Z" fill="#ddd"></path><path class="highcharts-point tag-0" opacity="1" d="M 119 87 A 4 4 0 1 1 119.00399999933333 86.99999800000016 Z" fill="#ddd"></path><path class="highcharts-point tag-8" opacity="1" d="M 129 94 A 4 4 0 1 1 129.00399999933333 93.99999800000016 Z" fill="#ddd"></path><path class="highcharts-point tag-8" opacity="1" d="M 140 88 A 4 4 0 1 1 140.00399999933333 87.99999800000016 Z" fill="#ddd"></path><path class="highcharts-point tag-8" opacity="1" d="M 153 95 A 4 4 0 1 1 153.00399999933333 94.99999800000016 Z" fill="#ddd"></path><path class="highcharts-point tag-0" opacity="1" d="M 167 79 A 4 4 0 1 1 167.00399999933333 78.99999800000016 Z" fill="#ddd"></path><path class="highcharts-point tag-8" opacity="1" d="M 170 88 A 4 4 0 1 1 170.00399999933333 87.99999800000016 Z" fill="#ddd"></path><path class="highcharts-point tag-0" opacity="1" d="M 170 92 A 4 4 0 1 1 170.00399999933333 91.99999800000016 Z" fill="#ddd"></path><path class="highcharts-point tag-0" opacity="1" d="M 173 189 A 4 4 0 1 1 173.00399999933333 188.99999800000018 Z" fill="#ddd"></path><path class="highcharts-point tag-8" opacity="1" d="M 176 85 A 4 4 0 1 1 176.00399999933333 84.99999800000016 Z" fill="#ddd"></path><path class="highcharts-point tag-0" opacity="1" d="M 177 92 A 4 4 0 1 1 177.00399999933333 91.99999800000016 Z" fill="#ddd"></path><path class="highcharts-point tag-0" opacity="1" d="M 190 74 A 4 4 0 1 1 190.00399999933333 73.99999800000016 Z" fill="#ddd"></path><path class="highcharts-point tag-0" opacity="1" d="M 190 82 A 4 4 0 1 1 190.00399999933333 81.99999800000016 Z" fill="#ddd"></path><path class="highcharts-point tag-0" opacity="1" d="M 194 68 A 4 4 0 1 1 194.00399999933333 67.99999800000016 Z" fill="#ddd"></path><path class="highcharts-point tag-0" opacity="1" d="M 194 68 A 4 4 0 1 1 194.00399999933333 67.99999800000016 Z" fill="#ddd"></path><path class="highcharts-point tag-8" opacity="1" d="M 200 87 A 4 4 0 1 1 200.00399999933333 86.99999800000016 Z" fill="#ddd"></path><path class="highcharts-point tag-8" opacity="1" d="M 202 88 A 4 4 0 1 1 202.00399999933333 87.99999800000016 Z" fill="#ddd"></path><path class="highcharts-point tag-8 tag-27" opacity="1" d="M 216 85 A 4 4 0 1 1 216.00399999933333 84.99999800000016 Z" fill="#ddd"></path><path class="highcharts-point tag-8" opacity="1" d="M 236 52 A 4 4 0 1 1 236.00399999933333 51.99999800000017 Z" fill="#ddd"></path><path class="highcharts-point tag-4" opacity="1" d="M 238 52 A 4 4 0 1 1 238.00399999933333 51.99999800000017 Z" fill="#ddd"></path><path class="highcharts-point tag-0" opacity="1" d="M 238 81 A 4 4 0 1 1 238.00399999933333 80.99999800000016 Z" fill="#ddd"></path><path class="highcharts-point tag-0" opacity="1" d="M 241 75 A 4 4 0 1 1 241.00399999933333 74.99999800000016 Z" fill="#ddd"></path><path class="highcharts-point tag-0" opacity="1" d="M 241 219 A 4 4 0 1 1 241.00399999933333 218.99999800000018 Z" fill="#ddd"></path><path class="highcharts-point tag-0" opacity="1" d="M 243 66 A 4 4 0 1 1 243.00399999933333 65.99999800000016 Z" fill="#ddd"></path><path class="highcharts-point tag-0" opacity="1" d="M 243 84 A 4 4 0 1 1 243.00399999933333 83.99999800000016 Z" fill="#ddd"></path><path class="highcharts-point tag-0" opacity="1" d="M 245 74 A 4 4 0 1 1 245.00399999933333 73.99999800000016 Z" fill="#ddd"></path><path class="highcharts-point tag-8" opacity="1" d="M 246 72 A 4 4 0 1 1 246.00399999933333 71.99999800000016 Z" fill="#ddd"></path><path class="highcharts-point tag-4 tag-8" opacity="1" d="M 251 54 A 4 4 0 1 1 251.00399999933333 53.99999800000017 Z" fill="#ddd"></path><path class="highcharts-point tag-8" opacity="1" d="M 254 53 A 4 4 0 1 1 254.00399999933333 52.99999800000017 Z" fill="#ddd"></path><path class="highcharts-point tag-0" opacity="1" d="M 257 72 A 4 4 0 1 1 257.00399999933336 71.99999800000016 Z" fill="#ddd"></path><path class="highcharts-point tag-313 tag-4" opacity="1" d="M 263 60 A 4 4 0 1 1 263.00399999933336 59.99999800000017 Z" fill="#ddd"></path><path class="highcharts-point tag-4" opacity="1" d="M 265 54 A 4 4 0 1 1 265.00399999933336 53.99999800000017 Z" fill="#ddd"></path><path class="highcharts-point tag-0" opacity="1" d="M 265 81 A 4 4 0 1 1 265.00399999933336 80.99999800000016 Z" fill="#ddd"></path><path class="highcharts-point tag-4" opacity="1" d="M 265 55 A 4 4 0 1 1 265.00399999933336 54.99999800000017 Z" fill="#ddd"></path><path class="highcharts-point tag-4" opacity="1" d="M 266 68 A 4 4 0 1 1 266.00399999933336 67.99999800000016 Z" fill="#ddd"></path><path class="highcharts-point tag-0" opacity="1" d="M 266 76 A 4 4 0 1 1 266.00399999933336 75.99999800000016 Z" fill="#ddd"></path><path class="highcharts-point tag-8" opacity="1" d="M 298 52 A 4 4 0 1 1 298.00399999933336 51.99999800000017 Z" fill="#ddd"></path><path class="highcharts-point tag-0" opacity="1" d="M 324 49 A 4 4 0 1 1 324.00399999933336 48.99999800000017 Z" fill="#ddd"></path><path class="highcharts-point tag-4" opacity="1" d="M 330 40 A 4 4 0 1 1 330.00399999933336 39.99999800000017 Z" fill="#ddd"></path><path class="highcharts-point tag-0" opacity="1" d="M 335 144 A 4 4 0 1 1 335.00399999933336 143.99999800000018 Z" fill="#ddd"></path><path class="highcharts-point tag-0" opacity="1" d="M 338 45 A 4 4 0 1 1 338.00399999933336 44.99999800000017 Z" fill="#ddd"></path><path class="highcharts-point tag-0" opacity="1" d="M 338 56 A 4 4 0 1 1 338.00399999933336 55.99999800000017 Z" fill="#ddd"></path><path class="highcharts-point tag-8" opacity="1" d="M 339 47 A 4 4 0 1 1 339.00399999933336 46.99999800000017 Z" fill="#ddd"></path><path class="highcharts-point tag-4" opacity="1" d="M 344 62 A 4 4 0 1 1 344.00399999933336 61.99999800000017 Z" fill="#ddd"></path><path class="highcharts-point tag-153" opacity="1" d="M 357 38 A 4 4 0 1 1 357.00399999933336 37.99999800000017 Z" fill="#ddd"></path><path class="highcharts-point tag-4" opacity="1" d="M 360 45 A 4 4 0 1 1 360.00399999933336 44.99999800000017 Z" fill="#ddd"></path><path class="highcharts-point tag-0" opacity="1" d="M 360 54 A 4 4 0 1 1 360.00399999933336 53.99999800000017 Z" fill="#ddd"></path><path class="highcharts-point tag-4" opacity="1" d="M 365 56 A 4 4 0 1 1 365.00399999933336 55.99999800000017 Z" fill="#ddd"></path><path class="highcharts-point tag-0" opacity="1" d="M 382 42 A 4 4 0 1 1 382.00399999933336 41.99999800000017 Z" fill="#ddd"></path><path class="highcharts-point tag-0" opacity="1" d="M 392 50 A 4 4 0 1 1 392.00399999933336 49.99999800000017 Z" fill="#ddd"></path><path class="highcharts-point tag-0" opacity="1" d="M 399 60 A 4 4 0 1 1 399.00399999933336 59.99999800000017 Z" fill="#ddd"></path><path class="highcharts-point tag-313 tag-4" opacity="1" d="M 415 63 A 4 4 0 1 1 415.00399999933336 62.99999800000017 Z" fill="#ddd"></path><path class="highcharts-point tag-0" opacity="1" d="M 422 49 A 4 4 0 1 1 422.00399999933336 48.99999800000017 Z" fill="#ddd"></path><path class="highcharts-point tag-0" opacity="1" d="M 453 40 A 4 4 0 1 1 453.00399999933336 39.99999800000017 Z" fill="#ddd"></path><path class="highcharts-point tag-0" opacity="1" d="M 453 46 A 4 4 0 1 1 453.00399999933336 45.99999800000017 Z" fill="#ddd"></path><path class="highcharts-point tag-0" opacity="1" d="M 489 65 A 4 4 0 1 1 489.00399999933336 64.99999800000016 Z" fill="#ddd"></path><path class="highcharts-point tag-0" opacity="1" d="M 490 59 A 4 4 0 1 1 490.00399999933336 58.99999800000017 Z" fill="#ddd"></path><path class="highcharts-point tag-0" opacity="1" d="M 490 72 A 4 4 0 1 1 490.00399999933336 71.99999800000016 Z" fill="#ddd"></path><path class="highcharts-point tag-0" opacity="1" d="M 513 59 A 4 4 0 1 1 513.0039999993334 58.99999800000017 Z" fill="#ddd"></path></g><g clip-path="url(#highcharts-uepta5u-148-)" transform="translate(61,10) scale(1 1)" opacity="1" data-z-index="2" class="highcharts-series highcharts-series-3 highcharts-line-series"><path stroke-linecap="round" stroke-linejoin="round" stroke-width="2" stroke="#21ccc7" data-z-index="1" class="highcharts-graph" d="M 15.560864432347 83.21999999999991 L 105.76877418509 77.32999999999987 L 156.42398504624 71.82000000000002 L 185.39460221683 55.289999999999935 L 225.29425460746 47.5 L 301.79750114777 42.94000000000011 L 322.96166458976 32.30000000000007 L 344.12582803174 26.600000000000108" fill="none"></path></g><g clip-path="none" transform="translate(61,10) scale(1 1)" opacity="1" data-z-index="2" class="highcharts-markers highcharts-series-3 highcharts-line-series"><path class="highcharts-point tag-8" opacity="1" d="M 15 87 A 4 4 0 1 1 15.003999999333336 86.99999800000016 Z" fill="#21ccc7"></path><path class="highcharts-point tag-0" opacity="1" d="M 105 81 A 4 4 0 1 1 105.00399999933333 80.99999800000016 Z" fill="#21ccc7"></path><path class="highcharts-point tag-8" opacity="1" d="M 156 76 A 4 4 0 1 1 156.00399999933333 75.99999800000016 Z" fill="#21ccc7"></path><path class="highcharts-point tag-8" opacity="1" d="M 185 59 A 4 4 0 1 1 185.00399999933333 58.99999800000017 Z" fill="#21ccc7"></path><path class="highcharts-point tag-0" opacity="1" d="M 225 52 A 4 4 0 1 1 225.00399999933333 51.99999800000017 Z" fill="#21ccc7"></path><path class="highcharts-point tag-4" opacity="1" d="M 301 47 A 4 4 0 1 1 301.00399999933336 46.99999800000017 Z" fill="#21ccc7"></path><path class="highcharts-point tag-0" opacity="1" d="M 322 36 A 4 4 0 1 1 322.00399999933336 35.99999800000017 Z" fill="#21ccc7"></path><path class="highcharts-point tag-8 tag-4" opacity="1" d="M 344 31 A 4 4 0 1 1 344.00399999933336 30.99999800000017 Z" fill="#21ccc7"></path></g><g clip-path="url(#highcharts-uepta5u-148-)" transform="translate(61,10) scale(1 1)" opacity="1" data-z-index="3" class="highcharts-series highcharts-series-1 highcharts-errorbar-series"></g><g clip-path="none" transform="translate(61,10) scale(1 1)" opacity="1" data-z-index="3" class="highcharts-markers highcharts-series-1 highcharts-errorbar-series"></g><g clip-path="url(#highcharts-uepta5u-148-)" transform="translate(61,10) scale(1 1)" opacity="1" data-z-index="3" class="highcharts-series highcharts-series-2 highcharts-errorbar-series"></g><g clip-path="none" transform="translate(61,10) scale(1 1)" opacity="1" data-z-index="3" class="highcharts-markers highcharts-series-2 highcharts-errorbar-series"></g></g><g transform="translate(61,10) scale(1 1)" opacity="1" data-z-index="3" class="highcharts-data-labels highcharts-series-3 highcharts-line-series"><g transform="translate(-5,62)" data-z-index="1" class="highcharts-label highcharts-data-label highcharts-data-label-color-undefined"><text style="color:#4a4a4a;font-size:11px;font-weight:normal;fill:#4a4a4a;" y="16" data-z-index="1" x="5"><tspan style="" stroke-linejoin="round" stroke-width="2px" stroke="#FFFFFF" fill="#FFFFFF" class="highcharts-text-outline">Bi-LSTM-CNN<tspan y="16" x="5">​</tspan></tspan>Bi-LSTM-CNN</text></g><g transform="translate(84,56)" data-z-index="1" class="highcharts-label highcharts-data-label highcharts-data-label-color-undefined"><text style="color:#4a4a4a;font-size:11px;font-weight:normal;fill:#4a4a4a;" y="16" data-z-index="1" x="5"><tspan style="" stroke-linejoin="round" stroke-width="2px" stroke="#FFFFFF" fill="#FFFFFF" class="highcharts-text-outline">TagLM<tspan y="16" x="5">​</tspan></tspan>TagLM</text></g><g style="pointer-events:none;" opacity="0" transform="translate(101,51)" data-z-index="1" class="highcharts-label highcharts-data-label highcharts-data-label-color-undefined highcharts-data-label-hidden"><text style="color:#4a4a4a;font-size:11px;font-weight:normal;fill:#4a4a4a;" y="16" data-z-index="1" x="5"><tspan style="" stroke-linejoin="round" stroke-width="2px" stroke="#FFFFFF" fill="#FFFFFF" class="highcharts-text-outline">BiLSTM-CRF+ELMo<tspan y="16" x="5">​</tspan></tspan>BiLSTM-CRF+ELMo</text></g><g transform="translate(138,34)" data-z-index="1" class="highcharts-label highcharts-data-label highcharts-data-label-color-undefined"><text style="color:#4a4a4a;font-size:11px;font-weight:normal;fill:#4a4a4a;" y="16" data-z-index="1" x="5"><tspan style="" stroke-linejoin="round" stroke-width="2px" stroke="#FFFFFF" fill="#FFFFFF" class="highcharts-text-outline">Flair embeddings<tspan y="16" x="5">​</tspan></tspan>Flair embeddings</text></g><g style="pointer-events:none;" opacity="0" transform="translate(165,27)" data-z-index="1" class="highcharts-label highcharts-data-label highcharts-data-label-color-undefined highcharts-data-label-hidden"><text style="color:#4a4a4a;font-size:11px;font-weight:normal;fill:#4a4a4a;" y="16" data-z-index="1" x="5"><tspan style="" stroke-linejoin="round" stroke-width="2px" stroke="#FFFFFF" fill="#FFFFFF" class="highcharts-text-outline">CNN Large + fine-tune<tspan y="16" x="5">​</tspan></tspan>CNN Large + fine-tune</text></g><g transform="translate(223,22)" data-z-index="1" class="highcharts-label highcharts-data-label highcharts-data-label-color-undefined"><text style="color:#4a4a4a;font-size:11px;font-weight:normal;fill:#4a4a4a;" y="16" data-z-index="1" x="5"><tspan style="" stroke-linejoin="round" stroke-width="2px" stroke="#FFFFFF" fill="#FFFFFF" class="highcharts-text-outline">Cross-sentence context (First)<tspan y="16" x="5">​</tspan></tspan>Cross-sentence context (First)</text></g><g style="pointer-events:none;" opacity="0" transform="translate(288,11)" data-z-index="1" class="highcharts-label highcharts-data-label highcharts-data-label-color-undefined highcharts-data-label-hidden"><text style="color:#4a4a4a;font-size:11px;font-weight:normal;fill:#4a4a4a;" y="16" data-z-index="1" x="5"><tspan style="" stroke-linejoin="round" stroke-width="2px" stroke="#FFFFFF" fill="#FFFFFF" class="highcharts-text-outline">LUKE 483M<tspan y="16" x="5">​</tspan></tspan>LUKE 483M</text></g><g transform="translate(278,6)" data-z-index="1" class="highcharts-label highcharts-data-label highcharts-data-label-color-undefined"><text style="color:#4a4a4a;font-size:11px;font-weight:normal;fill:#4a4a4a;" y="16" data-z-index="1" x="5"><tspan style="" stroke-linejoin="round" stroke-width="2px" stroke="#FFFFFF" fill="#FFFFFF" class="highcharts-text-outline">ACE + document-context<tspan y="16" x="5">​</tspan></tspan>ACE + document-context</text></g></g><text y="24" style="color:#333333;font-size:18px;fill:#333333;" data-z-index="4" class="highcharts-title" text-anchor="middle" x="300"></text><text y="24" style="color:#666666;fill:#666666;" data-z-index="4" class="highcharts-subtitle" text-anchor="middle" x="300"></text><text y="347" style="color:#666666;fill:#666666;" data-z-index="4" class="highcharts-caption" text-anchor="start" x="10"></text><g transform="translate(61,10) scale(1 1)" opacity="1" data-z-index="6" class="highcharts-data-labels highcharts-series-1 highcharts-errorbar-series"></g><g transform="translate(61,10) scale(1 1)" opacity="1" data-z-index="6" class="highcharts-data-labels highcharts-series-2 highcharts-errorbar-series"></g><g transform="translate(147,308)" data-z-index="7" class="highcharts-legend highcharts-no-tooltip"><rect visibility="visible" height="27" width="305" y="0" x="0" ry="0" rx="0" class="highcharts-legend-box" fill="#ffffff"></rect><g data-z-index="1"><g><g transform="translate(8,3)" data-z-index="1" class="highcharts-legend-item highcharts-scatter-series highcharts-color-undefined highcharts-series-0"><path class="highcharts-graph" d="M 0 13 L 16 13" fill="none"></path><path opacity="1" class="highcharts-point" d="M 8 17 A 4 4 0 1 1 8.003999999333336 16.99999800000017 Z" fill="#ddd"></path><text y="17" data-z-index="2" text-anchor="start" style="color:#414141;cursor:pointer;font-size:14px;font-weight:normal;fill:#414141;" x="21">Other models</text></g><g transform="translate(133.046875,3)" data-z-index="1" class="highcharts-legend-item highcharts-line-series highcharts-color-undefined highcharts-series-3"><path stroke-width="2" stroke="#21ccc7" class="highcharts-graph" d="M 0 13 L 16 13" fill="none"></path><path opacity="1" class="highcharts-point" d="M 8 17 A 4 4 0 1 1 8.003999999333336 16.99999800000017 Z" fill="#21ccc7"></path><text data-z-index="2" text-anchor="start" style="color:#414141;cursor:pointer;font-size:14px;font-weight:normal;fill:#414141;" y="17" x="21">Models with highest F1</text></g></g></g></g><g data-z-index="7" class="highcharts-axis-labels highcharts-xaxis-labels"><text opacity="1" y="295" transform="translate(0,0)" text-anchor="middle" style="color:#666666;cursor:default;font-size:11px;fill:#666666;" x="82.806027415229">2016</text><text opacity="1" y="295" transform="translate(0,0)" text-anchor="middle" style="color:#666666;cursor:default;font-size:11px;fill:#666666;" x="146.29851774119">2017</text><text opacity="1" y="295" transform="translate(0,0)" text-anchor="middle" style="color:#666666;cursor:default;font-size:11px;fill:#666666;" x="209.61753131764">2018</text><text opacity="1" y="295" transform="translate(0,0)" text-anchor="middle" style="color:#666666;cursor:default;font-size:11px;fill:#666666;" x="272.93654489408">2019</text><text opacity="1" y="295" transform="translate(0,0)" text-anchor="middle" style="color:#666666;cursor:default;font-size:11px;fill:#666666;" x="336.25555847052">2020</text><text opacity="1" y="295" transform="translate(0,0)" text-anchor="middle" style="color:#666666;cursor:default;font-size:11px;fill:#666666;" x="399.74804879648">2021</text><text opacity="1" y="295" transform="translate(0,0)" text-anchor="middle" style="color:#666666;cursor:default;font-size:11px;fill:#666666;" x="463.06706237293">2022</text><text opacity="1" y="295" transform="translate(0,0)" text-anchor="middle" style="color:#666666;cursor:default;font-size:11px;fill:#666666;" x="526.38607594937">2023</text><text opacity="1" y="295" transform="translate(0,0)" text-anchor="middle" style="color:#666666;cursor:default;font-size:11px;fill:#666666;" x="577.7578125">2024</text></g><g data-z-index="7" class="highcharts-axis-labels highcharts-yaxis-labels"><text opacity="1" y="281" transform="translate(0,0)" text-anchor="end" style="color:#666666;cursor:default;font-size:11px;fill:#666666;" x="46">82</text><text opacity="1" y="243" transform="translate(0,0)" text-anchor="end" style="color:#666666;cursor:default;font-size:11px;fill:#666666;" x="46">84</text><text opacity="1" y="205" transform="translate(0,0)" text-anchor="end" style="color:#666666;cursor:default;font-size:11px;fill:#666666;" x="46">86</text><text opacity="1" y="167" transform="translate(0,0)" text-anchor="end" style="color:#666666;cursor:default;font-size:11px;fill:#666666;" x="46">88</text><text opacity="1" y="129" transform="translate(0,0)" text-anchor="end" style="color:#666666;cursor:default;font-size:11px;fill:#666666;" x="46">90</text><text opacity="1" y="91" transform="translate(0,0)" text-anchor="end" style="color:#666666;cursor:default;font-size:11px;fill:#666666;" x="46">92</text><text opacity="1" y="53" transform="translate(0,0)" text-anchor="end" style="color:#666666;cursor:default;font-size:11px;fill:#666666;" x="46">94</text><text opacity="1" y="15" transform="translate(0,0)" text-anchor="end" style="color:#666666;cursor:default;font-size:11px;fill:#666666;" x="46">96</text></g></svg>